<svg width="10" height="8" viewBox="0 0 10 8" fill="none" xmlns="http://www.w3.org/2000/svg">
<path d="M7.40685 0.2095C7.36063 0.144766 7.29965 0.0919893 7.22895 0.055553C7.15824 0.0191167 7.07987 7.18881e-05 7.00033 0H0.500069C0.408247 8.29359e-05 0.318221 0.0254471 0.239863 0.0733111C0.161505 0.121175 0.0978395 0.189691 0.0558486 0.271345C0.0138577 0.352999 -0.00483734 0.444639 0.00181341 0.536215C0.00846415 0.627792 0.0402039 0.715769 0.0935522 0.7905L2.38564 4L0.0930522 7.2095C0.0396793 7.28427 0.00793536 7.37229 0.00130448 7.46391C-0.0053264 7.55553 0.0134121 7.64721 0.0554632 7.72888C0.0975143 7.81055 0.161253 7.87906 0.239683 7.92688C0.318114 7.97471 0.408205 8.00001 0.500069 8H7.00033C7.07987 7.99993 7.15824 7.98088 7.22895 7.94445C7.29965 7.90801 7.36063 7.85523 7.40685 7.7905L9.90695 4.2905C9.96747 4.20572 10 4.10416 10 4C10 3.89584 9.96747 3.79428 9.90695 3.7095L7.40685 0.2095Z" fill="url(#paint0_linear_4134_1079)"/>
<defs>
<linearGradient id="paint0_linear_4134_1079" x1="-4.28565e-05" y1="4.00026" x2="10" y2="4.00026" gradientUnits="userSpaceOnUse">
<stop stop-color="#2CA8DC"/>
<stop offset="1" stop-color="#D0DF8A"/>
</linearGradient>
</defs>
</svg>
