<svg width="24" height="24" viewBox="0 0 24 24" fill="none" xmlns="http://www.w3.org/2000/svg">
<path fill-rule="evenodd" clip-rule="evenodd" d="M18.7481 6.16297C19.2105 6.46537 19.3401 7.08457 19.0377 7.54697L12.2377 17.947C12.1585 18.0681 12.0539 18.1707 11.9312 18.2475C11.8084 18.3243 11.6705 18.3735 11.5269 18.3917C11.3832 18.41 11.2374 18.3968 11.0993 18.3532C10.9613 18.3096 10.8344 18.2365 10.7273 18.139L6.32733 14.139C6.13107 13.9605 6.01373 13.7114 6.00113 13.4465C5.98853 13.1815 6.08169 12.9224 6.26013 12.7262C6.43857 12.5299 6.68766 12.4126 6.95261 12.4C7.21756 12.3874 7.47667 12.4805 7.67293 12.659L11.2057 15.8702L17.3641 6.45257C17.5093 6.23067 17.7366 6.07551 17.9962 6.0212C18.2557 5.9669 18.5262 6.01789 18.7481 6.16297Z" fill="url(#paint0_linear_4126_1202)"/>
<defs>
<linearGradient id="paint0_linear_4126_1202" x1="5.99994" y1="12.2003" x2="19.201" y2="12.2003" gradientUnits="userSpaceOnUse">
<stop stop-color="#2CA8DC"/>
<stop offset="1" stop-color="#D0DF8A"/>
</linearGradient>
</defs>
</svg>
