<svg width="110" height="110" viewBox="0 0 110 110" fill="none" xmlns="http://www.w3.org/2000/svg">
<circle cx="55" cy="55" r="52.9375" stroke="url(#paint0_linear_4310_2468)" stroke-width="4.125"/>
<path d="M38.0213 50.75V36.912L39.8913 38.716H35.1613V35.35H42.3773V50.75H38.0213ZM44.5393 47.802V44.964L51.4473 35.35H55.9573L49.2473 44.964L47.1793 44.348H59.2133V47.802H44.5393ZM52.6793 50.75V47.802L52.8113 44.348V41.73H56.9253V50.75H52.6793ZM64.5805 48.286V37.814H67.9685V48.286H64.5805ZM60.8405 44.656V41.444H71.6865V44.656H60.8405ZM27.766 72.75V66.238L28.778 68.856L21.892 57.35H26.49L31.462 65.688H28.8L33.794 57.35H38.018L31.154 68.856L32.122 66.238V72.75H27.766ZM43.8654 72.948C42.4574 72.948 41.2254 72.684 40.1694 72.156C39.1281 71.6133 38.3141 70.88 37.7274 69.956C37.1554 69.0173 36.8694 67.954 36.8694 66.766C36.8694 65.578 37.1481 64.522 37.7054 63.598C38.2774 62.6593 39.0621 61.9333 40.0594 61.42C41.0567 60.892 42.1787 60.628 43.4254 60.628C44.5987 60.628 45.6694 60.87 46.6374 61.354C47.6054 61.8233 48.3754 62.52 48.9474 63.444C49.5194 64.368 49.8054 65.49 49.8054 66.81C49.8054 66.9567 49.7981 67.1253 49.7834 67.316C49.7687 67.5067 49.7541 67.6827 49.7394 67.844H40.3014V65.644H47.5174L45.9334 66.26C45.9481 65.7173 45.8454 65.248 45.6254 64.852C45.4201 64.456 45.1267 64.148 44.7454 63.928C44.3787 63.708 43.9461 63.598 43.4474 63.598C42.9487 63.598 42.5087 63.708 42.1274 63.928C41.7607 64.148 41.4747 64.4633 41.2694 64.874C41.0641 65.27 40.9614 65.7393 40.9614 66.282V66.92C40.9614 67.5067 41.0787 68.0127 41.3134 68.438C41.5627 68.8633 41.9147 69.1933 42.3694 69.428C42.8241 69.648 43.3667 69.758 43.9974 69.758C44.5841 69.758 45.0827 69.6773 45.4934 69.516C45.9187 69.34 46.3367 69.076 46.7474 68.724L48.9474 71.012C48.3754 71.6427 47.6714 72.1267 46.8354 72.464C45.9994 72.7867 45.0094 72.948 43.8654 72.948ZM58.6924 72.75V70.528L58.4064 69.978V65.886C58.4064 65.226 58.201 64.72 57.7904 64.368C57.3944 64.0013 56.7564 63.818 55.8764 63.818C55.3044 63.818 54.725 63.9133 54.1384 64.104C53.5517 64.28 53.053 64.5293 52.6424 64.852L51.2344 62.014C51.909 61.574 52.7157 61.2367 53.6544 61.002C54.6077 60.7527 55.5537 60.628 56.4924 60.628C58.4284 60.628 59.9244 61.0753 60.9804 61.97C62.051 62.85 62.5864 64.236 62.5864 66.128V72.75H58.6924ZM55.1724 72.948C54.219 72.948 53.4124 72.7867 52.7524 72.464C52.0924 72.1413 51.5864 71.7013 51.2344 71.144C50.897 70.5867 50.7284 69.9633 50.7284 69.274C50.7284 68.5407 50.9117 67.91 51.2784 67.382C51.6597 66.8393 52.239 66.4287 53.0164 66.15C53.7937 65.8567 54.7984 65.71 56.0304 65.71H58.8464V67.888H56.6024C55.9277 67.888 55.451 67.998 55.1724 68.218C54.9084 68.438 54.7764 68.7313 54.7764 69.098C54.7764 69.4647 54.9157 69.758 55.1944 69.978C55.473 70.198 55.8544 70.308 56.3384 70.308C56.793 70.308 57.2037 70.198 57.5704 69.978C57.9517 69.7433 58.2304 69.3913 58.4064 68.922L58.9784 70.462C58.7584 71.2833 58.3257 71.9067 57.6804 72.332C57.0497 72.7427 56.2137 72.948 55.1724 72.948ZM65.2248 72.75V60.826H69.2068V64.302L68.6128 63.312C68.9648 62.4173 69.5368 61.75 70.3288 61.31C71.1208 60.8553 72.0815 60.628 73.2108 60.628V64.39C73.0201 64.3607 72.8515 64.346 72.7048 64.346C72.5728 64.3313 72.4261 64.324 72.2648 64.324C71.4141 64.324 70.7248 64.5587 70.1968 65.028C69.6688 65.4827 69.4048 66.2307 69.4048 67.272V72.75H65.2248ZM79.3127 72.948C78.3007 72.948 77.3107 72.8307 76.3427 72.596C75.3894 72.3613 74.6194 72.068 74.0327 71.716L75.2867 68.856C75.8441 69.1933 76.4967 69.4647 77.2447 69.67C77.9927 69.8607 78.7261 69.956 79.4447 69.956C80.1487 69.956 80.6327 69.8827 80.8967 69.736C81.1754 69.5893 81.3147 69.3913 81.3147 69.142C81.3147 68.9073 81.1827 68.7387 80.9187 68.636C80.6694 68.5187 80.3321 68.4307 79.9067 68.372C79.4961 68.3133 79.0414 68.2473 78.5427 68.174C78.0441 68.1007 77.5381 68.0053 77.0247 67.888C76.5261 67.756 76.0641 67.5653 75.6387 67.316C75.2281 67.052 74.8981 66.7 74.6487 66.26C74.3994 65.82 74.2747 65.2627 74.2747 64.588C74.2747 63.8253 74.4947 63.1507 74.9347 62.564C75.3894 61.9627 76.0494 61.4933 76.9147 61.156C77.7801 60.804 78.8361 60.628 80.0827 60.628C80.9187 60.628 81.7621 60.716 82.6127 60.892C83.4781 61.0533 84.2041 61.3027 84.7907 61.64L83.5367 64.478C82.9501 64.1407 82.3634 63.9133 81.7767 63.796C81.1901 63.664 80.6327 63.598 80.1047 63.598C79.4007 63.598 78.9021 63.6787 78.6087 63.84C78.3301 64.0013 78.1907 64.1993 78.1907 64.434C78.1907 64.6687 78.3154 64.852 78.5647 64.984C78.8141 65.1013 79.1441 65.1967 79.5547 65.27C79.9801 65.3287 80.4421 65.3947 80.9407 65.468C81.4394 65.5267 81.9381 65.622 82.4367 65.754C82.9501 65.886 83.4121 66.084 83.8227 66.348C84.2481 66.5973 84.5854 66.942 84.8347 67.382C85.0841 67.8073 85.2087 68.3573 85.2087 69.032C85.2087 69.7653 84.9814 70.4253 84.5267 71.012C84.0867 71.5987 83.4267 72.068 82.5467 72.42C81.6814 72.772 80.6034 72.948 79.3127 72.948Z" fill="url(#paint1_linear_4310_2468)"/>
<defs>
<linearGradient id="paint0_linear_4310_2468" x1="-0.000471422" y1="55.0035" x2="110" y2="55.0035" gradientUnits="userSpaceOnUse">
<stop stop-color="#2E3F75"/>
<stop offset="1" stop-color="#165D31"/>
</linearGradient>
<linearGradient id="paint1_linear_4310_2468" x1="21.9997" y1="54.2512" x2="86.0001" y2="54.2512" gradientUnits="userSpaceOnUse">
<stop stop-color="#2E3F75"/>
<stop offset="1" stop-color="#165D31"/>
</linearGradient>
</defs>
</svg>
