<svg width="40" height="40" viewBox="0 0 40 40" fill="none" xmlns="http://www.w3.org/2000/svg">
<circle cx="20" cy="20" r="19.25" stroke="url(#paint0_linear_4262_1792)" stroke-width="1.5"/>
<path d="M14.1896 19V13.968L14.8696 14.624H13.1496V13.4H15.7736V19H14.1896ZM16.5598 17.928V16.896L19.0718 13.4H20.7118L18.2718 16.896L17.5197 16.672H21.8958V17.928H16.5598ZM19.5198 19V17.928L19.5678 16.672V15.72H21.0638V19H19.5198ZM23.8474 18.104V14.296H25.0794V18.104H23.8474ZM22.4874 16.784V15.616H26.4314V16.784H22.4874ZM10.4604 27V24.632L10.8284 25.584L8.32437 21.4H9.99638L11.8044 24.432H10.8364L12.6524 21.4H14.1884L11.6924 25.584L12.0444 24.632V27H10.4604ZM16.3147 27.072C15.8027 27.072 15.3547 26.976 14.9707 26.784C14.592 26.5867 14.296 26.32 14.0827 25.984C13.8747 25.6427 13.7707 25.256 13.7707 24.824C13.7707 24.392 13.872 24.008 14.0747 23.672C14.2827 23.3307 14.568 23.0667 14.9307 22.88C15.2934 22.688 15.7014 22.592 16.1547 22.592C16.5814 22.592 16.9707 22.68 17.3227 22.856C17.6747 23.0267 17.9547 23.28 18.1627 23.616C18.3707 23.952 18.4747 24.36 18.4747 24.84C18.4747 24.8933 18.472 24.9547 18.4667 25.024C18.4614 25.0933 18.456 25.1573 18.4507 25.216H15.0187V24.416H17.6427L17.0667 24.64C17.072 24.4427 17.0347 24.272 16.9547 24.128C16.88 23.984 16.7734 23.872 16.6347 23.792C16.5014 23.712 16.344 23.672 16.1627 23.672C15.9814 23.672 15.8214 23.712 15.6827 23.792C15.5494 23.872 15.4454 23.9867 15.3707 24.136C15.296 24.28 15.2587 24.4507 15.2587 24.648V24.88C15.2587 25.0933 15.3014 25.2773 15.3867 25.432C15.4774 25.5867 15.6054 25.7067 15.7707 25.792C15.936 25.872 16.1334 25.912 16.3627 25.912C16.576 25.912 16.7574 25.8827 16.9067 25.824C17.0614 25.76 17.2134 25.664 17.3627 25.536L18.1627 26.368C17.9547 26.5973 17.6987 26.7733 17.3947 26.896C17.0907 27.0133 16.7307 27.072 16.3147 27.072ZM21.7063 27V26.192L21.6023 25.992V24.504C21.6023 24.264 21.5276 24.08 21.3783 23.952C21.2343 23.8187 21.0023 23.752 20.6823 23.752C20.4743 23.752 20.2636 23.7867 20.0503 23.856C19.837 23.92 19.6556 24.0107 19.5063 24.128L18.9943 23.096C19.2396 22.936 19.533 22.8133 19.8743 22.728C20.221 22.6373 20.565 22.592 20.9063 22.592C21.6103 22.592 22.1543 22.7547 22.5383 23.08C22.9276 23.4 23.1223 23.904 23.1223 24.592V27H21.7063ZM20.4263 27.072C20.0796 27.072 19.7863 27.0133 19.5463 26.896C19.3063 26.7787 19.1223 26.6187 18.9943 26.416C18.8716 26.2133 18.8103 25.9867 18.8103 25.736C18.8103 25.4693 18.877 25.24 19.0103 25.048C19.149 24.8507 19.3596 24.7013 19.6423 24.6C19.925 24.4933 20.2903 24.44 20.7383 24.44H21.7623V25.232H20.9463C20.701 25.232 20.5276 25.272 20.4263 25.352C20.3303 25.432 20.2823 25.5387 20.2823 25.672C20.2823 25.8053 20.333 25.912 20.4343 25.992C20.5356 26.072 20.6743 26.112 20.8503 26.112C21.0156 26.112 21.165 26.072 21.2983 25.992C21.437 25.9067 21.5383 25.7787 21.6023 25.608L21.8103 26.168C21.7303 26.4667 21.573 26.6933 21.3383 26.848C21.109 26.9973 20.805 27.072 20.4263 27.072ZM24.0818 27V22.664H25.5298V23.928L25.3138 23.568C25.4418 23.2427 25.6498 23 25.9378 22.84C26.2258 22.6747 26.5751 22.592 26.9858 22.592V23.96C26.9164 23.9493 26.8551 23.944 26.8018 23.944C26.7538 23.9387 26.7004 23.936 26.6418 23.936C26.3324 23.936 26.0818 24.0213 25.8898 24.192C25.6978 24.3573 25.6018 24.6293 25.6018 25.008V27H24.0818ZM29.2046 27.072C28.8366 27.072 28.4766 27.0293 28.1246 26.944C27.778 26.8587 27.498 26.752 27.2846 26.624L27.7406 25.584C27.9433 25.7067 28.1806 25.8053 28.4526 25.88C28.7246 25.9493 28.9913 25.984 29.2526 25.984C29.5086 25.984 29.6846 25.9573 29.7806 25.904C29.882 25.8507 29.9326 25.7787 29.9326 25.688C29.9326 25.6027 29.8846 25.5413 29.7886 25.504C29.698 25.4613 29.5753 25.4293 29.4206 25.408C29.2713 25.3867 29.106 25.3627 28.9246 25.336C28.7433 25.3093 28.5593 25.2747 28.3726 25.232C28.1913 25.184 28.0233 25.1147 27.8686 25.024C27.7193 24.928 27.5993 24.8 27.5086 24.64C27.418 24.48 27.3726 24.2773 27.3726 24.032C27.3726 23.7547 27.4526 23.5093 27.6126 23.296C27.778 23.0773 28.018 22.9067 28.3326 22.784C28.6473 22.656 29.0313 22.592 29.4846 22.592C29.7886 22.592 30.0953 22.624 30.4046 22.688C30.7193 22.7467 30.9833 22.8373 31.1966 22.96L30.7406 23.992C30.5273 23.8693 30.314 23.7867 30.1006 23.744C29.8873 23.696 29.6846 23.672 29.4926 23.672C29.2366 23.672 29.0553 23.7013 28.9486 23.76C28.8473 23.8187 28.7966 23.8907 28.7966 23.976C28.7966 24.0613 28.842 24.128 28.9326 24.176C29.0233 24.2187 29.1433 24.2533 29.2926 24.28C29.4473 24.3013 29.6153 24.3253 29.7966 24.352C29.978 24.3733 30.1593 24.408 30.3406 24.456C30.5273 24.504 30.6953 24.576 30.8446 24.672C30.9993 24.7627 31.122 24.888 31.2126 25.048C31.3033 25.2027 31.3486 25.4027 31.3486 25.648C31.3486 25.9147 31.266 26.1547 31.1006 26.368C30.9406 26.5813 30.7006 26.752 30.3806 26.88C30.066 27.008 29.674 27.072 29.2046 27.072Z" fill="url(#paint1_linear_4262_1792)"/>
<defs>
<linearGradient id="paint0_linear_4262_1792" x1="-0.000171426" y1="20.0013" x2="40.0001" y2="20.0013" gradientUnits="userSpaceOnUse">
<stop stop-color="#2CA8DC"/>
<stop offset="1" stop-color="#D0DF8A"/>
</linearGradient>
<linearGradient id="paint1_linear_4262_1792" x1="7.9999" y1="20.0004" x2="32" y2="20.0004" gradientUnits="userSpaceOnUse">
<stop stop-color="#2CA8DC"/>
<stop offset="1" stop-color="#D0DF8A"/>
</linearGradient>
</defs>
</svg>
