<svg width="92" height="116" viewBox="0 0 92 116" fill="none" xmlns="http://www.w3.org/2000/svg">
<g style="mix-blend-mode:lighten">
<path d="M68.7553 17.4486C66.1682 21.7796 63.2283 27.053 60.7999 31.118C58.3724 35.1872 56.5024 38.1175 56.5024 38.1175C55.1725 40.5983 53.7618 43.04 52.3214 45.4688C48.3775 51.9651 44.2318 58.4623 39.885 64.6778C35.5364 70.9112 30.9288 76.9285 25.9313 82.4402C23.9761 84.5721 21.9445 86.6095 19.8463 88.5048C20.1949 84.2859 20.5337 80.0845 20.6291 78.5656C20.8268 75.3893 19.6268 73.4856 17.3533 70.6418C14.6481 73.0965 13.1547 74.7902 12.8355 77.9562C12.6624 79.6711 12.2432 84.83 11.8663 89.5602C11.6214 92.6329 11.389 95.5661 11.2161 97.7305C10.9993 101.01 10.8597 103.125 10.8597 103.125C10.8597 103.125 10.8576 103.159 10.853 103.222C10.8506 103.254 10.8479 103.294 10.8448 103.342C10.8518 103.38 10.9361 103.344 10.9898 103.347C11.2396 103.323 11.6075 103.288 12.0771 103.242C13.0142 103.152 14.3598 103.022 15.9962 102.864C16.811 102.789 17.7188 102.668 18.6739 102.561C19.1526 102.504 19.6452 102.445 20.1508 102.385C20.4367 102.347 20.7289 102.308 21.0276 102.268C22.0994 102.121 23.2585 101.96 24.4446 101.796C29.1266 101.098 34.2343 100.337 35.9344 100.083C39.0525 99.5873 40.5689 98.0128 42.9747 95.269C40.0967 93.0312 38.0412 91.9449 34.8667 92.3275C33.7738 92.4561 31.3185 92.814 28.4851 93.2338C29.9834 91.7704 31.4222 90.268 32.8216 88.7456C38.2194 82.7842 43.0269 76.4769 47.5306 70.0169C52.0495 63.544 56.2303 56.9821 60.3144 50.2451C61.6094 48.0632 62.8854 45.8646 64.1004 43.6275C64.1004 43.6275 64.8329 42.1069 65.8537 39.8136C66.8719 37.5187 68.165 34.4497 69.3433 31.3938C71.7024 25.2777 73.6836 19.2817 73.3897 19.7524C76.4377 9.60623 77.1437 2.57126 68.7553 17.4486Z" fill="url(#paint0_linear_4262_2237)"/>
</g>
<defs>
<linearGradient id="paint0_linear_4262_2237" x1="76.0666" y1="9.52868" x2="15.0751" y2="106.023" gradientUnits="userSpaceOnUse">
<stop stop-color="#2E3F75"/>
<stop offset="1" stop-color="#165D31"/>
</linearGradient>
</defs>
</svg>
