<svg width="110" height="110" viewBox="0 0 110 110" fill="none" xmlns="http://www.w3.org/2000/svg">
<g clip-path="url(#clip0_4310_904)">
<path d="M90.1975 50.6415L82.9985 36.2604C82.7998 35.8629 82.5248 35.5084 82.1892 35.2171C81.8535 34.9258 81.4637 34.7036 81.0422 34.5629C80.6206 34.4223 80.1754 34.3661 79.7321 34.3976C79.2888 34.429 78.8561 34.5475 78.4586 34.7462L71.065 38.4289L55.8718 34.4134C55.687 34.3644 55.4926 34.3644 55.3078 34.4134L40.1146 38.4289L32.721 34.7321C32.3235 34.5334 31.8907 34.4149 31.4474 34.3835C31.0041 34.352 30.559 34.4082 30.1374 34.5488C29.7158 34.6895 29.3261 34.9117 28.9904 35.203C28.6547 35.4943 28.3797 35.8488 28.1811 36.2463L20.9821 50.6415C20.7834 51.039 20.6649 51.4718 20.6335 51.9151C20.602 52.3584 20.6582 52.8036 20.7988 53.2251C20.9395 53.6467 21.1617 54.0365 21.453 54.3721C21.7443 54.7078 22.0988 54.9828 22.4963 55.1814L30.1916 59.0305L45.9121 70.259C46.0267 70.3412 46.1559 70.4005 46.2928 70.4339L64.3397 74.9456C64.5275 74.9948 64.7248 74.9946 64.9125 74.9452C65.1002 74.8958 65.272 74.7988 65.4112 74.6636L81.0725 59.0023L88.6861 55.1955C89.0836 54.9969 89.4381 54.7219 89.7294 54.3862C90.0206 54.0506 90.2429 53.6608 90.3835 53.2392C90.5241 52.8176 90.5803 52.3725 90.5489 51.9292C90.5175 51.4859 90.399 51.0531 90.2003 50.6556L90.1975 50.6415ZM75.8164 61.0608L65.3266 52.6577C65.1095 52.4835 64.8355 52.3957 64.5575 52.4113C64.2795 52.4269 64.0171 52.5448 63.8208 52.7423C58.325 58.2804 52.1637 57.567 48.23 55.0546C48.0852 54.9617 47.9632 54.8374 47.8729 54.691C47.7826 54.5445 47.7264 54.3797 47.7084 54.2086C47.6891 54.0439 47.7073 53.877 47.7615 53.7203C47.8156 53.5635 47.9045 53.4211 48.0214 53.3034L60.5583 41.1415H70.6843L79.031 57.8377L75.8164 61.0608ZM22.939 52.5111C22.8489 52.2318 22.8711 51.9283 23.0011 51.6651L30.2114 37.2558C30.3039 37.0696 30.4461 36.9126 30.6222 36.8021C30.7984 36.6916 31.0017 36.632 31.2096 36.6298C31.384 36.6309 31.5558 36.6724 31.7115 36.7511L38.4791 40.1349L30.2706 56.5491L23.503 53.1653C23.3706 53.0986 23.2527 53.0065 23.1559 52.8943C23.0591 52.782 22.9855 52.6518 22.939 52.5111ZM64.2664 72.6023L47.0485 68.2964L32.2163 57.7024L40.7716 40.5776L55.5898 36.6693L63.9703 38.8857H60.1015C59.8078 38.8854 59.5255 38.9997 59.3148 39.2043L46.4282 51.7046C46.0695 52.0632 45.7961 52.4979 45.6281 52.9765C45.4601 53.455 45.4019 53.9652 45.4576 54.4694C45.5134 54.9735 45.6818 55.4586 45.9503 55.8889C46.2189 56.3191 46.5807 56.6835 47.0091 56.9551C52.6149 60.5391 59.4529 59.7749 64.6781 55.0348L74.2006 62.6653L64.2664 72.6023ZM88.2349 52.5111C88.1885 52.6518 88.1148 52.782 88.018 52.8943C87.9212 53.0065 87.8033 53.0986 87.6709 53.1653L80.9033 56.5491L72.7005 40.1349L79.468 36.7511C79.7343 36.6214 80.0409 36.6017 80.3215 36.6961C80.6022 36.7906 80.8345 36.9916 80.9682 37.2558L88.1672 51.651C88.3047 51.9166 88.3311 52.226 88.2405 52.5111H88.2349ZM55.5729 80.9011C55.5103 81.1435 55.3688 81.3582 55.1707 81.5114C54.9726 81.6646 54.7292 81.7474 54.4788 81.747C54.3837 81.7477 54.289 81.7363 54.1968 81.7132L42.4438 78.7721C42.3061 78.7384 42.176 78.6791 42.0603 78.5973L34.6328 73.2875C34.3894 73.1137 34.225 72.8502 34.1758 72.5551C34.1267 72.26 34.1967 71.9575 34.3706 71.7141C34.5445 71.4706 34.8079 71.3063 35.103 71.2571C35.3981 71.2079 35.7006 71.278 35.9441 71.4518L43.1967 76.6318L54.7579 79.5222C54.9023 79.5586 55.038 79.6233 55.1573 79.7125C55.2765 79.8017 55.3769 79.9137 55.4526 80.0419C55.5284 80.17 55.578 80.312 55.5987 80.4594C55.6193 80.6069 55.6105 80.757 55.5729 80.9011Z" fill="url(#paint0_linear_4310_904)"/>
<circle cx="55" cy="55" r="52.9375" stroke="url(#paint1_linear_4310_904)" stroke-width="4.125"/>
</g>
<defs>
<linearGradient id="paint0_linear_4310_904" x1="20.6247" y1="58.0625" x2="90.5575" y2="58.0625" gradientUnits="userSpaceOnUse">
<stop stop-color="#2E3F75"/>
<stop offset="1" stop-color="#165D31"/>
</linearGradient>
<linearGradient id="paint1_linear_4310_904" x1="-0.000471422" y1="55.0035" x2="110" y2="55.0035" gradientUnits="userSpaceOnUse">
<stop stop-color="#2E3F75"/>
<stop offset="1" stop-color="#165D31"/>
</linearGradient>
<clipPath id="clip0_4310_904">
<rect width="110" height="110" fill="white"/>
</clipPath>
</defs>
</svg>
