<svg width="40" height="40" viewBox="0 0 40 40" fill="none" xmlns="http://www.w3.org/2000/svg">
<g clip-path="url(#clip0_4262_1870)">
<path d="M32.7991 18.4151L30.1813 13.1856C30.109 13.041 30.009 12.9121 29.887 12.8062C29.7649 12.7003 29.6232 12.6195 29.4699 12.5683C29.3166 12.5172 29.1547 12.4968 28.9935 12.5082C28.8323 12.5196 28.6749 12.5627 28.5304 12.635L25.8418 13.9741L20.317 12.514C20.2498 12.4962 20.1791 12.4962 20.1119 12.514L14.5871 13.9741L11.8985 12.6298C11.754 12.5576 11.5966 12.5145 11.4354 12.5031C11.2742 12.4917 11.1124 12.5121 10.9591 12.5632C10.8058 12.6143 10.664 12.6952 10.542 12.8011C10.4199 12.907 10.3199 13.0359 10.2477 13.1805L7.62985 18.4151C7.55759 18.5597 7.51452 18.717 7.50308 18.8782C7.49165 19.0394 7.51208 19.2013 7.56322 19.3546C7.61435 19.5079 7.69518 19.6496 7.80109 19.7717C7.907 19.8937 8.03592 19.9937 8.18048 20.066L10.9788 21.4656L16.6953 25.5487C16.737 25.5786 16.784 25.6002 16.8338 25.6123L23.3963 27.2529C23.4645 27.2708 23.5363 27.2708 23.6045 27.2528C23.6728 27.2349 23.7353 27.1996 23.7859 27.1504L29.4809 21.4554L32.2495 20.0711C32.394 19.9989 32.523 19.8989 32.6289 19.7768C32.7348 19.6547 32.8156 19.513 32.8667 19.3597C32.9179 19.2064 32.9383 19.0445 32.9269 18.8833C32.9154 18.7221 32.8724 18.5648 32.8001 18.4202L32.7991 18.4151ZM27.5696 22.2039L23.7551 19.1483C23.6762 19.0849 23.5766 19.053 23.4755 19.0587C23.3744 19.0643 23.279 19.1072 23.2076 19.179C21.2091 21.1929 18.9686 20.9335 17.5382 20.0198C17.4855 19.9861 17.4412 19.9409 17.4083 19.8876C17.3755 19.8344 17.355 19.7744 17.3485 19.7122C17.3415 19.6523 17.3481 19.5916 17.3678 19.5346C17.3875 19.4777 17.4198 19.4258 17.4623 19.3831L22.0212 14.9606H25.7034L28.7385 21.0319L27.5696 22.2039ZM8.34147 19.0949C8.30868 18.9934 8.31677 18.883 8.36403 18.7873L10.9859 13.5476C11.0196 13.4799 11.0713 13.4228 11.1354 13.3826C11.1994 13.3424 11.2733 13.3207 11.3489 13.3199C11.4124 13.3203 11.4748 13.3354 11.5315 13.364L13.9924 14.5945L11.0075 20.5633L8.54655 19.3328C8.49841 19.3086 8.45552 19.2751 8.42033 19.2343C8.38515 19.1935 8.35835 19.1461 8.34147 19.0949ZM23.3696 26.4008L17.1086 24.8351L11.715 20.9827L14.826 14.7555L20.2145 13.3343L23.2619 14.1402H21.8551C21.7483 14.1401 21.6456 14.1817 21.569 14.2561L16.883 18.8017C16.7526 18.9321 16.6531 19.0902 16.592 19.2642C16.531 19.4382 16.5098 19.6237 16.53 19.807C16.5503 19.9904 16.6116 20.1668 16.7092 20.3232C16.8069 20.4797 16.9384 20.6122 17.0942 20.7109C19.1327 22.0142 21.6192 21.7363 23.5193 20.0127L26.982 22.7874L23.3696 26.4008ZM32.0854 19.0949C32.0685 19.1461 32.0417 19.1935 32.0065 19.2343C31.9714 19.2751 31.9285 19.3086 31.8803 19.3328L29.4194 20.5633L26.4365 14.5945L28.8975 13.364C28.9943 13.3169 29.1058 13.3097 29.2078 13.3441C29.3099 13.3784 29.3944 13.4515 29.443 13.5476L32.0608 18.7822C32.1108 18.8788 32.1204 18.9913 32.0875 19.0949H32.0854ZM20.2083 29.4186C20.1856 29.5067 20.1341 29.5848 20.0621 29.6405C19.99 29.6962 19.9015 29.7263 19.8105 29.7262C19.7759 29.7264 19.7414 29.7223 19.7079 29.7139L15.4341 28.6444C15.384 28.6322 15.3367 28.6106 15.2946 28.5808L12.5938 26.65C12.5052 26.5868 12.4455 26.491 12.4276 26.3837C12.4097 26.2764 12.4352 26.1664 12.4984 26.0778C12.5616 25.9893 12.6574 25.9295 12.7647 25.9117C12.872 25.8938 12.982 25.9193 13.0706 25.9825L15.7079 27.8661L19.912 28.9172C19.9645 28.9304 20.0138 28.9539 20.0572 28.9864C20.1005 29.0188 20.137 29.0595 20.1646 29.1061C20.1921 29.1527 20.2102 29.2044 20.2177 29.258C20.2252 29.3116 20.222 29.3662 20.2083 29.4186Z" fill="url(#paint0_linear_4262_1870)"/>
<circle cx="20" cy="20" r="19.25" stroke="url(#paint1_linear_4262_1870)" stroke-width="1.5"/>
</g>
<defs>
<linearGradient id="paint0_linear_4262_1870" x1="7.49989" y1="21.1137" x2="32.93" y2="21.1137" gradientUnits="userSpaceOnUse">
<stop stop-color="#2CA8DC"/>
<stop offset="1" stop-color="#D0DF8A"/>
</linearGradient>
<linearGradient id="paint1_linear_4262_1870" x1="-0.000171426" y1="20.0013" x2="40.0001" y2="20.0013" gradientUnits="userSpaceOnUse">
<stop stop-color="#2CA8DC"/>
<stop offset="1" stop-color="#D0DF8A"/>
</linearGradient>
<clipPath id="clip0_4262_1870">
<rect width="40" height="40" fill="white"/>
</clipPath>
</defs>
</svg>
