<svg width="40" height="40" viewBox="0 0 40 40" fill="none" xmlns="http://www.w3.org/2000/svg">
<path d="M8.12549 33.7717H11.8922C13.5755 33.7717 15.2805 33.9483 16.9188 34.285C19.844 34.8841 22.8533 34.9507 25.8022 34.4817C27.2488 34.2483 28.6688 33.89 29.9555 33.27C31.1155 32.7083 32.5372 31.92 33.4922 31.035C34.4455 30.1517 35.4388 28.7067 36.1422 27.5767C36.7488 26.6067 36.4555 25.4183 35.4988 24.6967C34.9609 24.3064 34.3134 24.0962 33.6488 24.0962C32.9842 24.0962 32.3367 24.3064 31.7988 24.6967L28.7872 26.9717C27.6205 27.855 26.3455 28.6667 24.8272 28.9083C24.6438 28.9372 24.4522 28.9633 24.2522 28.9867M24.2522 28.9867L24.0688 29.0067M24.2522 28.9867C24.5189 28.9144 24.7634 28.7769 24.9638 28.5867C25.2154 28.3697 25.4208 28.1044 25.568 27.8065C25.7152 27.5087 25.8011 27.1844 25.8207 26.8527C25.8403 26.5211 25.7931 26.1889 25.682 25.8758C25.5709 25.5627 25.3981 25.2751 25.1738 25.03C24.9566 24.7889 24.7037 24.5826 24.4238 24.4183C19.7622 21.6367 12.5072 23.755 8.12549 26.8633M24.2522 28.9867C24.192 29.0001 24.1305 29.0068 24.0688 29.0067M24.0688 29.0067C23.0637 29.1074 22.0511 29.1096 21.0455 29.0133M17.8938 5.39667C18.7388 3.88167 19.1605 3.125 19.7922 3.125C20.4238 3.125 20.8455 3.88167 21.6905 5.39667L21.9072 5.78833C22.1488 6.22 22.2688 6.435 22.4555 6.57667C22.6422 6.71833 22.8755 6.77167 23.3422 6.87667L23.7655 6.97333C25.4055 7.34333 26.2255 7.53 26.4205 8.15667C26.6155 8.78333 26.0572 9.43833 24.9388 10.745L24.6488 11.0833C24.3322 11.455 24.1738 11.64 24.1022 11.87C24.0305 12.1 24.0538 12.3483 24.1022 12.8433L24.1455 13.2933C24.3155 15.0383 24.3988 15.91 23.8888 16.2983C23.3788 16.6867 22.6105 16.3317 21.0755 15.625L20.6772 15.4417C20.2422 15.2417 20.0238 15.1417 19.7922 15.1417C19.5605 15.1417 19.3422 15.2417 18.9072 15.4417L18.5088 15.625C16.9755 16.3333 16.2055 16.6867 15.6955 16.2983C15.1855 15.91 15.2688 15.0383 15.4388 13.295L15.4822 12.8433C15.5305 12.3483 15.5538 12.1 15.4822 11.87C15.4105 11.64 15.2522 11.4533 14.9355 11.0833L14.6455 10.745C13.5288 9.43833 12.9688 8.78333 13.1638 8.15667C13.3588 7.53 14.1788 7.34333 15.8188 6.97333L16.2422 6.87667C16.7088 6.77167 16.9422 6.71833 17.1288 6.57667C17.3155 6.435 17.4355 6.22 17.6755 5.78833L17.8938 5.39667ZM32.1755 12.595C32.5988 11.8367 32.8088 11.4583 33.1255 11.4583C33.4422 11.4583 33.6522 11.8367 34.0755 12.595L34.1838 12.79C34.3038 13.0067 34.3638 13.1133 34.4572 13.185C34.5505 13.2567 34.6672 13.2817 34.9005 13.335L35.1122 13.3817C35.9322 13.5683 36.3422 13.66 36.4388 13.975C36.5355 14.29 36.2572 14.615 35.6988 15.2683L35.5538 15.4367C35.3955 15.6233 35.3155 15.7167 35.2805 15.8317C35.2455 15.9467 35.2572 16.07 35.2805 16.3183L35.3022 16.5433C35.3855 17.415 35.4288 17.8517 35.1738 18.045C34.9188 18.2383 34.5355 18.0617 33.7672 17.7083L33.5672 17.6167C33.3505 17.5167 33.2405 17.4667 33.1255 17.4667C33.0088 17.4667 32.9005 17.5167 32.6822 17.6167L32.4838 17.7083C31.7172 18.0617 31.3338 18.2383 31.0772 18.045C30.8222 17.8517 30.8638 17.415 30.9488 16.5433L30.9705 16.3183C30.9938 16.0683 31.0072 15.945 30.9705 15.8317C30.9355 15.715 30.8555 15.6233 30.6972 15.4367L30.5522 15.2683C29.9938 14.615 29.7138 14.2883 29.8122 13.975C29.9105 13.6617 30.3188 13.5683 31.1388 13.3817L31.3505 13.335C31.5838 13.2817 31.7005 13.255 31.7938 13.185C31.8872 13.1133 31.9472 13.005 32.0672 12.79L32.1755 12.595ZM5.50882 12.595C5.93382 11.8367 6.14215 11.4583 6.45882 11.4583C6.77549 11.4583 6.98549 11.8367 7.40882 12.595L7.51715 12.79C7.63715 13.0067 7.69715 13.1133 7.79049 13.185C7.88382 13.2567 8.00049 13.2817 8.23382 13.335L8.44549 13.3817C9.26549 13.5683 9.67549 13.66 9.77382 13.975C9.87049 14.2883 9.59049 14.615 9.03215 15.2683L8.88715 15.4367C8.72882 15.6233 8.64882 15.7167 8.61382 15.8317C8.57882 15.9467 8.59049 16.07 8.61382 16.3183L8.63549 16.5433C8.71882 17.415 8.76215 17.8517 8.50715 18.045C8.25215 18.2383 7.86715 18.0617 7.10049 17.7083L6.90049 17.6167C6.68382 17.5167 6.57382 17.4667 6.45882 17.4667C6.34215 17.4667 6.23382 17.5167 6.01549 17.6167L5.81715 17.7083C5.05049 18.0617 4.66715 18.2383 4.41049 18.045C4.15549 17.8517 4.19715 17.415 4.28215 16.5433L4.30382 16.3183C4.32715 16.0683 4.34049 15.945 4.30382 15.8317C4.26882 15.715 4.18882 15.6233 4.03049 15.4367L3.88549 15.2683C3.32715 14.615 3.04715 14.2883 3.14382 13.975C3.24215 13.66 3.65215 13.5683 4.47215 13.3817L4.68382 13.335C4.91715 13.2817 5.03382 13.255 5.12715 13.185C5.22049 13.1133 5.28049 13.005 5.40049 12.79L5.50882 12.595ZM5.62549 23.125C7.0062 23.125 8.12549 24.2443 8.12549 25.625V33.9583C8.12549 35.339 7.0062 36.4583 5.62549 36.4583C4.24477 36.4583 3.12549 35.339 3.12549 33.9583V25.625C3.12549 24.2443 4.24477 23.125 5.62549 23.125Z" stroke="url(#paint0_linear_4262_1807)" stroke-width="1.5" stroke-linecap="round"/>
<defs>
<linearGradient id="paint0_linear_4262_1807" x1="3.12486" y1="19.7927" x2="36.4586" y2="19.7927" gradientUnits="userSpaceOnUse">
<stop stop-color="#2CA8DC"/>
<stop offset="1" stop-color="#D0DF8A"/>
</linearGradient>
</defs>
</svg>
