<svg width="111" height="110" viewBox="0 0 111 110" fill="none" xmlns="http://www.w3.org/2000/svg">
<path d="M23.0131 92.8721H33.3714C38.0006 92.8721 42.6893 93.3579 47.1947 94.2837C55.239 95.9312 63.5145 96.1144 71.6239 94.8246C75.6022 94.1829 79.5072 93.1975 83.0456 91.4925C86.2356 89.9479 90.1451 87.78 92.7714 85.3462C95.393 82.9171 98.1247 78.9433 100.059 75.8358C101.727 73.1683 100.921 69.9004 98.2897 67.9158C96.8105 66.8425 95.0298 66.2645 93.2022 66.2645C91.3746 66.2645 89.5939 66.8425 88.1147 67.9158L79.8326 74.1721C76.6243 76.6013 73.1181 78.8333 68.9426 79.4979C68.4385 79.5774 67.9114 79.6492 67.3614 79.7133M67.3614 79.7133L66.8572 79.7683M67.3614 79.7133C68.0948 79.5146 68.7674 79.1366 69.3185 78.6133C70.0102 78.0166 70.5752 77.287 70.98 76.468C71.3847 75.6489 71.621 74.757 71.6748 73.845C71.7287 72.933 71.599 72.0194 71.2935 71.1584C70.9879 70.2975 70.5127 69.5065 69.896 68.8325C69.2987 68.1694 68.6031 67.6021 67.8335 67.1504C55.0139 59.5008 35.0626 65.3262 23.0131 73.8742M67.3614 79.7133C67.1959 79.7503 67.0268 79.7687 66.8572 79.7683M66.8572 79.7683C64.0931 80.0454 61.3084 80.0515 58.5431 79.7867M49.876 14.8408C52.1997 10.6746 53.3593 8.59375 55.0964 8.59375C56.8335 8.59375 57.9931 10.6746 60.3168 14.8408L60.9126 15.9179C61.5772 17.105 61.9072 17.6963 62.4206 18.0858C62.9339 18.4754 63.5756 18.6221 64.8589 18.9108L66.0231 19.1767C70.5331 20.1942 72.7881 20.7075 73.3243 22.4308C73.8606 24.1542 72.3251 25.9554 69.2497 29.5488L68.4522 30.4792C67.5814 31.5013 67.146 32.01 66.9489 32.6425C66.7518 33.275 66.816 33.9579 66.9489 35.3192L67.0681 36.5567C67.5356 41.3554 67.7647 43.7525 66.3622 44.8204C64.9597 45.8883 62.8468 44.9121 58.6256 42.9688L57.5301 42.4646C56.3339 41.9146 55.7335 41.6396 55.0964 41.6396C54.4593 41.6396 53.8589 41.9146 52.6626 42.4646L51.5672 42.9688C47.3506 44.9167 45.2331 45.8883 43.8306 44.8204C42.4281 43.7525 42.6572 41.3554 43.1247 36.5613L43.2439 35.3192C43.3768 33.9579 43.441 33.275 43.2439 32.6425C43.0468 32.01 42.6114 31.4967 41.7406 30.4792L40.9431 29.5488C37.8722 25.9554 36.3322 24.1542 36.8685 22.4308C37.4047 20.7075 39.6597 20.1942 44.1697 19.1767L45.3339 18.9108C46.6172 18.6221 47.2589 18.4754 47.7722 18.0858C48.2856 17.6963 48.6156 17.105 49.2756 15.9179L49.876 14.8408ZM89.1506 34.6363C90.3147 32.5508 90.8922 31.5104 91.7631 31.5104C92.6339 31.5104 93.2114 32.5508 94.3756 34.6363L94.6735 35.1725C95.0035 35.7683 95.1685 36.0617 95.4251 36.2588C95.6818 36.4558 96.0026 36.5246 96.6443 36.6713L97.2264 36.7996C99.4814 37.3129 100.609 37.565 100.875 38.4313C101.141 39.2975 100.375 40.1913 98.8397 41.9879L98.441 42.4508C98.0056 42.9642 97.7855 43.2208 97.6893 43.5371C97.593 43.8533 97.6251 44.1925 97.6893 44.8754L97.7489 45.4942C97.978 47.8913 98.0972 49.0921 97.396 49.6237C96.6947 50.1554 95.6406 49.6696 93.5276 48.6979L92.9776 48.4458C92.3818 48.1708 92.0793 48.0333 91.7631 48.0333C91.4422 48.0333 91.1443 48.1708 90.5439 48.4458L89.9985 48.6979C87.8901 49.6696 86.836 50.1554 86.1301 49.6237C85.4289 49.0921 85.5435 47.8913 85.7772 45.4942L85.8368 44.8754C85.901 44.1879 85.9376 43.8487 85.8368 43.5371C85.7406 43.2162 85.5205 42.9642 85.0851 42.4508L84.6864 41.9879C83.151 40.1913 82.381 39.2929 82.6514 38.4313C82.9218 37.5696 84.0447 37.3129 86.2997 36.7996L86.8818 36.6713C87.5235 36.5246 87.8443 36.4513 88.101 36.2588C88.3576 36.0617 88.5226 35.7637 88.8526 35.1725L89.1506 34.6363ZM15.8172 34.6363C16.986 32.5508 17.5589 31.5104 18.4297 31.5104C19.3006 31.5104 19.8781 32.5508 21.0422 34.6363L21.3401 35.1725C21.6701 35.7683 21.8351 36.0617 22.0918 36.2588C22.3485 36.4558 22.6693 36.5246 23.311 36.6713L23.8931 36.7996C26.1481 37.3129 27.2756 37.565 27.546 38.4313C27.8118 39.2929 27.0418 40.1913 25.5064 41.9879L25.1076 42.4508C24.6722 42.9642 24.4522 43.2208 24.356 43.5371C24.2597 43.8533 24.2918 44.1925 24.356 44.8754L24.4156 45.4942C24.6447 47.8913 24.7639 49.0921 24.0626 49.6237C23.3614 50.1554 22.3026 49.6696 20.1943 48.6979L19.6443 48.4458C19.0485 48.1708 18.746 48.0333 18.4297 48.0333C18.1089 48.0333 17.811 48.1708 17.2106 48.4458L16.6651 48.6979C14.5568 49.6696 13.5026 50.1554 12.7968 49.6237C12.0956 49.0921 12.2101 47.8913 12.4439 45.4942L12.5035 44.8754C12.5676 44.1879 12.6043 43.8487 12.5035 43.5371C12.4072 43.2162 12.1872 42.9642 11.7518 42.4508L11.3531 41.9879C9.81764 40.1913 9.04764 39.2929 9.31347 38.4313C9.58389 37.565 10.7114 37.3129 12.9664 36.7996L13.5485 36.6713C14.1901 36.5246 14.511 36.4513 14.7676 36.2588C15.0243 36.0617 15.1893 35.7637 15.5193 35.1725L15.8172 34.6363ZM16.1381 63.5938C19.935 63.5938 23.0131 66.6718 23.0131 70.4688V93.3854C23.0131 97.1824 19.935 100.26 16.1381 100.26C12.3411 100.26 9.26306 97.1824 9.26306 93.3854V70.4688C9.26306 66.6718 12.3411 63.5938 16.1381 63.5938Z" stroke="url(#paint0_linear_4310_2705)" stroke-width="4.125" stroke-linecap="round"/>
<defs>
<linearGradient id="paint0_linear_4310_2705" x1="9.26133" y1="54.43" x2="100.929" y2="54.43" gradientUnits="userSpaceOnUse">
<stop stop-color="#2E3F75"/>
<stop offset="1" stop-color="#165D31"/>
</linearGradient>
</defs>
</svg>
