<svg width="1280" height="210" viewBox="0 0 1280 210" fill="none" xmlns="http://www.w3.org/2000/svg">
<path d="M0 205.962V4.03846H47.0073L130.64 141.346H105.838L187.164 4.03846H234.171L234.748 205.962H182.261L181.685 83.9423H190.625L129.775 186.058H104.397L41.8163 83.9423H52.7751V205.962H0Z" fill="#2E3F75" fill-opacity="0.06"/>
<path d="M275.152 205.962V4.03846H332.253V205.962H275.152Z" fill="#2E3F75" fill-opacity="0.06"/>
<path d="M443.82 210C427.286 210 411.329 207.981 395.948 203.942C380.76 199.712 368.359 194.327 358.746 187.788L377.491 145.673C386.527 151.442 396.909 156.25 408.637 160.096C420.557 163.75 432.381 165.577 444.109 165.577C451.991 165.577 458.336 164.904 463.142 163.558C467.949 162.019 471.41 160.096 473.524 157.788C475.832 155.288 476.985 152.404 476.985 149.135C476.985 144.519 474.87 140.865 470.641 138.173C466.411 135.481 460.932 133.269 454.202 131.538C447.473 129.808 439.975 128.077 431.708 126.346C423.633 124.615 415.462 122.404 407.195 119.712C399.12 117.019 391.718 113.558 384.989 109.327C378.26 104.904 372.781 99.2308 368.551 92.3077C364.321 85.1923 362.207 76.25 362.207 65.4808C362.207 53.3654 365.475 42.4039 372.012 32.5962C378.741 22.7885 388.738 14.9039 402.004 8.94231C415.27 2.98077 431.804 0 451.607 0C464.873 0 477.85 1.53846 490.539 4.61539C503.421 7.50001 514.86 11.8269 524.858 17.5961L507.266 60C497.653 54.8077 488.136 50.9615 478.715 48.4615C469.295 45.7692 460.163 44.4231 451.319 44.4231C443.436 44.4231 437.091 45.2885 432.285 47.0192C427.479 48.5577 424.018 50.6731 421.903 53.3654C419.788 56.0577 418.731 59.1346 418.731 62.5962C418.731 67.0192 420.749 70.5769 424.787 73.2692C429.017 75.7692 434.496 77.8846 441.225 79.6154C448.146 81.1538 455.644 82.7885 463.719 84.5192C471.986 86.25 480.157 88.4615 488.232 91.1538C496.499 93.6538 503.998 97.1154 510.727 101.538C517.456 105.769 522.839 111.442 526.876 118.558C531.106 125.481 533.221 134.231 533.221 144.808C533.221 156.538 529.856 167.404 523.127 177.404C516.59 187.212 506.689 195.096 493.423 201.058C480.35 207.019 463.815 210 443.82 210Z" fill="#2E3F75" fill-opacity="0.06"/>
<path d="M630.541 210C614.006 210 598.049 207.981 582.668 203.942C567.48 199.712 555.079 194.327 545.466 187.788L564.211 145.673C573.247 151.442 583.629 156.25 595.357 160.096C607.277 163.75 619.101 165.577 630.829 165.577C638.712 165.577 645.056 164.904 649.863 163.558C654.669 162.019 658.13 160.096 660.245 157.788C662.552 155.288 663.705 152.404 663.705 149.135C663.705 144.519 661.59 140.865 657.361 138.173C653.131 135.481 647.652 133.269 640.923 131.538C634.194 129.808 626.695 128.077 618.428 126.346C610.353 124.615 602.182 122.404 593.915 119.712C585.84 117.019 578.438 113.558 571.709 109.327C564.98 104.904 559.501 99.2308 555.271 92.3077C551.042 85.1923 548.927 76.25 548.927 65.4808C548.927 53.3654 552.195 42.4039 558.732 32.5962C565.461 22.7885 575.458 14.9039 588.724 8.94231C601.99 2.98077 618.524 0 638.327 0C651.593 0 664.57 1.53846 677.26 4.61539C690.141 7.50001 701.58 11.8269 711.578 17.5961L693.986 60C684.373 54.8077 674.856 50.9615 665.436 48.4615C656.015 45.7692 646.883 44.4231 638.039 44.4231C630.156 44.4231 623.812 45.2885 619.005 47.0192C614.199 48.5577 610.738 50.6731 608.623 53.3654C606.508 56.0577 605.451 59.1346 605.451 62.5962C605.451 67.0192 607.47 70.5769 611.507 73.2692C615.737 75.7692 621.216 77.8846 627.945 79.6154C634.866 81.1538 642.365 82.7885 650.439 84.5192C658.707 86.25 666.878 88.4615 674.952 91.1538C683.22 93.6538 690.718 97.1154 697.447 101.538C704.176 105.769 709.559 111.442 713.596 118.558C717.826 125.481 719.941 134.231 719.941 144.808C719.941 156.538 716.576 167.404 709.847 177.404C703.311 187.212 693.409 195.096 680.143 201.058C667.07 207.019 650.536 210 630.541 210Z" fill="#2E3F75" fill-opacity="0.06"/>
<path d="M746.317 205.962V4.03846H803.418V205.962H746.317Z" fill="#2E3F75" fill-opacity="0.06"/>
<path d="M945.844 210C929.694 210 914.794 207.404 901.143 202.212C887.493 197.019 875.573 189.712 865.383 180.288C855.386 170.673 847.599 159.519 842.024 146.827C836.448 134.135 833.661 120.192 833.661 105C833.661 89.8077 836.448 75.8654 842.024 63.1731C847.599 50.4808 855.386 39.4231 865.383 30C875.573 20.3846 887.493 12.9808 901.143 7.78846C914.794 2.59615 929.694 0 945.844 0C962.186 0 977.086 2.59615 990.544 7.78846C1004.19 12.9808 1016.02 20.3846 1026.02 30C1036.01 39.4231 1043.8 50.4808 1049.38 63.1731C1055.14 75.8654 1058.03 89.8077 1058.03 105C1058.03 120.192 1055.14 134.231 1049.38 147.115C1043.8 159.808 1036.01 170.865 1026.02 180.288C1016.02 189.712 1004.19 197.019 990.544 202.212C977.086 207.404 962.186 210 945.844 210ZM945.844 162.692C953.534 162.692 960.648 161.346 967.184 158.654C973.913 155.962 979.681 152.115 984.488 147.115C989.486 141.923 993.332 135.769 996.023 128.654C998.907 121.538 1000.35 113.654 1000.35 105C1000.35 96.1538 998.907 88.2692 996.023 81.3462C993.332 74.2308 989.486 68.1731 984.488 63.1731C979.681 57.9808 973.913 54.0385 967.184 51.3462C960.648 48.6539 953.534 47.3077 945.844 47.3077C938.153 47.3077 930.944 48.6539 924.214 51.3462C917.678 54.0385 911.91 57.9808 906.911 63.1731C902.105 68.1731 898.26 74.2308 895.376 81.3462C892.684 88.2692 891.338 96.1538 891.338 105C891.338 113.654 892.684 121.538 895.376 128.654C898.26 135.769 902.105 141.923 906.911 147.115C911.91 152.115 917.678 155.962 924.214 158.654C930.944 161.346 938.153 162.692 945.844 162.692Z" fill="#2E3F75" fill-opacity="0.06"/>
<path d="M1087.93 205.962V4.03846H1134.94L1246.26 138.462H1224.05V4.03846H1280V205.962H1232.99L1121.67 71.5385H1143.88V205.962H1087.93Z" fill="#2E3F75" fill-opacity="0.06"/>
</svg>
