<svg width="42" height="42" viewBox="0 0 42 42" fill="none" xmlns="http://www.w3.org/2000/svg">
<path d="M21.75 33.375C21.75 32.9608 21.4142 32.625 21 32.625C20.5858 32.625 20.25 32.9608 20.25 33.375H21.75ZM20.25 40.375C20.25 40.7892 20.5858 41.125 21 41.125C21.4142 41.125 21.75 40.7892 21.75 40.375H20.25ZM31.7501 20.25C31.3359 20.25 31.0001 20.5858 31.0001 21C31.0001 21.4142 31.3359 21.75 31.7501 21.75V20.25ZM39.7501 21.75C40.1643 21.75 40.5001 21.4142 40.5001 21C40.5001 20.5858 40.1643 20.25 39.7501 20.25V21.75ZM1.625 20.25C1.21079 20.25 0.875 20.5858 0.875 21C0.875 21.4142 1.21079 21.75 1.625 21.75V20.25ZM8.625 21.75C9.03921 21.75 9.375 21.4142 9.375 21C9.375 20.5858 9.03921 20.25 8.625 20.25V21.75ZM20.25 8.625C20.25 9.03921 20.5858 9.375 21 9.375C21.4142 9.375 21.75 9.03921 21.75 8.625H20.25ZM21.75 1.625C21.75 1.21079 21.4142 0.875 21 0.875C20.5858 0.875 20.25 1.21079 20.25 1.625H21.75ZM40.25 21C40.25 31.6315 31.6315 40.25 21 40.25V41.75C32.4599 41.75 41.75 32.4599 41.75 21H40.25ZM21 40.25C10.3685 40.25 1.75 31.6315 1.75 21H0.25C0.25 32.4599 9.54009 41.75 21 41.75V40.25ZM1.75 21C1.75 10.3685 10.3685 1.75 21 1.75V0.25C9.54009 0.25 0.25 9.54009 0.25 21H1.75ZM21 1.75C31.6315 1.75 40.25 10.3685 40.25 21H41.75C41.75 9.54009 32.4599 0.25 21 0.25V1.75ZM20.25 34V41H21.75V34H20.25ZM20.25 33.375V40.375H21.75V33.375H20.25ZM33 21.75H41V20.25H33V21.75ZM31.7501 21.75H39.7501V20.25H31.7501V21.75ZM1 21.75H8V20.25H1V21.75ZM1.625 21.75H8.625V20.25H1.625V21.75ZM21.75 8V1H20.25V8H21.75ZM21.75 8.625V1.625H20.25V8.625H21.75Z" fill="url(#paint0_linear_4262_1852)"/>
<rect x="11" y="11" width="20" height="20" rx="10" stroke="url(#paint1_linear_4262_1852)" stroke-width="1.5"/>
<path d="M24.0387 17.5193C23.406 16.8867 22.2927 16.4473 21.2693 16.4193M21.2693 16.4193C20.052 16.3867 18.962 16.938 18.962 18.442C18.962 21.2113 24.0387 19.8267 24.0387 22.596C24.0387 24.176 22.6873 24.8547 21.2693 24.8033M21.2693 16.4193V14.75M18.5 23.5193C19.0953 24.3127 20.2013 24.7647 21.2693 24.8033M21.2693 24.8033V26.75" stroke="url(#paint2_linear_4262_1852)" stroke-width="1.5" stroke-linecap="round" stroke-linejoin="round"/>
<path d="M31.3429 9.91449L27.7935 13.4638C27.0056 12.6179 25.6202 12.3854 24.5093 13.0789C23.1541 13.925 22.3819 15.9844 23.0584 19.4542L23.1228 19.7848L23.4534 19.8493C26.9229 20.5262 28.9822 19.7541 29.8284 18.3987C30.522 17.2879 30.2897 15.9022 29.4438 15.1142L32.9932 11.5648L36.2825 11.5657L36.2827 11.5657C36.436 11.5657 36.5879 11.5355 36.7296 11.4768C36.8713 11.4181 37 11.3321 37.1084 11.2237C37.2169 11.1152 37.3029 10.9865 37.3616 10.8448C37.4203 10.7031 37.4505 10.5513 37.4505 10.3979L36.9505 10.3979L37.4505 10.3979C37.4505 10.2445 37.4203 10.0927 37.3616 9.95101C37.3212 9.85339 37.2677 9.76192 37.203 9.679L38.169 9.67926L38.1691 9.67926C38.3225 9.67926 38.4743 9.64905 38.616 9.59036C38.7577 9.53168 38.8865 9.44566 38.9949 9.33721C39.1033 9.22877 39.1894 9.10004 39.248 8.95835L38.7911 8.76908L39.248 8.95835C39.3067 8.81667 39.3369 8.66481 39.3369 8.51145L38.8369 8.51145L39.3369 8.51145C39.3369 8.35809 39.3067 8.20624 39.248 8.06455C39.2076 7.96694 39.1542 7.87547 39.0894 7.79254L40.0554 7.7928L40.0556 7.7928C40.2089 7.7928 40.3608 7.7626 40.5025 7.70391C40.6442 7.64522 40.7729 7.5592 40.8813 7.45076C40.9898 7.34232 41.0758 7.21358 41.1345 7.0719C41.1932 6.93021 41.2234 6.77836 41.2234 6.625C41.2234 6.47164 41.1932 6.31979 41.1345 6.1781C41.0758 6.03642 40.9898 5.90768 40.8813 5.79924C40.7729 5.6908 40.6442 5.60478 40.5025 5.54609C40.3608 5.4874 40.2089 5.4572 40.0556 5.4572L40.0554 5.4572L37.4497 5.45799L37.4505 2.85225L37.4505 2.85209C37.4505 2.54237 37.3274 2.24534 37.1084 2.02633C36.8894 1.80733 36.5924 1.68429 36.2827 1.68429C35.973 1.68429 35.6759 1.80733 35.4569 2.02633C35.2379 2.24534 35.1149 2.54237 35.1149 2.85209L35.1149 2.85223L35.1151 3.81825C34.9109 3.6587 34.6581 3.57074 34.3962 3.57074C34.0865 3.57074 33.7895 3.69378 33.5705 3.91279C33.3515 4.13179 33.2284 4.42883 33.2284 4.73855V4.73868L33.2287 5.7047C33.0244 5.54515 32.7716 5.4572 32.5098 5.4572C32.2001 5.4572 31.903 5.58023 31.684 5.79924C31.465 6.01824 31.342 6.31528 31.342 6.625V6.62513L31.3429 9.91449Z" fill="url(#paint3_linear_4262_1852)" stroke="#12192F"/>
<defs>
<linearGradient id="paint0_linear_4262_1852" x1="0.999829" y1="21.0013" x2="41.0001" y2="21.0013" gradientUnits="userSpaceOnUse">
<stop stop-color="#2CA8DC"/>
<stop offset="1" stop-color="#D0DF8A"/>
</linearGradient>
<linearGradient id="paint1_linear_4262_1852" x1="10.9999" y1="21.0006" x2="31" y2="21.0006" gradientUnits="userSpaceOnUse">
<stop stop-color="#2CA8DC"/>
<stop offset="1" stop-color="#D0DF8A"/>
</linearGradient>
<linearGradient id="paint2_linear_4262_1852" x1="18.5" y1="20.7504" x2="24.0387" y2="20.7504" gradientUnits="userSpaceOnUse">
<stop stop-color="#2CA8DC"/>
<stop offset="1" stop-color="#D0DF8A"/>
</linearGradient>
<linearGradient id="paint3_linear_4262_1852" x1="38.6413" y1="4.26612" x2="23.549" y2="19.3584" gradientUnits="userSpaceOnUse">
<stop stop-color="#2CA8DC"/>
<stop offset="1" stop-color="#D0DF8A"/>
</linearGradient>
</defs>
</svg>
