<svg width="116" height="116" viewBox="0 0 116 116" fill="none" xmlns="http://www.w3.org/2000/svg">
<path d="M60.0625 92.0313C60.0625 90.8923 59.1391 89.9688 58 89.9688C56.8609 89.9688 55.9375 90.8923 55.9375 92.0313H60.0625ZM55.9375 111.281C55.9375 112.42 56.8609 113.344 58 113.344C59.1391 113.344 60.0625 112.42 60.0625 111.281H55.9375ZM87.5628 55.9375C86.4238 55.9375 85.5003 56.8609 85.5003 58C85.5003 59.1391 86.4238 60.0625 87.5628 60.0625V55.9375ZM109.563 60.0625C110.702 60.0625 111.625 59.1391 111.625 58C111.625 56.8609 110.702 55.9375 109.563 55.9375V60.0625ZM4.71875 55.9375C3.57966 55.9375 2.65625 56.8609 2.65625 58C2.65625 59.1391 3.57966 60.0625 4.71875 60.0625V55.9375ZM23.9688 60.0625C25.1078 60.0625 26.0312 59.1391 26.0312 58C26.0312 56.8609 25.1078 55.9375 23.9688 55.9375V60.0625ZM55.9375 23.9688C55.9375 25.1078 56.8609 26.0312 58 26.0312C59.1391 26.0312 60.0625 25.1078 60.0625 23.9688H55.9375ZM60.0625 4.71875C60.0625 3.57966 59.1391 2.65625 58 2.65625C56.8609 2.65625 55.9375 3.57966 55.9375 4.71875H60.0625ZM110.938 58C110.938 87.2366 87.2366 110.938 58 110.938V115.062C89.5148 115.062 115.062 89.5148 115.062 58H110.938ZM58 110.938C28.7634 110.938 5.0625 87.2366 5.0625 58H0.9375C0.9375 89.5148 26.4853 115.062 58 115.062V110.938ZM5.0625 58C5.0625 28.7634 28.7634 5.0625 58 5.0625V0.9375C26.4853 0.9375 0.9375 26.4853 0.9375 58H5.0625ZM58 5.0625C87.2366 5.0625 110.938 28.7634 110.938 58H115.062C115.062 26.4853 89.5148 0.9375 58 0.9375V5.0625ZM55.9375 93.75V113H60.0625V93.75H55.9375ZM55.9375 92.0313V111.281H60.0625V92.0313H55.9375ZM91 60.0625H113V55.9375H91V60.0625ZM87.5628 60.0625H109.563V55.9375H87.5628V60.0625ZM3 60.0625H22.25V55.9375H3V60.0625ZM4.71875 60.0625H23.9688V55.9375H4.71875V60.0625ZM60.0625 22.25V3H55.9375V22.25H60.0625ZM60.0625 23.9688V4.71875H55.9375V23.9688H60.0625Z" fill="url(#paint0_linear_4310_2136)"/>
<rect x="30.5" y="30.5" width="55" height="55" rx="27.5" stroke="url(#paint1_linear_4310_2136)" stroke-width="4.125"/>
<path d="M66.3563 48.4282C64.6165 46.6883 61.5548 45.4802 58.7407 45.4032M58.7407 45.4032C55.393 45.3133 52.3955 46.8295 52.3955 50.9655C52.3955 58.5812 66.3563 54.7733 66.3563 62.389C66.3563 66.734 62.6402 68.6003 58.7407 68.4592M58.7407 45.4032V40.8125M51.125 64.9282C52.7622 67.1098 55.8037 68.3528 58.7407 68.4592M58.7407 68.4592V73.8125" stroke="url(#paint2_linear_4310_2136)" stroke-width="4.125" stroke-linecap="round" stroke-linejoin="round"/>
<path d="M76.6822 37.2755L86.4429 27.5148L86.4404 18.4691L86.4404 18.4688C86.4404 17.617 86.7788 16.8002 87.381 16.1979C87.9833 15.5956 88.8001 15.2573 89.6519 15.2573C90.372 15.2573 91.0672 15.4992 91.6289 15.9379L91.6282 13.2814V13.281C91.6282 12.4293 91.9665 11.6124 92.5688 11.0102C93.171 10.4079 93.9879 10.0695 94.8396 10.0695C95.5598 10.0695 96.255 10.3114 96.8166 10.7502L96.8159 8.09363V8.09326C96.8159 7.24153 97.1543 6.42468 97.7565 5.82242C98.3588 5.22015 99.1756 4.8818 100.027 4.8818C100.879 4.8818 101.696 5.22015 102.298 5.82242C102.9 6.42468 103.239 7.24153 103.239 8.09326L103.239 8.09368L103.237 15.2595L110.402 15.2573L110.403 15.2573C110.825 15.2573 111.242 15.3404 111.632 15.5017C112.021 15.6631 112.375 15.8997 112.674 16.1979C112.972 16.4961 113.208 16.8501 113.37 17.2398C113.531 17.6294 113.614 18.047 113.614 18.4687L76.6822 37.2755ZM76.6822 37.2755C74.5153 34.9493 70.7054 34.3098 67.6507 36.2169C63.9236 38.5438 61.8003 44.207 63.6605 53.7491L63.8377 54.6582L64.7468 54.8356C74.2878 56.6972 79.951 54.5738 82.2782 50.8464C84.1855 47.7916 83.5468 43.9811 81.2206 41.814L90.9813 32.0533L100.027 32.0557L100.027 32.0557C100.449 32.0557 100.867 31.9726 101.256 31.8112L100.731 30.5426L101.256 31.8112C101.646 31.6499 102 31.4133 102.298 31.1151C102.596 30.8169 102.833 30.4628 102.994 30.0732C103.156 29.6836 103.239 29.266 103.239 28.8442C103.239 28.4225 103.156 28.0049 102.994 27.6153C102.883 27.3468 102.736 27.0953 102.558 26.8672L105.215 26.868L105.215 26.868C105.637 26.868 106.054 26.7849 106.444 26.6235C106.834 26.4621 107.188 26.2256 107.486 25.9273C107.784 25.6291 108.021 25.2751 108.182 24.8855C108.344 24.4958 108.427 24.0782 108.427 23.6565C108.427 23.2348 108.344 22.8172 108.182 22.4275C108.071 22.1591 107.924 21.9075 107.746 21.6795L110.402 21.6802L110.403 21.6802C110.825 21.6802 111.242 21.5971 111.632 21.4358C112.021 21.2744 112.375 21.0378 112.674 20.7396C112.972 20.4414 113.208 20.0874 113.37 19.6977C113.531 19.3081 113.614 18.8905 113.614 18.4687L76.6822 37.2755Z" fill="url(#paint3_linear_4310_2136)" stroke="white" stroke-width="2.75"/>
<defs>
<linearGradient id="paint0_linear_4310_2136" x1="2.99953" y1="58.0035" x2="113" y2="58.0035" gradientUnits="userSpaceOnUse">
<stop stop-color="#2E3F75"/>
<stop offset="1" stop-color="#165D31"/>
</linearGradient>
<linearGradient id="paint1_linear_4310_2136" x1="30.4998" y1="58.0018" x2="85.5001" y2="58.0018" gradientUnits="userSpaceOnUse">
<stop stop-color="#2E3F75"/>
<stop offset="1" stop-color="#165D31"/>
</linearGradient>
<linearGradient id="paint2_linear_4310_2136" x1="51.1249" y1="57.3136" x2="66.3564" y2="57.3136" gradientUnits="userSpaceOnUse">
<stop stop-color="#2E3F75"/>
<stop offset="1" stop-color="#165D31"/>
</linearGradient>
<linearGradient id="paint3_linear_4310_2136" x1="106.513" y1="11.9818" x2="65.0096" y2="53.4857" gradientUnits="userSpaceOnUse">
<stop stop-color="#2E3F75"/>
<stop offset="1" stop-color="#165D31"/>
</linearGradient>
</defs>
</svg>
