<svg width="48" height="48" viewBox="0 0 48 48" fill="none" xmlns="http://www.w3.org/2000/svg">
<path d="M27.9766 22.1719C28.5703 22.4062 29.1484 22.6641 29.7109 22.9453C30.2734 23.2266 30.8203 23.5469 31.3516 23.9062C31.0078 24.2812 30.6953 24.6719 30.4141 25.0781C30.1328 25.4844 29.875 25.9219 29.6406 26.3906C28.4375 25.6094 27.1562 25.0156 25.7969 24.6094C24.4375 24.2031 23.0391 24 21.6016 24C20.2266 24 18.8984 24.1797 17.6172 24.5391C16.3359 24.8984 15.1406 25.3984 14.0312 26.0391C12.9219 26.6797 11.9141 27.4609 11.0078 28.3828C10.1016 29.3047 9.32031 30.3203 8.66406 31.4297C8.00781 32.5391 7.5 33.7344 7.14062 35.0156C6.78125 36.2969 6.60156 37.625 6.60156 39H3.60156C3.60156 37.125 3.875 35.3203 4.42188 33.5859C4.96875 31.8516 5.75781 30.25 6.78906 28.7812C7.82031 27.3125 9.03906 26.0078 10.4453 24.8672C11.8516 23.7266 13.4453 22.8281 15.2266 22.1719C13.4609 21.0156 12.0859 19.5625 11.1016 17.8125C10.1172 16.0625 9.61719 14.125 9.60156 12C9.60156 10.3438 9.91406 8.78906 10.5391 7.33594C11.1641 5.88281 12.0156 4.60938 13.0938 3.51562C14.1719 2.42188 15.4453 1.5625 16.9141 0.9375C18.3828 0.3125 19.9453 0 21.6016 0C23.2578 0 24.8125 0.3125 26.2656 0.9375C27.7188 1.5625 28.9922 2.41406 30.0859 3.49219C31.1797 4.57031 32.0391 5.84375 32.6641 7.3125C33.2891 8.78125 33.6016 10.3438 33.6016 12C33.6016 13.0312 33.4766 14.0391 33.2266 15.0234C32.9766 16.0078 32.6016 16.9375 32.1016 17.8125C31.6016 18.6875 31.0156 19.4922 30.3438 20.2266C29.6719 20.9609 28.8828 21.6094 27.9766 22.1719ZM12.6016 12C12.6016 13.25 12.8359 14.4141 13.3047 15.4922C13.7734 16.5703 14.4141 17.5234 15.2266 18.3516C16.0391 19.1797 16.9922 19.8281 18.0859 20.2969C19.1797 20.7656 20.3516 21 21.6016 21C22.8359 21 24 20.7656 25.0938 20.2969C26.1875 19.8281 27.1406 19.1875 27.9531 18.375C28.7656 17.5625 29.4141 16.6094 29.8984 15.5156C30.3828 14.4219 30.6172 13.25 30.6016 12C30.6016 10.7656 30.3672 9.60156 29.8984 8.50781C29.4297 7.41406 28.7891 6.46094 27.9766 5.64844C27.1641 4.83594 26.2031 4.1875 25.0938 3.70312C23.9844 3.21875 22.8203 2.98438 21.6016 3C20.3516 3 19.1875 3.23438 18.1094 3.70312C17.0312 4.17188 16.0781 4.8125 15.25 5.625C14.4219 6.4375 13.7734 7.39844 13.3047 8.50781C12.8359 9.61719 12.6016 10.7812 12.6016 12ZM47.1016 31.5C47.1016 32.3125 46.9766 33.1016 46.7266 33.8672C46.4766 34.6328 46.1016 35.3438 45.6016 36V48L39.6016 45L33.6016 48V36C33.1172 35.3438 32.75 34.6328 32.5 33.8672C32.25 33.1016 32.1172 32.3125 32.1016 31.5C32.1016 30.4688 32.2969 29.5 32.6875 28.5938C33.0781 27.6875 33.6094 26.8984 34.2812 26.2266C34.9531 25.5547 35.75 25.0156 36.6719 24.6094C37.5938 24.2031 38.5703 24 39.6016 24C40.6328 24 41.6016 24.1953 42.5078 24.5859C43.4141 24.9766 44.2031 25.5156 44.875 26.2031C45.5469 26.8906 46.0859 27.6875 46.4922 28.5938C46.8984 29.5 47.1016 30.4688 47.1016 31.5ZM39.6016 27C38.9766 27 38.3906 27.1172 37.8438 27.3516C37.2969 27.5859 36.8203 27.9062 36.4141 28.3125C36.0078 28.7188 35.6875 29.1953 35.4531 29.7422C35.2188 30.2891 35.1016 30.875 35.1016 31.5C35.1016 32.125 35.2188 32.7109 35.4531 33.2578C35.6875 33.8047 36.0078 34.2812 36.4141 34.6875C36.8203 35.0938 37.2969 35.4141 37.8438 35.6484C38.3906 35.8828 38.9766 36 39.6016 36C40.2266 36 40.8125 35.8828 41.3594 35.6484C41.9062 35.4141 42.3828 35.0938 42.7891 34.6875C43.1953 34.2812 43.5156 33.8047 43.75 33.2578C43.9844 32.7109 44.1016 32.125 44.1016 31.5C44.1016 30.875 43.9844 30.2891 43.75 29.7422C43.5156 29.1953 43.1953 28.7188 42.7891 28.3125C42.3828 27.9062 41.9062 27.5859 41.3594 27.3516C40.8125 27.1172 40.2266 27 39.6016 27ZM42.6016 43.1484V38.3672C41.6641 38.7891 40.6641 39 39.6016 39C38.5391 39 37.5391 38.7891 36.6016 38.3672V43.1484C37.1016 42.8984 37.6016 42.6562 38.1016 42.4219C38.6016 42.1875 39.1016 41.9297 39.6016 41.6484C40.1016 41.9141 40.6016 42.1641 41.1016 42.3984C41.6016 42.6328 42.1016 42.8828 42.6016 43.1484Z" fill="url(#paint0_linear_4262_2159)"/>
<defs>
<linearGradient id="paint0_linear_4262_2159" x1="3.60138" y1="24.0015" x2="47.1016" y2="24.0015" gradientUnits="userSpaceOnUse">
<stop stop-color="#2E3F75"/>
<stop offset="1" stop-color="#165D31"/>
</linearGradient>
</defs>
</svg>
