<svg width="128" height="128" viewBox="0 0 128 128" fill="none" xmlns="http://www.w3.org/2000/svg">
<path d="M73.1002 114L92.7926 42.7059L99.3566 69.4412C90.8034 69.4412 83.8415 66.9657 78.4709 62.0147C73.1002 57.0637 70.4149 50.2314 70.4149 41.5177C70.4149 33.002 73.1997 26.0706 78.7692 20.7235C84.1399 15.5745 90.9029 13 99.0583 13C107.413 13 114.375 15.5745 119.944 20.7235C125.315 26.0706 128 33.002 128 41.5177C128 44.0922 127.801 46.5677 127.403 48.9441C127.005 51.5186 126.21 54.4892 125.016 57.8559C123.823 61.2226 122.132 65.6784 119.944 71.2235L102.639 114L73.1002 114ZM2.68533 114L22.3776 42.7059L28.9417 69.4412C20.3885 69.4412 13.4266 66.9657 8.05597 62.0147C2.68534 57.0637 2.08586e-05 50.2314 2.16237e-05 41.5177C2.23715e-05 33.002 2.78479 26.0706 8.35433 20.7235C13.725 15.5745 20.488 13 28.6434 13C36.9977 13 43.9596 15.5745 49.5292 20.7235C54.8998 26.0706 57.5851 33.002 57.5851 41.5177C57.5851 44.0922 57.3862 46.5677 56.9884 48.9441C56.5905 51.5186 55.7949 54.4892 54.6014 57.8559C53.4079 61.2226 51.7172 65.6784 49.5291 71.2235L32.2238 114L2.68533 114Z" fill="url(#paint0_linear_4262_2232)"/>
<defs>
<linearGradient id="paint0_linear_4262_2232" x1="128.001" y1="63.4968" x2="-0.00014128" y2="63.4968" gradientUnits="userSpaceOnUse">
<stop stop-color="#2E3F75"/>
<stop offset="1" stop-color="#165D31"/>
</linearGradient>
</defs>
</svg>
