<svg width="49" height="48" viewBox="0 0 49 48" fill="none" xmlns="http://www.w3.org/2000/svg">
<path d="M20.8331 20.8223C19.987 21.664 19.5094 22.8069 19.505 24.0003C19.505 25.1954 19.9797 26.3416 20.8248 27.1866C21.6698 28.0317 22.816 28.5065 24.0111 28.5065C25.2045 28.502 26.3474 28.0244 27.1891 27.1783M24.0111 10.482C21.3374 10.482 18.7238 11.2748 16.5007 12.7602C14.2776 14.2456 12.5449 16.3569 11.5217 18.8271C10.4986 21.2972 10.2309 24.0153 10.7525 26.6376C11.2741 29.2599 12.5616 31.6687 14.4522 33.5593C16.3427 35.4498 18.7515 36.7373 21.3738 37.2589C23.9961 37.7806 26.7142 37.5128 29.1843 36.4897C31.6545 35.4665 33.7658 33.7338 35.2512 31.5107C36.7366 29.2876 37.5295 26.674 37.5295 24.0003M24.0111 1.46973C19.555 1.46973 15.1989 2.79112 11.4938 5.26682C7.78861 7.74251 4.90081 11.2613 3.19552 15.3782C1.49023 19.4952 1.04405 24.0253 1.9134 28.3958C2.78275 32.7663 4.92858 36.7809 8.07954 39.9319C11.2305 43.0828 15.2451 45.2287 19.6156 46.098C23.9861 46.9674 28.5162 46.5212 32.6332 44.8159C36.7501 43.1106 40.2689 40.2228 42.7446 36.5177C45.2203 32.8125 46.5417 28.4565 46.5417 24.0003M32.3711 15.6427L26.2641 21.7473M45.2136 9.4005L37.5295 10.482L38.6109 2.79785C38.6189 2.70859 38.6 2.619 38.5568 2.54052C38.5135 2.46204 38.4479 2.39822 38.3682 2.35724C38.2885 2.31625 38.1984 2.29995 38.1094 2.31042C38.0204 2.32089 37.9366 2.35765 37.8686 2.41601L32.7743 7.48421C32.2511 8.01124 31.8662 8.65942 31.6539 9.3711C31.4417 10.0828 31.4086 10.8359 31.5577 11.5634L32.3688 15.6427L36.448 16.4514C37.1755 16.6005 37.9286 16.5674 38.6403 16.3551C39.352 16.1429 40.0002 15.758 40.5272 15.2347L45.593 10.1428C45.6516 10.0747 45.6885 9.99059 45.6989 9.90134C45.7093 9.8121 45.6928 9.72178 45.6515 9.64198C45.6102 9.56218 45.546 9.49656 45.4671 9.45353C45.3882 9.4105 45.2983 9.39203 45.2088 9.4005" stroke="url(#paint0_linear_4262_2219)" stroke-width="2.5" stroke-linecap="round" stroke-linejoin="round"/>
<defs>
<linearGradient id="paint0_linear_4262_2219" x1="1.48028" y1="24.0018" x2="46.5417" y2="24.0018" gradientUnits="userSpaceOnUse">
<stop stop-color="#2E3F75"/>
<stop offset="1" stop-color="#165D31"/>
</linearGradient>
</defs>
</svg>
