<svg width="1280" height="254" viewBox="0 0 1280 254" fill="none" xmlns="http://www.w3.org/2000/svg">
<path d="M104.23 249.115L0 4.88461H74.5995L162.446 216.319H118.523L208.46 4.88461H276.785L172.206 249.115H104.23Z" fill="#2E3F75" fill-opacity="0.06"/>
<path d="M291.069 249.115V4.88461H360.091V249.115H291.069Z" fill="#2E3F75" fill-opacity="0.06"/>
<path d="M494.952 254C474.965 254 455.676 251.558 437.085 246.673C418.725 241.556 403.736 235.043 392.116 227.135L414.774 176.195C425.697 183.173 438.247 188.988 452.423 193.64C466.831 198.06 481.124 200.269 495.3 200.269C504.828 200.269 512.497 199.455 518.307 197.827C524.117 195.966 528.3 193.64 530.857 190.849C533.646 187.825 535.04 184.336 535.04 180.382C535.04 174.799 532.484 170.38 527.371 167.124C522.258 163.867 515.635 161.192 507.501 159.099C499.367 157.005 490.304 154.912 480.31 152.819C470.55 150.725 460.673 148.05 450.68 144.794C440.919 141.538 431.972 137.351 423.838 132.234C415.704 126.884 409.081 120.022 403.968 111.648C398.855 103.042 396.299 92.2262 396.299 79.2006C396.299 64.5467 400.25 51.2885 408.151 39.4258C416.285 27.5632 428.37 18.0266 444.405 10.8159C460.441 3.60531 480.427 0 504.364 0C520.399 0 536.086 1.86081 551.424 5.58243C566.995 9.07144 580.822 14.3049 592.907 21.283L571.643 72.5714C560.023 66.2912 548.519 61.6392 537.132 58.6154C525.744 55.359 514.705 53.7308 504.015 53.7308C494.487 53.7308 486.818 54.7775 481.008 56.8709C475.198 58.7317 471.015 61.2903 468.458 64.5467C465.902 67.8031 464.624 71.5247 464.624 75.7115C464.624 81.0614 467.064 85.3645 471.944 88.6209C477.057 91.6447 483.68 94.2033 491.814 96.2967C500.18 98.1575 509.244 100.135 519.005 102.228C528.998 104.321 538.875 106.996 548.635 110.253C558.628 113.277 567.692 117.463 575.826 122.813C583.96 127.93 590.467 134.792 595.347 143.398C600.46 151.772 603.016 162.355 603.016 175.148C603.016 189.337 598.949 202.479 590.815 214.574C582.914 226.437 570.945 235.973 554.91 243.184C539.107 250.395 519.121 254 494.952 254Z" fill="#2E3F75" fill-opacity="0.06"/>
<path d="M634.899 249.115V4.88461H703.921V249.115H634.899Z" fill="#2E3F75" fill-opacity="0.06"/>
<path d="M876.081 254C856.56 254 838.549 250.86 822.049 244.58C805.549 238.299 791.14 229.461 778.823 218.063C766.738 206.433 757.326 192.942 750.587 177.591C743.847 162.239 740.477 145.375 740.477 127C740.477 108.625 743.847 91.761 750.587 76.4093C757.326 61.0577 766.738 47.6832 778.823 36.2857C791.14 24.6557 805.549 15.7006 822.049 9.42033C838.549 3.14011 856.56 0 876.081 0C895.835 0 913.846 3.14011 930.113 9.42033C946.614 15.7006 960.906 24.6557 972.991 36.2857C985.075 47.6832 994.487 61.0577 1001.23 76.4093C1008.2 91.761 1011.68 108.625 1011.68 127C1011.68 145.375 1008.2 162.355 1001.23 177.94C994.487 193.291 985.075 206.666 972.991 218.063C960.906 229.461 946.614 238.299 930.113 244.58C913.846 250.86 895.835 254 876.081 254ZM876.081 196.78C885.377 196.78 893.976 195.152 901.877 191.896C910.011 188.639 916.983 183.987 922.793 177.94C928.835 171.659 933.483 164.216 936.737 155.61C940.223 147.004 941.966 137.467 941.966 127C941.966 116.3 940.223 106.764 936.737 98.3901C933.483 89.7839 928.835 82.457 922.793 76.4093C916.983 70.1291 910.011 65.3608 901.877 62.1044C893.976 58.848 885.377 57.2198 876.081 57.2198C866.785 57.2198 858.07 58.848 849.936 62.1044C842.035 65.3608 835.063 70.1291 829.021 76.4093C823.211 82.457 818.563 89.7839 815.077 98.3901C811.823 106.764 810.196 116.3 810.196 127C810.196 137.467 811.823 147.004 815.077 155.61C818.563 164.216 823.211 171.659 829.021 177.94C835.063 183.987 842.035 188.639 849.936 191.896C858.07 195.152 866.785 196.78 876.081 196.78Z" fill="#2E3F75" fill-opacity="0.06"/>
<path d="M1047.84 249.115V4.88461H1104.66L1239.21 167.473H1212.37V4.88461H1280V249.115H1223.18L1088.62 86.5275H1115.46V249.115H1047.84Z" fill="#2E3F75" fill-opacity="0.06"/>
</svg>
