<svg width="160" height="32" viewBox="0 0 160 32" fill="none" xmlns="http://www.w3.org/2000/svg">
<path d="M29.1878 25.9389C29.1878 29.2859 22.6537 31.9999 14.5948 31.9999C6.53585 31.9999 0 29.2859 0 25.9389C0 25.886 0.00173281 25.8331 0.00346553 25.7837C0.207927 28.7005 6.6606 31.0424 14.593 31.0424C22.5254 31.0424 28.9781 28.7005 29.1826 25.7837C29.1861 25.8348 29.1878 25.8877 29.1878 25.9389Z" fill="url(#paint0_linear_4183_903)"/>
<path d="M29.1845 25.7818V25.7836C28.98 28.7004 22.5274 31.0422 14.5949 31.0422C6.66251 31.0422 0.209833 28.7004 0.00537109 25.7836V25.7818C0.0625511 24.8613 0.613559 23.9919 1.55096 23.2177C1.92003 22.9461 2.35148 22.6887 2.83491 22.4453C1.92523 23.1137 1.41408 23.8755 1.41408 24.6796C1.41408 27.413 7.31575 29.6279 14.5949 29.6279C21.8741 29.6279 27.7758 27.413 27.7758 24.6796C27.7758 23.8755 27.2629 23.1137 26.355 22.4453C26.8401 22.6869 27.2698 22.9461 27.6389 23.2177C28.5763 23.9919 29.1256 24.8613 29.1845 25.7818Z" fill="url(#paint1_linear_4183_903)"/>
<path d="M25.4398 23.9269C25.4398 26.4152 20.5847 28.4326 14.593 28.4326C8.60466 28.4326 3.74609 26.417 3.74609 23.9269C3.74609 23.8881 3.74783 23.8493 3.74956 23.8105C3.89857 25.9796 8.6965 27.7202 14.5912 27.7202C20.4894 27.7202 25.2839 25.9814 25.4329 23.8105C25.4381 23.8511 25.4398 23.8899 25.4398 23.9269Z" fill="url(#paint2_linear_4183_903)"/>
<path d="M25.4399 23.7063C25.4399 23.7398 25.4382 23.7751 25.4364 23.8086C25.2874 25.9777 20.4912 27.7182 14.5948 27.7182C8.70003 27.7182 3.90211 25.9794 3.7531 23.8086C3.75137 23.7751 3.74963 23.7398 3.74963 23.7063C3.74963 23.1491 4.05979 22.6147 4.61773 22.1333C4.59867 22.1598 4.58134 22.1862 4.56401 22.2127C4.37688 22.5036 4.27812 22.8087 4.27812 23.1226C4.27812 25.2617 8.89757 26.9952 14.5965 26.9952C20.2954 26.9952 24.9149 25.2617 24.9149 23.1226C24.9149 22.8087 24.8161 22.5036 24.629 22.2127C24.6117 22.1862 24.5961 22.1598 24.5753 22.1333C25.1298 22.6165 25.4399 23.1491 25.4399 23.7063Z" fill="url(#paint3_linear_4183_903)"/>
<path d="M10.9682 8.71156C9.27357 10.3904 8.6186 11.6883 8.51983 12.6282C7.89605 18.5747 24.0381 14.0972 18.1417 4.96242C19.0409 16.1111 7.76436 15.2153 12.1949 9.71321C13.0024 8.71156 19.3858 4.98534 17.1471 2.57467C19.365 4.96241 20.9851 9.05367 19.5261 12.1944C19.0947 13.1238 18.1191 14.4393 15.6795 15.5609C13.3801 16.619 6.02644 17.834 6.9933 21.0153C6.9933 21.0153 2.33746 13.845 9.20599 7.61468C15.2463 2.13733 14.3262 0 14.3262 0C14.3262 0 16.5822 3.15309 10.9682 8.71156Z" fill="url(#paint4_linear_4183_903)"/>
<path d="M14.3262 0C14.3262 0 14.9846 2.63287 12.2677 5.80007C9.97703 8.4682 6.10612 12.3672 6.08533 17.1903C6.07667 19.2712 6.99501 21.0153 6.99501 21.0153C6.99501 21.0153 3.79293 16.4514 6.39549 11.2668C8.99804 6.08222 14.0871 4.52331 14.3262 0Z" fill="url(#paint5_linear_4183_903)"/>
<path d="M14.6935 17.5327C2.81914 21.8303 10.5003 24.7488 10.5055 24.7242C10.5055 24.7242 6.55316 22.0719 13.9519 19.9134C20.5623 17.9859 24.2634 14.6688 21.8064 9.65527C21.5863 11.3993 21.2172 15.1714 14.6935 17.5327Z" fill="url(#paint6_linear_4183_903)"/>
<path d="M23.5702 14.0234C22.9239 17.4234 20.5951 19.1992 16.2858 20.3049C11.5814 21.5129 7.24616 22.3929 10.5054 24.7242C7.15086 22.3241 25.6651 23.2217 23.5702 14.0234Z" fill="url(#paint7_linear_4183_903)"/>
<path d="M23.5702 14.0234C23.5702 14.0234 25.6876 21.9979 17.3584 24.964C15.8925 25.486 14.3123 25.7523 12.4756 25.1845C12.4756 25.1845 16.1472 25.2462 19.2748 22.8267C19.9298 22.3188 24.35 18.5767 23.5702 14.0234Z" fill="url(#paint8_linear_4183_903)"/>
<path d="M17.1471 2.57471C17.1471 2.57471 18.963 4.09306 15.8493 7.09802C13.2415 9.61626 11.9073 11.0976 12.1672 12.3549C12.4549 13.7481 13.8566 13.6317 14.7213 13.2772C14.7213 13.2772 12.8378 14.2066 11.7219 13.2931C10.1192 11.9811 12.1984 9.44697 13.4685 8.40475C14.7247 7.37312 18.5419 4.73849 17.1471 2.57471Z" fill="url(#paint9_linear_4183_903)"/>
<path d="M21.8079 9.65527C21.8079 9.65527 21.5168 11.7203 20.9484 12.7854C20.3593 13.8911 18.8848 15.6987 16.1072 16.9666C13.3435 18.2293 6.59798 19.7018 8.24754 22.9977C8.24754 22.9977 6.72274 20.7246 14.9133 18.0194C20.1185 16.3 21.9188 12.699 21.8079 9.65527Z" fill="url(#paint10_linear_4183_903)"/>
<path d="M10.5055 24.7238C10.5055 24.7238 7.72276 23.1473 14.3418 21.7506C21.9675 20.1405 23.125 17.7969 23.125 17.7969C23.125 17.7969 20.9643 21.5989 15.1146 22.7399C10.0065 23.7345 10.5055 24.7238 10.5055 24.7238Z" fill="url(#paint11_linear_4183_903)"/>
<path d="M12.4739 25.1841C12.4739 25.1841 21.2103 22.8404 23.125 17.7969C23.125 17.7951 21.5135 24.9989 12.4739 25.1841Z" fill="url(#paint12_linear_4183_903)"/>
<path d="M17.1471 2.57471C17.1471 2.57471 21.3663 6.93225 19.7358 11.6319C17.6739 17.5731 7.78348 15.8484 6.99509 21.0154C6.99509 21.0154 5.87748 18.3649 11.9126 16.3809C19.4049 13.9174 19.6856 10.237 19.7739 9.31118C19.7861 9.17539 19.7826 9.05195 19.7739 8.92145C19.7254 8.22311 19.6492 5.93412 17.1471 2.57471Z" fill="url(#paint13_linear_4183_903)"/>
<path d="M39.5059 28.0587V23.7233H40.1149V28.0587H39.5059ZM44.0943 28.0587V23.7233H44.5926L47.4094 27.2839H47.1481V23.7233H47.7572V28.0587H47.2589L44.4421 24.4981H44.7034V28.0587H44.0943ZM51.7366 28.0587V23.7233H53.5308C53.9859 23.7233 54.3856 23.8131 54.7333 23.9963C55.0794 24.1776 55.3493 24.4312 55.5431 24.7587C55.7351 25.0845 55.832 25.4631 55.832 25.8928C55.832 26.3224 55.7351 26.6992 55.5431 27.0268C55.351 27.3525 55.0811 27.6061 54.7333 27.7892C54.3873 27.9706 53.9859 28.0622 53.5308 28.0622H51.7366V28.0587ZM52.3439 27.5216H53.4945C53.8475 27.5216 54.152 27.4529 54.4098 27.3173C54.6676 27.1817 54.8666 26.9898 55.0084 26.745C55.1503 26.4985 55.2212 26.215 55.2212 25.8928C55.2212 25.567 55.1503 25.2817 55.0084 25.0387C54.8666 24.7957 54.6659 24.6055 54.4098 24.4682C54.152 24.3326 53.8475 24.2639 53.4945 24.2639H52.3439V27.5216ZM61.2285 28.1097C60.6679 28.1097 60.2284 27.946 59.9083 27.6202C59.5883 27.2944 59.4274 26.8172 59.4274 26.1903V23.7251H60.0364V26.1639C60.0364 26.6464 60.1402 27.0004 60.3495 27.2222C60.5589 27.4459 60.853 27.5568 61.2354 27.5568C61.6212 27.5568 61.9171 27.4459 62.1265 27.2222C62.3358 26.9986 62.4396 26.6464 62.4396 26.1639V23.7251H63.0296V26.1903C63.0296 26.8172 62.8704 27.2944 62.5521 27.6202C62.232 27.946 61.7908 28.1097 61.2285 28.1097ZM68.2185 28.1097C67.8932 28.1097 67.5835 28.0587 67.2876 27.9583C66.9918 27.8579 66.7582 27.7258 66.5886 27.5656L66.8136 27.0831C66.9762 27.2275 67.1821 27.3473 67.4347 27.4423C67.6856 27.5374 67.9486 27.585 68.2202 27.585C68.4676 27.585 68.6683 27.5568 68.8223 27.4987C68.9763 27.4406 69.0905 27.3613 69.1632 27.261C69.2358 27.1606 69.2722 27.0444 69.2722 26.9176C69.2722 26.7697 69.2237 26.6499 69.1286 26.5584C69.0334 26.4668 68.9088 26.3946 68.7566 26.3383C68.6043 26.2819 68.4365 26.2344 68.2548 26.1921C68.0731 26.1516 67.888 26.1023 67.7046 26.046C67.5195 25.9896 67.3517 25.9192 67.1994 25.8329C67.0471 25.7466 66.9243 25.6304 66.8309 25.4825C66.7374 25.3363 66.6907 25.1479 66.6907 24.9155C66.6907 24.6918 66.7478 24.4876 66.8637 24.2991C66.9797 24.1107 67.1579 23.961 67.3984 23.8466C67.6389 23.7339 67.9468 23.6758 68.3206 23.6758C68.568 23.6758 68.8137 23.7092 69.0559 23.7744C69.2999 23.8395 69.5109 23.9346 69.6892 24.0597L69.4885 24.5545C69.305 24.4312 69.113 24.3414 68.9106 24.2851C68.7081 24.2287 68.5109 24.2005 68.3206 24.2005C68.0818 24.2005 67.8846 24.2322 67.7306 24.2939C67.5766 24.3555 67.4641 24.4383 67.3932 24.5421C67.3222 24.646 67.2859 24.7605 67.2859 24.889C67.2859 25.0422 67.3344 25.1637 67.4295 25.2535C67.5247 25.3451 67.6493 25.4173 67.8015 25.4701C67.9538 25.5247 68.1216 25.5723 68.3033 25.6163C68.4867 25.6603 68.6701 25.7079 68.8535 25.7624C69.0369 25.817 69.2064 25.8857 69.3587 25.9738C69.5109 26.06 69.6338 26.1763 69.7272 26.3207C69.8207 26.465 69.8674 26.6517 69.8674 26.8789C69.8674 27.0972 69.8085 27.3015 69.6909 27.4881C69.5732 27.6765 69.3916 27.8262 69.1459 27.9407C68.9019 28.0516 68.5922 28.1097 68.2185 28.1097ZM74.3036 28.0587V24.2622H72.8433V23.7233H76.366V24.2622H74.9057V28.0587H74.3036ZM79.7312 28.0587V23.7233H81.3922C81.7659 23.7233 82.0843 23.7832 82.3473 23.9029C82.6103 24.0227 82.8127 24.197 82.9563 24.4224C83.0982 24.6496 83.1691 24.9207 83.1691 25.2342C83.1691 25.5476 83.0982 25.817 82.9563 26.0424C82.8144 26.2678 82.612 26.4404 82.3473 26.5601C82.0826 26.6799 81.7659 26.7397 81.3922 26.7397H80.0651L80.3385 26.4545V28.0587H79.7312ZM80.3385 26.5179L80.0651 26.215H81.3732C81.7625 26.215 82.0583 26.1287 82.259 25.9579C82.4597 25.7871 82.5601 25.5459 82.5601 25.2359C82.5601 24.926 82.4597 24.6865 82.259 24.5175C82.0583 24.3484 81.7625 24.2639 81.3732 24.2639H80.0651L80.3385 23.954V26.5179ZM82.5774 28.0587L81.4943 26.4862H82.1448L83.2401 28.0587H82.5774ZM86.8562 28.0587V23.7233H87.4652V28.0587H86.8562ZM90.7976 28.0587L92.7267 23.7233H93.3288L95.2632 28.0587H94.6248L92.9032 24.0702H93.1472L91.4256 28.0587H90.7976ZM98.599 28.0587V23.7233H99.208V27.5198H101.514V28.0587H98.599ZM110.494 28.1097C110.169 28.1097 109.859 28.0587 109.563 27.9583C109.267 27.8579 109.034 27.7258 108.864 27.5656L109.089 27.0831C109.252 27.2275 109.458 27.3473 109.71 27.4423C109.961 27.5374 110.224 27.585 110.496 27.585C110.743 27.585 110.944 27.5568 111.098 27.4987C111.252 27.4406 111.366 27.3613 111.439 27.261C111.511 27.1606 111.548 27.0444 111.548 26.9176C111.548 26.7697 111.499 26.6499 111.404 26.5584C111.309 26.4668 111.184 26.3946 111.032 26.3383C110.88 26.2819 110.712 26.2344 110.53 26.1921C110.349 26.1516 110.164 26.1023 109.98 26.046C109.795 25.9896 109.627 25.9192 109.475 25.8329C109.323 25.7466 109.2 25.6304 109.107 25.4825C109.013 25.3363 108.966 25.1479 108.966 24.9155C108.966 24.6918 109.023 24.4876 109.139 24.2991C109.255 24.1107 109.434 23.961 109.674 23.8466C109.915 23.7339 110.222 23.6758 110.596 23.6758C110.844 23.6758 111.089 23.7092 111.332 23.7744C111.576 23.8395 111.787 23.9346 111.965 24.0597L111.764 24.5545C111.581 24.4312 111.389 24.3414 111.186 24.2851C110.984 24.2287 110.787 24.2005 110.596 24.2005C110.357 24.2005 110.16 24.2322 110.006 24.2939C109.852 24.3555 109.74 24.4383 109.669 24.5421C109.598 24.646 109.562 24.7605 109.562 24.889C109.562 25.0422 109.61 25.1637 109.705 25.2535C109.8 25.3451 109.925 25.4173 110.077 25.4701C110.229 25.5247 110.397 25.5723 110.579 25.6163C110.762 25.6603 110.946 25.7079 111.129 25.7624C111.313 25.817 111.482 25.8857 111.634 25.9738C111.787 26.06 111.909 26.1763 112.003 26.3207C112.096 26.465 112.143 26.6517 112.143 26.8789C112.143 27.0972 112.084 27.3015 111.967 27.4881C111.849 27.6765 111.667 27.8262 111.422 27.9407C111.176 28.0516 110.866 28.1097 110.494 28.1097ZM116.34 27.5216H118.823V28.0604H115.733V23.7251H118.739V24.2639H116.34V27.5216ZM116.285 25.5952H118.476V26.1217H116.285V25.5952ZM122.51 28.0587V23.7233H124.171C124.545 23.7233 124.863 23.7832 125.126 23.9029C125.389 24.0227 125.592 24.197 125.735 24.4224C125.877 24.6496 125.948 24.9207 125.948 25.2342C125.948 25.5476 125.877 25.817 125.735 26.0424C125.594 26.2678 125.391 26.4404 125.126 26.5601C124.862 26.6799 124.545 26.7397 124.171 26.7397H122.844L123.118 26.4545V28.0587H122.51ZM123.119 26.5179L122.846 26.215H124.154C124.543 26.215 124.839 26.1287 125.04 25.9579C125.241 25.7871 125.341 25.5459 125.341 25.2359C125.341 24.926 125.241 24.6865 125.04 24.5175C124.839 24.3484 124.543 24.2639 124.154 24.2639H122.846L123.119 23.954V26.5179ZM125.358 28.0587L124.275 26.4862H124.926L126.021 28.0587H125.358ZM130.864 28.0587L128.99 23.7233H129.647L131.369 27.7241H130.992L132.725 23.7233H133.334L131.466 28.0587H130.864ZM136.669 28.0587V23.7233H137.278V28.0587H136.669ZM143.16 28.1097C142.835 28.1097 142.537 28.0551 142.262 27.946C141.989 27.8368 141.752 27.6818 141.551 27.4811C141.35 27.2803 141.193 27.0461 141.079 26.7785C140.965 26.5108 140.909 26.215 140.909 25.8928C140.909 25.5705 140.966 25.2764 141.079 25.007C141.193 24.7394 141.35 24.5052 141.553 24.3044C141.755 24.1037 141.994 23.9487 142.267 23.8395C142.541 23.7304 142.84 23.6758 143.165 23.6758C143.494 23.6758 143.797 23.7321 144.076 23.8466C144.352 23.961 144.589 24.1283 144.785 24.352L144.389 24.7429C144.226 24.5703 144.044 24.44 143.842 24.3555C143.64 24.271 143.422 24.2287 143.191 24.2287C142.953 24.2287 142.729 24.2692 142.525 24.352C142.321 24.4347 142.143 24.5509 141.992 24.6989C141.842 24.8468 141.726 25.0246 141.643 25.2289C141.56 25.4332 141.518 25.655 141.518 25.8945C141.518 26.134 141.56 26.3559 141.643 26.5601C141.726 26.7644 141.842 26.9405 141.992 27.0902C142.143 27.2381 142.319 27.3543 142.525 27.4371C142.729 27.5198 142.953 27.5603 143.191 27.5603C143.423 27.5603 143.64 27.5181 143.842 27.4335C144.044 27.349 144.228 27.217 144.389 27.0409L144.785 27.4318C144.589 27.6554 144.354 27.8245 144.076 27.9389C143.799 28.0516 143.494 28.1097 143.16 28.1097ZM148.965 27.5216H151.448V28.0604H148.358V23.7251H151.363V24.2639H148.965V27.5216ZM148.911 25.5952H151.102V26.1217H148.911V25.5952ZM156.376 28.1097C156.05 28.1097 155.741 28.0587 155.445 27.9583C155.149 27.8579 154.915 27.7258 154.746 27.5656L154.971 27.0831C155.133 27.2275 155.339 27.3473 155.592 27.4423C155.843 27.5374 156.106 27.585 156.377 27.585C156.625 27.585 156.825 27.5568 156.979 27.4987C157.133 27.4406 157.248 27.3613 157.32 27.261C157.393 27.1606 157.429 27.0444 157.429 26.9176C157.429 26.7697 157.381 26.6499 157.286 26.5584C157.19 26.4668 157.066 26.3946 156.914 26.3383C156.761 26.2819 156.594 26.2344 156.412 26.1921C156.23 26.1516 156.045 26.1023 155.862 26.046C155.676 25.9896 155.509 25.9192 155.356 25.8329C155.204 25.7466 155.081 25.6304 154.988 25.4825C154.894 25.3363 154.848 25.1479 154.848 24.9155C154.848 24.6918 154.905 24.4876 155.021 24.2991C155.137 24.1107 155.315 23.961 155.555 23.8466C155.796 23.7339 156.104 23.6758 156.478 23.6758C156.725 23.6758 156.971 23.7092 157.213 23.7744C157.457 23.8395 157.668 23.9346 157.846 24.0597L157.645 24.5545C157.462 24.4312 157.27 24.3414 157.068 24.2851C156.865 24.2287 156.668 24.2005 156.478 24.2005C156.239 24.2005 156.042 24.2322 155.888 24.2939C155.734 24.3555 155.621 24.4383 155.55 24.5421C155.479 24.646 155.443 24.7605 155.443 24.889C155.443 25.0422 155.491 25.1637 155.587 25.2535C155.682 25.3451 155.806 25.4173 155.959 25.4701C156.111 25.5247 156.279 25.5723 156.46 25.6163C156.644 25.6603 156.827 25.7079 157.01 25.7624C157.194 25.817 157.363 25.8857 157.516 25.9738C157.668 26.06 157.791 26.1763 157.884 26.3207C157.978 26.465 158.024 26.6517 158.024 26.8789C158.024 27.0972 157.966 27.3015 157.848 27.4881C157.73 27.6765 157.549 27.8262 157.303 27.9407C157.059 28.0516 156.749 28.1097 156.376 28.1097Z" fill="white"/>
<path d="M41.0544 8.21675C40.8952 8.62985 40.8165 9.08568 40.8165 9.5878C40.8165 10.0792 40.8952 10.5297 41.0544 10.9428C41.2137 11.3559 41.4341 11.7103 41.7193 12.004C42.0044 12.2996 42.3456 12.5275 42.7462 12.6896C43.1469 12.8516 43.586 12.9317 44.0689 12.9317C44.55 12.9317 45.0224 12.8516 45.4825 12.6896C45.591 12.6504 45.7012 12.6059 45.8114 12.5542V9.33674H48.7034V14.1853C48.0351 14.6642 47.2705 15.0328 46.4115 15.2892C45.5507 15.5456 44.7057 15.6738 43.8729 15.6738C42.9527 15.6738 42.1094 15.526 41.3431 15.2305C40.5768 14.9349 39.9085 14.5164 39.3382 13.9769C38.7678 13.4356 38.3252 12.7928 38.0068 12.045C37.6883 11.2989 37.5309 10.4781 37.5309 9.58602C37.5309 8.69395 37.6901 7.87488 38.0068 7.12882C38.3252 6.38276 38.7713 5.73819 39.3451 5.19689C39.9207 4.6556 40.5961 4.23894 41.3746 3.94336C42.1514 3.64779 43.0122 3.5 43.9534 3.5C45.0276 3.5 45.9916 3.6834 46.8454 4.05198C47.6992 4.42056 48.406 4.94939 48.9641 5.64026L46.8944 7.54726C46.5007 7.10211 46.0756 6.7727 45.6207 6.56082C45.1659 6.34893 44.6602 6.24387 44.1004 6.24387C43.607 6.24387 43.1574 6.32222 42.7532 6.47713C42.3473 6.63382 42.0027 6.85817 41.7175 7.15375C41.4358 7.44932 41.2137 7.80366 41.0544 8.21675ZM58.2646 10.1398C58.2646 11.1316 58.0757 11.8456 57.6978 12.28C57.3199 12.7145 56.7915 12.9317 56.1127 12.9317C55.4339 12.9317 54.902 12.7145 54.5189 12.28C54.1357 11.8456 53.9433 11.1316 53.9433 10.1398V3.73504H50.6891V10.2395C50.6891 11.9667 51.1633 13.3056 52.1098 14.2529C53.0563 15.2002 54.3789 15.6738 56.0777 15.6738C57.7642 15.6738 59.0869 15.2002 60.0456 14.2529C61.0044 13.3056 61.4838 11.9684 61.4838 10.2395V3.73504H58.2646V10.1398ZM66.9563 3.73504H63.7039V15.4406H72.4288V12.816H66.958V3.73504H66.9563ZM73.7252 15.4406H76.9776V11.4271H82.039V8.86845H76.9776V6.30975H82.7284V3.73504H73.7252V15.4406ZM97.8286 10.3659C98.07 10.7737 98.1907 11.2829 98.1907 11.8954C98.1907 12.5756 98.0018 13.2024 97.6239 13.7757C97.246 14.3508 96.6791 14.8102 95.9233 15.1557C95.1675 15.5011 94.2193 15.6738 93.0803 15.6738C92.1269 15.6738 91.2153 15.5545 90.3441 15.3141C89.4728 15.0738 88.7695 14.7711 88.2324 14.4025L89.2996 11.9435C89.814 12.2783 90.4088 12.5542 91.0824 12.7715C91.756 12.9887 92.426 13.0973 93.0943 13.0973C93.5545 13.0973 93.9184 13.0581 94.1878 12.9798C94.4555 12.9015 94.6532 12.7911 94.7791 12.6451C94.9051 12.5008 94.9681 12.3281 94.9681 12.1269C94.9681 11.8705 94.8474 11.6675 94.6059 11.5162C94.3645 11.3666 94.0496 11.2384 93.6612 11.1316C93.2728 11.0265 92.8512 10.925 92.3963 10.8306C91.9414 10.7363 91.4795 10.6099 91.0072 10.4549C90.5365 10.2983 90.1096 10.0935 89.7247 9.83708C89.3416 9.58068 89.0319 9.24593 88.7957 8.83461C88.5596 8.42152 88.4423 7.90337 88.4423 7.28017C88.4423 6.58931 88.6278 5.95898 89.0004 5.39098C89.3731 4.82297 89.9364 4.36536 90.6922 4.01993C91.448 3.6745 92.3893 3.50178 93.5177 3.50178C94.2735 3.50178 95.0153 3.58903 95.7431 3.76175C96.4709 3.93446 97.1148 4.19443 97.6729 4.53986L96.6879 6.98103C96.1403 6.66943 95.5979 6.43974 95.0608 6.29551C94.5237 6.15128 94.0041 6.07828 93.5002 6.07828C93.0506 6.07828 92.6902 6.12813 92.4155 6.22963C92.1408 6.32934 91.9449 6.45754 91.8242 6.61423C91.7035 6.77092 91.644 6.9383 91.644 7.11636C91.644 7.38344 91.7647 7.59355 92.0061 7.74312C92.2476 7.89269 92.559 8.01555 92.9421 8.1117C93.3253 8.20607 93.7504 8.304 94.2158 8.40372C94.6812 8.50343 95.1448 8.62985 95.6049 8.77942C96.065 8.93077 96.4884 9.13019 96.8786 9.38125C97.2722 9.62875 97.5871 9.95816 97.8286 10.3659ZM111.377 7.14663C111.053 6.41125 110.605 5.76846 110.037 5.2236C109.466 4.67874 108.795 4.25497 108.018 3.95227C107.239 3.64957 106.391 3.50178 105.471 3.50178C104.55 3.50178 103.7 3.65135 102.923 3.95227C102.145 4.25497 101.473 4.68052 100.904 5.2325C100.334 5.78092 99.8878 6.42727 99.5641 7.16265C99.244 7.89803 99.0795 8.70107 99.0795 9.56821C99.0795 10.4496 99.244 11.2615 99.5641 12.0023C99.8878 12.7448 100.336 13.3911 100.904 13.9431C101.475 14.4951 102.15 14.9224 102.934 15.2233C103.714 15.5225 104.561 15.6738 105.472 15.6738C106.393 15.6738 107.243 15.5207 108.02 15.2233C108.798 14.9206 109.473 14.4986 110.049 13.952C110.623 13.4036 111.069 12.7608 111.386 12.0183C111.702 11.2793 111.863 10.4603 111.863 9.56821C111.862 8.69039 111.697 7.88201 111.377 7.14663ZM108.338 10.9677C108.177 11.3737 107.96 11.7245 107.68 12.0201C107.4 12.3156 107.073 12.54 106.695 12.6967C106.317 12.8534 105.908 12.9335 105.471 12.9335C105.03 12.9335 104.624 12.8534 104.246 12.6967C103.868 12.54 103.536 12.3156 103.254 12.0201C102.967 11.7245 102.748 11.3737 102.596 10.9677C102.442 10.5618 102.367 10.1006 102.367 9.58602C102.367 9.07499 102.442 8.61382 102.596 8.20785C102.75 7.80188 102.969 7.45111 103.254 7.15197C103.537 6.85639 103.868 6.63204 104.246 6.47535C104.624 6.31866 105.03 6.24209 105.471 6.24209C105.908 6.24209 106.317 6.31866 106.695 6.47535C107.073 6.63204 107.402 6.85639 107.68 7.15197C107.96 7.45111 108.179 7.80188 108.338 8.20785C108.495 8.61382 108.574 9.07499 108.574 9.58602C108.572 10.1006 108.494 10.5618 108.338 10.9677ZM121.061 10.1398C121.061 11.1316 120.872 11.8456 120.494 12.28C120.116 12.7145 119.588 12.9317 118.909 12.9317C118.23 12.9317 117.698 12.7145 117.315 12.28C116.932 11.8456 116.739 11.1316 116.739 10.1398V3.73504H113.485V10.2395C113.485 11.9667 113.959 13.3056 114.906 14.2529C115.852 15.2002 117.175 15.6738 118.874 15.6738C120.56 15.6738 121.883 15.2002 122.842 14.2529C123.8 13.3056 124.28 11.9684 124.28 10.2395V3.73504H121.059V10.1398H121.061ZM134.599 11.7565C135.302 11.4236 135.848 10.9553 136.236 10.357C136.645 9.72134 136.85 8.95035 136.85 8.0476C136.85 7.16977 136.645 6.40234 136.236 5.74887C135.823 5.0954 135.237 4.59684 134.469 4.25319C133.701 3.90597 132.791 3.73326 131.74 3.73326H126.5V15.4388H129.751V12.3281H131.511L133.598 15.4388H137.081L134.599 11.7565ZM133.069 9.31893C132.732 9.62163 132.221 9.76942 131.542 9.76942H129.751V6.34359H131.542C132.221 6.34359 132.732 6.49671 133.069 6.80119C133.411 7.10923 133.58 7.52233 133.58 8.0476C133.582 8.5978 133.411 9.02158 133.069 9.31893ZM142.232 7.15553C142.512 6.85995 142.848 6.63382 143.243 6.47891C143.637 6.32222 144.071 6.24565 144.541 6.24565C145.078 6.24565 145.57 6.36317 146.02 6.59643C146.469 6.83146 146.879 7.17155 147.251 7.6167L149.321 5.7097C148.763 4.985 148.065 4.43658 147.227 4.06266C146.389 3.68874 145.439 3.50178 144.377 3.50178C143.467 3.50178 142.629 3.64957 141.863 3.94514C141.096 4.24072 140.428 4.65916 139.858 5.19867C139.287 5.73997 138.845 6.38276 138.526 7.1306C138.208 7.87666 138.05 8.69751 138.05 9.5878C138.05 10.4799 138.21 11.2989 138.526 12.0468C138.845 12.7946 139.287 13.4374 139.858 13.9787C140.426 14.52 141.095 14.9367 141.863 15.2322C142.629 15.5278 143.467 15.6756 144.377 15.6756C145.439 15.6756 146.389 15.4851 147.227 15.1076C148.065 14.7283 148.763 14.1764 149.321 13.4517L147.251 11.5447C146.879 12.0023 146.467 12.3477 146.02 12.581C145.57 12.816 145.076 12.9317 144.541 12.9317C144.071 12.9317 143.637 12.8534 143.243 12.6985C142.849 12.5418 142.512 12.3174 142.232 12.0219C141.952 11.7263 141.733 11.3719 141.574 10.9606C141.415 10.5475 141.336 10.0917 141.336 9.58958C141.336 9.08746 141.415 8.63163 141.574 8.21853C141.733 7.80366 141.952 7.44932 142.232 7.15553ZM153.987 12.8658V10.7256H159.097V8.26661H153.987V6.30975H159.787V3.73504H150.783V15.4406H160V12.8658H153.987Z" fill="url(#paint14_linear_4183_903)"/>
<defs>
<linearGradient id="paint0_linear_4183_903" x1="29.1876" y1="28.8921" x2="-0.000139178" y2="28.8921" gradientUnits="userSpaceOnUse">
<stop offset="0.0121" stop-color="#2E3F75"/>
<stop offset="0.5156" stop-color="#0E83C8"/>
<stop offset="0.672" stop-color="#148ACC"/>
<stop offset="0.8974" stop-color="#239DD6"/>
<stop offset="1" stop-color="#2CA8DC"/>
</linearGradient>
<linearGradient id="paint1_linear_4183_903" x1="0.0041062" y1="26.7445" x2="29.1839" y2="26.7445" gradientUnits="userSpaceOnUse">
<stop offset="0.0121" stop-color="#2E3F75"/>
<stop offset="0.5156" stop-color="#0E83C8"/>
<stop offset="0.672" stop-color="#148ACC"/>
<stop offset="0.8974" stop-color="#239DD6"/>
<stop offset="1" stop-color="#2CA8DC"/>
</linearGradient>
<linearGradient id="paint2_linear_4183_903" x1="25.4399" y1="26.1215" x2="3.74758" y2="26.1215" gradientUnits="userSpaceOnUse">
<stop offset="0.0121" stop-color="#094716"/>
<stop offset="0.5" stop-color="#8BBD40"/>
<stop offset="1" stop-color="#D0DF8A"/>
</linearGradient>
<linearGradient id="paint3_linear_4183_903" x1="3.74766" y1="24.9264" x2="25.44" y2="24.9264" gradientUnits="userSpaceOnUse">
<stop offset="0.0121" stop-color="#094716"/>
<stop offset="0.5" stop-color="#8BBD40"/>
<stop offset="1" stop-color="#D0DF8A"/>
</linearGradient>
<linearGradient id="paint4_linear_4183_903" x1="5.45309" y1="10.5072" x2="20.0841" y2="10.5072" gradientUnits="userSpaceOnUse">
<stop offset="0.0121" stop-color="#094716"/>
<stop offset="1" stop-color="#D0DF8A"/>
</linearGradient>
<linearGradient id="paint5_linear_4183_903" x1="14.3965" y1="10.5072" x2="5.37706" y2="10.5072" gradientUnits="userSpaceOnUse">
<stop offset="0.0121" stop-color="#094716"/>
<stop offset="0.5" stop-color="#8BBD40"/>
<stop offset="1" stop-color="#D0DF8A"/>
</linearGradient>
<linearGradient id="paint6_linear_4183_903" x1="8.05759" y1="17.1892" x2="22.5704" y2="17.1892" gradientUnits="userSpaceOnUse">
<stop offset="0.0121" stop-color="#2E3F75"/>
<stop offset="0.7" stop-color="#0E83C8"/>
<stop offset="0.7969" stop-color="#148ACC"/>
<stop offset="0.9365" stop-color="#239DD6"/>
<stop offset="1" stop-color="#2CA8DC"/>
</linearGradient>
<linearGradient id="paint7_linear_4183_903" x1="9.37155" y1="19.3734" x2="23.7356" y2="19.3734" gradientUnits="userSpaceOnUse">
<stop offset="0.0121" stop-color="#2E3F75"/>
<stop offset="0.7" stop-color="#0E83C8"/>
<stop offset="0.7969" stop-color="#148ACC"/>
<stop offset="0.9365" stop-color="#239DD6"/>
<stop offset="1" stop-color="#2CA8DC"/>
</linearGradient>
<linearGradient id="paint8_linear_4183_903" x1="12.4745" y1="19.7628" x2="23.8105" y2="19.7628" gradientUnits="userSpaceOnUse">
<stop offset="0.0121" stop-color="#2E3F75"/>
<stop offset="0.7" stop-color="#0E83C8"/>
<stop offset="0.7969" stop-color="#148ACC"/>
<stop offset="0.9365" stop-color="#239DD6"/>
<stop offset="1" stop-color="#2CA8DC"/>
</linearGradient>
<linearGradient id="paint9_linear_4183_903" x1="17.6737" y1="8.13397" x2="11.1398" y2="8.13397" gradientUnits="userSpaceOnUse">
<stop offset="0.0121" stop-color="#094716"/>
<stop offset="0.5" stop-color="#8BBD40"/>
<stop offset="1" stop-color="#D0DF8A"/>
</linearGradient>
<linearGradient id="paint10_linear_4183_903" x1="21.8119" y1="16.3259" x2="7.99084" y2="16.3259" gradientUnits="userSpaceOnUse">
<stop offset="0.0121" stop-color="#2E3F75"/>
<stop offset="0.7" stop-color="#0E83C8"/>
<stop offset="0.7969" stop-color="#148ACC"/>
<stop offset="0.9365" stop-color="#239DD6"/>
<stop offset="1" stop-color="#2CA8DC"/>
</linearGradient>
<linearGradient id="paint11_linear_4183_903" x1="23.1256" y1="21.2595" x2="9.92531" y2="21.2595" gradientUnits="userSpaceOnUse">
<stop offset="0.0121" stop-color="#2E3F75"/>
<stop offset="0.7" stop-color="#0E83C8"/>
<stop offset="0.7969" stop-color="#148ACC"/>
<stop offset="0.9365" stop-color="#239DD6"/>
<stop offset="1" stop-color="#2CA8DC"/>
</linearGradient>
<linearGradient id="paint12_linear_4183_903" x1="23.1256" y1="21.4897" x2="12.4745" y2="21.4897" gradientUnits="userSpaceOnUse">
<stop offset="0.0121" stop-color="#2E3F75"/>
<stop offset="0.7" stop-color="#0E83C8"/>
<stop offset="0.7969" stop-color="#148ACC"/>
<stop offset="0.9365" stop-color="#239DD6"/>
<stop offset="1" stop-color="#2CA8DC"/>
</linearGradient>
<linearGradient id="paint13_linear_4183_903" x1="20.1101" y1="11.7943" x2="6.91388" y2="11.7943" gradientUnits="userSpaceOnUse">
<stop offset="0.0121" stop-color="#094716"/>
<stop offset="0.5" stop-color="#8BBD40"/>
<stop offset="1" stop-color="#D0DF8A"/>
</linearGradient>
<linearGradient id="paint14_linear_4183_903" x1="37.5304" y1="9.58819" x2="160" y2="9.58819" gradientUnits="userSpaceOnUse">
<stop stop-color="#2CA8DC"/>
<stop offset="1" stop-color="#D0DF8A"/>
</linearGradient>
</defs>
</svg>
