<svg width="124" height="98" viewBox="0 0 124 98" fill="none" xmlns="http://www.w3.org/2000/svg">
<g style="mix-blend-mode:plus-lighter">
<path d="M52.7628 0L33.837 68.8211L27.5284 43.0132C35.7487 43.0132 42.4397 45.4028 47.6013 50.1821C52.7628 54.9613 55.3436 61.5567 55.3436 69.9681C55.3436 78.1884 52.6673 84.8794 47.3145 90.041C42.1529 95.0114 35.6532 97.4966 27.8152 97.4966C19.7861 97.4966 13.0951 95.0114 7.74237 90.041C2.58079 84.8794 0 78.1884 0 69.9681C0 67.4829 0.19117 65.0933 0.573509 62.7993C0.955849 60.3141 1.72053 57.4465 2.86755 54.1966C4.01456 50.9467 5.63951 46.6454 7.74237 41.2927L24.3741 0H52.7628ZM120.437 0L101.511 68.8211L95.2025 43.0132C103.423 43.0132 110.114 45.4028 115.275 50.1821C120.437 54.9613 123.018 61.5567 123.018 69.9681C123.018 78.1884 120.341 84.8794 114.989 90.041C109.827 95.0114 103.327 97.4966 95.4893 97.4966C87.4602 97.4966 80.7692 95.0114 75.4165 90.041C70.2549 84.8794 67.6741 78.1884 67.6741 69.9681C67.6741 67.4829 67.8653 65.0933 68.2476 62.7993C68.6299 60.3141 69.3946 57.4465 70.5416 54.1966C71.6887 50.9467 73.3136 46.6454 75.4165 41.2927L92.0482 0H120.437Z" fill="#092514"/>
</g>
</svg>
