<svg width="91" height="67" viewBox="0 0 91 67" fill="none" xmlns="http://www.w3.org/2000/svg">
<path d="M50.0222 18.5703H10.0073V20.263H50.0222V18.5703Z" fill="#D5D9E3"/>
<path d="M44.7576 28.5693H10.0073V30.262H44.7576V28.5693Z" fill="#D5D9E3"/>
<path d="M36.3515 37.1406H10.0073V38.8333H36.3515V37.1406Z" fill="#D5D9E3"/>
<path d="M0.857755 4.28516H50.0293C50.4689 4.28516 50.8764 4.66017 50.8764 5.13157V32.0548L70.0904 36.7152L72.7602 36.0724C73.1998 35.976 73.6716 36.2438 73.7788 36.7152L73.811 36.9188V51.425C73.811 51.8643 73.4357 52.2714 72.9639 52.2714H30.1398L6.09015 66.4455C5.68271 66.6812 5.14663 66.5419 4.91074 66.1455C4.84641 66.0062 4.80348 65.8455 4.80348 65.6741L4.66409 52.2821H0.847023C0.37525 52.2821 0 51.875 0 51.4357V5.14223C0.0107221 4.64941 0.375261 4.28516 0.857755 4.28516ZM49.1502 5.9672H1.70484V50.5465H5.52191C5.99368 50.5465 6.36893 50.9536 6.36893 51.425L6.50833 64.2492L29.4751 50.7179C29.6144 50.6215 29.7753 50.5465 29.9468 50.5465H72.1276V37.958L70.3049 38.3973C70.1762 38.4294 70.0368 38.4294 69.8974 38.4294L49.9007 33.5333C49.4932 33.469 49.1608 33.1262 49.1608 32.6869V5.9672H49.1502ZM56.0659 5.19585L70.0797 8.60277L72.7495 7.95991C73.1891 7.86349 73.6609 8.13137 73.7681 8.60277L73.8003 8.80633C73.8003 9.21345 73.5 9.57765 73.0926 9.62051L70.2834 10.3276C70.1547 10.3598 70.0153 10.3276 69.876 10.3276L55.6584 6.85645L56.0659 5.19585Z" fill="#D5D9E3"/>
<path d="M49.6899 4.31726L69.7188 9.21339C70.094 9.30981 70.3299 9.62055 70.3299 9.99552V38.108C70.3299 38.5794 69.9546 38.9222 69.515 38.9222C69.4185 38.9222 69.3435 38.9222 69.247 38.8901L49.2503 34.0261C48.875 33.9297 48.6391 33.5869 48.6391 33.2119L48.6069 5.0994C48.6069 4.66014 48.9822 4.28516 49.454 4.28516C49.5291 4.28516 49.6255 4.31726 49.6899 4.31726ZM68.7109 10.6383L50.2688 6.14931V32.569L68.7109 37.0902V10.6383Z" fill="#D5D9E3"/>
<path d="M88.7044 6.14931L70.2302 10.6383V37.0902L88.7044 32.569V6.14931ZM69.2545 9.21339L89.2512 4.31726C89.3155 4.31726 89.4228 4.28516 89.5193 4.28516C89.9589 4.28516 90.3342 4.66014 90.3342 5.0994V33.2119C90.3342 33.5869 90.0661 33.919 89.6909 34.0261L69.6941 38.8901C69.5976 38.9222 69.5225 38.9222 69.4261 38.9222C68.9864 38.9222 68.6219 38.5794 68.6219 38.108V9.99552C68.6112 9.62055 68.8793 9.32052 69.2545 9.21339Z" fill="#D5D9E3"/>
<path d="M85.9165 5.08896L69.5009 1.64987L53.0854 5.08896L69.5009 9.07439L85.9165 5.08896ZM69.6725 0L89.7658 4.25327C90.0338 4.31755 90.3019 4.52112 90.3769 4.86395C90.4734 5.27107 90.2054 5.71036 89.7658 5.83892L69.7047 10.735C69.576 10.735 69.4366 10.735 69.3294 10.735L49.2683 5.83892C48.9681 5.77464 48.6894 5.53891 48.625 5.19607C48.5285 4.75681 48.8287 4.31755 49.2683 4.25327L69.3294 0C69.4366 0 69.576 0 69.6725 0Z" fill="#D5D9E3"/>
<path d="M87.4066 29.7949C87.4066 30.2342 87.0314 30.6092 86.5917 30.6092C86.12 30.6092 85.7769 30.2342 85.7769 29.7949V9.38553C85.7769 8.94628 86.12 8.57129 86.5917 8.57129C87.0314 8.57129 87.4066 8.94628 87.4066 9.38553V29.7949Z" fill="#D5D9E3"/>
<path d="M83.1071 26.1054C83.1071 26.5768 82.7318 26.9518 82.3029 26.9518C81.8633 26.9518 81.488 26.5768 81.488 26.1054V12.2313C81.488 11.792 81.8633 11.4277 82.3029 11.4277C82.7425 11.4277 83.1071 11.8027 83.1071 12.2313V26.1054Z" fill="#D5D9E3"/>
</svg>
