<svg width="91" height="91" viewBox="0 0 91 91" fill="none" xmlns="http://www.w3.org/2000/svg">
<path d="M34.0177 37.0484V20.6445M55.7935 37.0484V20.6445M24.8474 37.0484H64.9568V47.8957C64.9568 53.2374 62.8439 58.3603 59.0829 62.1375C55.3219 65.9146 50.2209 68.0366 44.9021 68.0366C39.5833 68.0366 34.4823 65.9146 30.7213 62.1375C26.9603 58.3603 24.8474 53.2374 24.8474 47.8957V37.0484Z" stroke="#D5D9E3" stroke-width="3" stroke-linecap="round" stroke-linejoin="round"/>
<path d="M45.5679 67.6085V82.4798C45.5679 86.3428 48.7036 89.534 52.5083 88.9251C63.2917 87.143 73.0144 81.3557 79.7479 72.7111C86.4815 64.0664 89.734 53.196 88.8605 42.2556C87.987 31.3153 83.0512 21.1042 75.0321 13.6476C67.013 6.19106 56.4963 2.03366 45.5679 2C35.9777 1.99642 26.6545 5.172 19.045 11.034C11.4356 16.8959 5.96554 25.1164 3.48368 34.4197C1.00182 43.7231 1.64697 53.589 5.31901 62.4865C8.99105 71.3839 15.4846 78.8153 23.7921 83.6275" stroke="#D5D9E3" stroke-width="3" stroke-linecap="round" stroke-linejoin="round"/>
</svg>
