<svg width="69" height="88" viewBox="0 0 69 88" fill="none" xmlns="http://www.w3.org/2000/svg">
<path d="M57.1022 26.2576V26.2841C60.8069 29.4909 63.8348 33.4508 65.8831 37.9509C67.8779 42.3005 69 47.1284 69 52.1777C69 61.6653 65.1261 70.258 58.9011 76.4502C52.6494 82.6689 44.0378 86.4958 34.5 86.4958C24.9622 86.4958 16.3505 82.6689 10.0989 76.4502C3.8739 70.258 0 61.6653 0 52.1777C0 47.1284 1.1221 42.3005 3.11693 37.9509C5.1652 33.4596 8.1931 29.4644 11.8978 26.2576C12.1739 26.0361 12.628 26.0627 12.8507 26.3373C12.9308 26.417 12.9932 26.5056 12.9932 26.6208C15.2106 35.7185 23.7599 49.1658 30.0205 58.99C31.7571 61.6918 33.3067 64.1191 34.5089 66.13C35.7201 64.1191 37.2607 61.6918 38.9973 58.99C45.249 49.1658 53.8072 35.7185 56.0246 26.6208C56.1048 26.2576 56.4699 26.0361 56.835 26.1158C56.9419 26.1424 57.0221 26.1956 57.1022 26.2576ZM64.6808 38.5001C62.8284 34.5138 60.2191 30.9349 57.0221 28.0116C54.4127 37.2422 46.1929 50.1668 40.1372 59.6809C38.1156 62.8611 36.3256 65.6516 35.0878 67.7688V67.7954C35.0343 67.8751 34.9453 67.9637 34.8384 68.0434C34.5267 68.2117 34.1081 68.0966 33.9122 67.7954C32.6744 65.6782 30.9111 62.8523 28.8895 59.672C22.8338 50.158 14.5873 37.2422 11.9779 28.0027C8.78086 30.9349 6.17153 34.5049 4.31918 38.4913C2.4134 42.6459 1.34474 47.2789 1.34474 52.16C1.34474 61.2843 5.07615 69.5139 11.0518 75.4846C17.0541 81.4553 25.354 85.1404 34.5 85.1404C43.646 85.1404 51.9459 81.4553 57.9482 75.4846C63.9238 69.5139 67.6553 61.2843 67.6553 52.16C67.6553 47.2878 66.5866 42.6637 64.6808 38.5001Z" fill="#D5D9E3"/>
<path d="M52.4268 37.74C57.4496 39.2725 61.5995 41.4252 64.4849 43.9587C67.3703 46.5011 69 49.451 69 52.6047C69 57.5123 65.0727 61.8973 58.7052 65.0509C52.507 68.116 43.9488 70.0206 34.5 70.0206C25.0513 70.0206 16.493 68.1248 10.2948 65.0509C3.92733 61.8973 0 57.5212 0 52.6047C0 49.451 1.62972 46.4922 4.51511 43.9587C7.4005 41.4163 11.5861 39.2459 16.5732 37.74C16.9116 37.6248 17.25 37.7931 17.3836 38.0766C20.9992 45.2786 25.9953 53.0919 30.0027 59.4258C31.7393 62.1276 33.2889 64.5549 34.4911 66.5658C35.7023 64.5549 37.2429 62.1276 38.9795 59.4258C42.9869 53.0919 47.983 45.2786 51.5986 38.0766C51.75 37.7666 52.1151 37.6248 52.4268 37.74ZM63.5854 44.9686C60.9494 42.6211 57.1378 40.6456 52.5604 39.1928C48.918 46.3062 44.0645 53.9511 40.1105 60.1167C38.0889 63.2969 36.3256 66.0874 35.0878 68.2046V68.2312C35.0343 68.3109 34.9453 68.3995 34.8384 68.4792C34.5267 68.6475 34.1081 68.5324 33.9122 68.2312C32.6744 66.114 30.9111 63.2881 28.8895 60.1078C24.9355 53.9423 20.0819 46.2973 16.4396 39.1839C11.8711 40.6367 8.05061 42.6122 5.41457 44.9597C2.83197 47.2452 1.34474 49.8674 1.34474 52.6047C1.34474 56.9542 4.98709 60.9494 10.8826 63.8462C16.9116 66.8315 25.2739 68.6741 34.5 68.6741C43.7261 68.6741 52.0884 66.8315 58.1174 63.8462C64.004 60.9406 67.6553 56.9542 67.6553 52.6047C67.6553 49.8762 66.168 47.2541 63.5854 44.9686Z" fill="#D5D9E3"/>
<path d="M45.4962 50.0003L45.5496 52.401C45.5496 61.7734 44.285 70.2599 42.2635 76.4254C40.1618 82.7859 37.1606 86.7191 33.7676 86.7191C30.3746 86.7191 27.3735 82.7859 25.2985 76.4254C23.2502 70.2599 22.0212 61.7734 22.0212 52.401L22.048 49.9472C22.048 49.584 22.3597 49.3094 22.7248 49.3094C22.9741 49.3094 23.17 49.4511 23.2858 49.6194C25.3341 52.9945 27.4091 56.2633 29.2881 59.2221L29.3149 59.2487C31.0247 61.9505 32.601 64.3778 33.7765 66.3621C34.9877 64.3778 36.5283 61.9239 38.2649 59.2221C40.144 56.2633 42.2189 53.0034 44.2672 49.6194C44.4631 49.3094 44.855 49.2031 45.1934 49.398C45.4161 49.522 45.5318 49.7434 45.4962 50.0003ZM44.1782 52.401V52.3213C42.5218 54.9966 40.892 57.5656 39.3781 59.9131C37.3833 63.0933 35.5932 65.8837 34.3554 68.0364C34.3019 68.1161 34.2129 68.2047 34.106 68.2844C33.7943 68.4527 33.3758 68.3375 33.1798 68.0364C31.942 65.8837 30.1787 63.1287 28.1571 59.9751V59.9219C26.6432 57.5744 25.0135 55.0143 23.3571 52.3302V52.4098C23.3571 61.6405 24.5949 69.9853 26.5541 76.0179C28.4866 81.8203 31.0158 85.3903 33.7587 85.3903C36.5105 85.3903 39.0575 81.8203 40.9633 76.0179C42.976 69.9764 44.1782 61.6317 44.1782 52.401Z" fill="#D5D9E3"/>
<path d="M35.1106 68.1504H33.7659V86.5054H35.1106V68.1504Z" fill="#D5D9E3"/>
<path d="M55.481 33.7307C56.8258 36.5212 57.8945 39.5862 58.6247 42.8816C59.3015 46.0618 59.6934 49.4369 59.6934 52.9006C59.6934 62.335 56.9416 70.8924 52.5155 77.0934C48.0539 83.3386 41.8556 87.2187 34.9806 87.2187C28.1055 87.2187 21.9072 83.3386 17.4545 77.0934C13.0195 70.9012 10.2766 62.335 10.2766 52.9006C10.2766 49.4369 10.6685 46.0618 11.3453 42.8816C12.0755 39.5862 13.1442 36.5212 14.4889 33.7307C14.6581 33.3941 15.0767 33.2523 15.3884 33.4206C15.5576 33.5004 15.6644 33.6155 15.7268 33.7573C19.3157 42.102 25.6297 52.0059 30.51 59.704C32.2465 62.4059 33.7961 64.8685 34.9983 66.844C36.2095 64.8331 37.7502 62.4059 39.4867 59.704C44.367 52.0059 50.7077 42.0666 54.2699 33.7573C54.4124 33.4206 54.8042 33.2523 55.1694 33.4206C55.2851 33.4826 55.4009 33.589 55.481 33.7307ZM57.3067 43.1562C56.7189 40.5075 55.8996 37.9917 54.8933 35.653C51.1886 43.7763 45.2753 53.0866 40.6177 60.4038C38.5962 63.584 36.8062 66.3745 35.5683 68.4917C35.5149 68.6068 35.4258 68.6866 35.319 68.7752C35.0073 68.9435 34.5887 68.8283 34.3928 68.5271C33.1549 66.3745 31.3649 63.584 29.3701 60.4038C24.7125 53.0955 18.7636 43.7763 15.0945 35.653C14.0526 38.0005 13.2422 40.5075 12.6811 43.1562C12.0043 46.2567 11.6392 49.5167 11.6392 52.8918C11.6392 62.0427 14.2752 70.3254 18.5409 76.3049C22.7443 82.2225 28.5864 85.8722 34.9806 85.8722C41.3747 85.8722 47.2078 82.2136 51.4201 76.3049C55.6859 70.3343 58.3486 62.0427 58.3486 52.8918C58.3486 49.5255 57.9835 46.2567 57.3067 43.1562Z" fill="#D5D9E3"/>
<path d="M35.1395 0C41.596 0 47.4558 2.59555 51.6859 6.80337C55.8893 11.02 58.5342 16.8224 58.5342 23.2626C58.5342 32.2983 48.0702 48.7043 40.7766 60.1762C38.7551 63.3564 36.9651 66.1469 35.7272 68.2995C35.5313 68.6096 35.1127 68.7158 34.801 68.5475C34.6853 68.4678 34.6051 68.3792 34.5517 68.2995C33.3138 66.1469 31.5238 63.3564 29.529 60.1762C22.2086 48.7132 11.7446 32.3072 11.7446 23.2626C11.7446 16.8136 14.3807 11.0112 18.6197 6.80337C22.8231 2.59555 28.683 0 35.1395 0ZM50.7063 7.7601C46.7255 3.80033 41.2219 1.34652 35.1395 1.34652C29.057 1.34652 23.5534 3.80033 19.5726 7.7601C15.5918 11.7199 13.1161 17.2211 13.1161 23.2714C13.1161 31.9174 23.4376 48.1286 30.651 59.4852C32.3876 62.1871 33.9372 64.6498 35.1395 66.6252C36.3506 64.6409 37.8912 62.1871 39.6278 59.4852C46.8324 48.1286 57.1539 31.9174 57.1539 23.2714C57.1539 17.2122 54.7138 11.7199 50.7063 7.7601Z" fill="#D5D9E3"/>
<path d="M34.5794 8.7002C38.4534 8.7002 41.9532 10.2593 44.4824 12.8017C47.0383 15.3087 48.6056 18.799 48.6056 22.6524C48.6056 26.5059 47.0383 29.9873 44.4824 32.5031C41.9532 35.0455 38.4534 36.6047 34.5794 36.6047C30.7055 36.6047 27.2057 35.0455 24.6765 32.5031C22.1206 29.9873 20.5532 26.5059 20.5532 22.6524C20.5532 18.799 22.1206 15.3175 24.6765 12.8017C27.1967 10.2593 30.7055 8.7002 34.5794 8.7002ZM43.5295 13.7496C41.2586 11.4641 38.0882 10.0644 34.5794 10.0644C31.0707 10.0644 27.9359 11.4641 25.6294 13.7496C23.3318 16.0351 21.9247 19.1622 21.9247 22.6524C21.9247 26.1427 23.3318 29.2964 25.6294 31.5553C27.927 33.8408 31.0707 35.2405 34.5794 35.2405C38.0882 35.2405 41.2586 33.8408 43.5295 31.5553C45.8271 29.2964 47.2342 26.1427 47.2342 22.6524C47.2253 19.1622 45.8271 16.0351 43.5295 13.7496Z" fill="#D5D9E3"/>
<path d="M34.4338 14.4229C34.0687 14.4229 33.7659 14.1128 33.7659 13.7231C33.7659 13.3599 34.0776 13.0498 34.4338 13.0498C37.2925 13.0498 39.875 14.2192 41.7541 16.0617C43.6332 17.9309 44.782 20.4999 44.782 23.3435C44.782 23.7067 44.4703 24.0167 44.1141 24.0167C43.7222 24.0167 43.4373 23.7067 43.4373 23.3435C43.4373 20.8631 42.4309 18.6307 40.8012 17.0096C39.1715 15.3974 36.9273 14.4229 34.4338 14.4229Z" fill="#D5D9E3"/>
</svg>
