<svg width="80" height="80" viewBox="0 0 80 80" fill="none" xmlns="http://www.w3.org/2000/svg">
<path d="M0.715776 11.4912H39.4523C39.8385 11.4912 40.1681 11.8192 40.1681 12.2316C40.1681 12.3159 40.1398 12.4377 40.0833 12.5314C39.5465 13.7684 39.1321 15.0429 38.8402 16.3736C38.5764 17.6669 38.4258 18.9976 38.4258 20.3846C38.4258 28.1159 47.6555 42.5758 54.088 52.7062C55.6043 55.0678 56.9323 57.1576 58.0059 58.9381C59.0702 57.1669 60.4075 55.0678 61.9239 52.7062C64.9753 47.9268 68.6295 42.1728 71.6527 36.6157C71.8317 36.2596 72.2743 36.1471 72.6039 36.3252C72.8394 36.447 72.9901 36.7094 72.9901 36.9437V77.765C72.9901 78.1774 72.6605 78.4773 72.2743 78.4773H0.715776C0.329635 78.4773 0 78.1867 0 77.765V12.2409C0.00941808 11.8192 0.329635 11.4912 0.715776 11.4912ZM38.3881 12.9344H1.43155V77.0435H71.5586V39.6801C68.8273 44.525 65.7476 49.3325 63.1388 53.4653C61.3305 56.2673 59.7577 58.7788 58.6558 60.6624C58.5993 60.7842 58.4768 60.8686 58.3638 60.9623C58.0342 61.1404 57.5915 61.0185 57.3843 60.6999C56.2824 58.8069 54.6814 56.3048 52.8731 53.4653C46.3464 43.1943 37.0036 28.5001 37.0036 20.3752C37.0036 18.9039 37.1543 17.4514 37.4463 16.0644C37.6817 14.9773 38.0019 13.9371 38.3881 12.9344Z" fill="#D5D9E3"/>
<path d="M0 37.5057L38.2091 27.291L38.5953 28.6498L0.357884 38.8645L0 37.5057Z" fill="#D5D9E3"/>
<path d="M72.3239 78.3351L34.4727 48.4875L35.358 47.4004L73.2092 77.2105L72.3239 78.3351Z" fill="#D5D9E3"/>
<path d="M44.6985 38.9756C44.9622 38.7132 45.4425 38.7132 45.7062 39.0038C45.9699 39.2943 45.9417 39.7441 45.678 40.0065L3.85228 79.3847L2.8728 78.3538L44.6985 38.9756Z" fill="#D5D9E3"/>
<path d="M31.3537 23.7676L14.3635 12.7001L15.1358 11.4912L39.8959 27.6379L39.1331 28.8187L31.3537 23.7676Z" fill="#D5D9E3"/>
<path d="M58.3478 0C64.1587 0 69.414 2.36158 73.2095 6.13822C77.005 9.91485 79.3501 15.144 79.3501 20.898C79.3501 29.0136 70.0073 43.7171 63.4806 53.9881C61.6723 56.8182 60.0713 59.3297 58.9694 61.2227C58.7622 61.5507 58.3195 61.6632 57.9899 61.4851C57.8674 61.4008 57.7827 61.3071 57.7262 61.2227C56.6243 59.3297 55.0232 56.8276 53.2149 53.9881V53.9318C46.6599 43.6609 37.3455 29.0229 37.3455 20.9074C37.3455 15.1534 39.6906 9.9242 43.486 6.14757C47.2815 2.36156 52.5651 0 58.3478 0ZM72.2018 7.14092C68.6417 3.62669 63.7443 1.44319 58.3478 1.44319C52.9512 1.44319 48.0538 3.62669 44.522 7.14092C40.962 10.6552 38.7676 15.5283 38.7676 20.898C38.7676 28.6012 47.9596 43.0611 54.4016 53.1915L54.4298 53.2196C55.9462 55.5812 57.2741 57.671 58.3478 59.4515C59.412 57.6803 60.7494 55.5812 62.2657 53.2196C68.6982 43.0986 77.928 28.6293 77.928 20.898C77.928 15.5283 75.7335 10.6552 72.2018 7.14092Z" fill="#D5D9E3"/>
<path d="M58.6027 7.18164C62.1062 7.18164 65.2518 8.59671 67.531 10.8739C69.8196 13.1512 71.2417 16.3093 71.2417 19.7579C71.2417 23.244 69.8196 26.3741 67.531 28.6419C65.2424 30.9191 62.1062 32.3342 58.6027 32.3342C55.0992 32.3342 51.9535 30.9191 49.6743 28.6419C47.3858 26.3741 45.9636 23.244 45.9636 19.7579C45.9636 16.3093 47.3858 13.1418 49.6743 10.8739C51.9629 8.59671 55.0992 7.18164 58.6027 7.18164ZM66.5233 11.8673C64.5078 9.86183 61.6918 8.61545 58.6027 8.61545C55.5135 8.61545 52.6975 9.85246 50.6821 11.8673C48.6666 13.9009 47.3857 16.6748 47.3857 19.7486C47.3857 22.8505 48.6572 25.6244 50.6821 27.6298C52.6975 29.6634 55.5135 30.9098 58.6027 30.9098C61.6918 30.9098 64.5078 29.6728 66.5233 27.6298C68.5388 25.6244 69.8196 22.8505 69.8196 19.7486C69.8196 16.6841 68.5388 13.9102 66.5233 11.8673Z" fill="#D5D9E3"/>
<path d="M58.1704 12.9156C57.7842 12.9156 57.4546 12.6157 57.4546 12.2034C57.4546 11.8192 57.7842 11.4912 58.1704 11.4912C60.7509 11.4912 63.096 12.522 64.7819 14.2089C66.4677 15.9238 67.5131 18.2198 67.5131 20.7875C67.5131 21.1999 67.1835 21.4998 66.7973 21.4998C66.4112 21.4998 66.0815 21.2092 66.0815 20.7875C66.0815 18.6321 65.1868 16.6548 63.7647 15.2397C62.352 13.8059 60.3648 12.9156 58.1704 12.9156Z" fill="#D5D9E3"/>
</svg>
