<svg width="91" height="75" viewBox="0 0 91 75" fill="none" xmlns="http://www.w3.org/2000/svg">
<path d="M63.0269 8.69242L32.8026 15.8836V57.7853L41.4518 55.7307C41.2816 54.9836 41.1114 54.1949 41.0156 53.4063C40.8773 52.3271 40.8135 51.279 40.8135 50.1998C40.8135 43.8596 43.3242 38.0797 47.452 33.7629C51.4096 29.581 56.8991 26.8 63.0376 26.1774V8.69242H63.0269ZM31.8345 14.5034L63.6014 6.9491C63.6652 6.91797 63.7716 6.91797 63.8355 6.91797C64.3036 6.91797 64.644 7.23966 64.644 7.70662V26.8934C64.644 27.3189 64.3461 27.6406 63.9099 27.6821C57.8778 28.1075 52.4841 30.7847 48.6329 34.8421C44.7817 38.8579 42.4306 44.2539 42.4306 50.1998C42.4306 51.2479 42.4944 52.2233 42.6327 53.178C42.771 54.1949 42.9625 55.1392 43.2391 56.1146C43.3349 56.5401 43.0689 56.9655 42.6327 57.0589L32.2813 59.5079C32.1856 59.539 32.1111 59.5701 32.0154 59.5701C31.5792 59.5701 31.2069 59.207 31.2069 58.7815V15.2506C31.1962 14.9289 31.4622 14.6072 31.8345 14.5034Z" fill="#D5D9E3"/>
<path d="M1.0745 6.9491L32.8414 14.5034C33.2137 14.5968 33.4478 14.9289 33.4478 15.2506V58.7815C33.4478 59.207 33.118 59.5701 32.6393 59.5701C32.5754 59.5701 32.469 59.539 32.4052 59.5079L0.6064 51.9535C0.234049 51.8913 0 51.5592 0 51.2064V7.7066C0 7.25002 0.372354 6.91797 0.808536 6.91797C0.904284 6.91797 0.968116 6.91797 1.0745 6.9491ZM31.8307 15.8732L1.60643 8.68203V50.5838L31.8307 57.7749V15.8732Z" fill="#D5D9E3"/>
<path d="M0.636594 6.56077L32.4673 0.0233479C32.6056 -0.00778264 32.7014 -0.00778264 32.7971 0.0233479L64.6278 6.56077C65.064 6.65416 65.3619 7.0796 65.2662 7.50505C65.2023 7.79561 64.9257 8.0239 64.6278 8.09654L32.829 15.682C32.6907 15.7132 32.5631 15.7132 32.4567 15.682L0.594047 8.09654C0.18978 8.00315 -0.0761862 7.5777 0.0195612 7.15225C0.10467 6.85132 0.338713 6.62303 0.636594 6.56077ZM32.6375 1.59025L4.45586 7.37017L32.6375 14.1047L60.8511 7.37017L32.6375 1.59025Z" fill="#D5D9E3"/>
<path d="M7.29089 46.2014C7.29089 46.6579 6.91854 46.99 6.48236 46.99C6.01426 46.99 5.67383 46.6683 5.67383 46.2014V14.6246C5.67383 14.1991 6.01426 13.8359 6.48236 13.8359C6.91854 13.8359 7.29089 14.1991 7.29089 14.6246V46.2014Z" fill="#D5D9E3"/>
<path d="M14.4153 40.2862C14.4153 40.7117 14.043 41.0748 13.6068 41.0748C13.1387 41.0748 12.7664 40.7117 12.7664 40.2862V18.775C12.7664 18.3495 13.1387 17.9863 13.6068 17.9863C14.043 17.9863 14.4153 18.3495 14.4153 18.775V40.2862Z" fill="#D5D9E3"/>
<path d="M65.9239 26.2881C72.7646 26.2881 78.9562 28.9964 83.4457 33.3755C87.9352 37.7545 90.7119 43.8042 90.7119 50.4662C90.7119 57.1696 87.9352 63.2089 83.4457 67.588C78.9562 71.967 72.7539 74.6443 65.9239 74.6443C59.0514 74.6443 52.8597 71.967 48.3702 67.588C43.8808 63.2089 41.136 57.1592 41.136 50.4662C41.136 43.8042 43.8808 37.7545 48.3702 33.3755L48.4022 33.3443C52.8917 28.9964 59.0833 26.2881 65.9239 26.2881ZM82.2436 34.5584C78.0839 30.47 72.2965 27.9276 65.9239 27.9276C59.5195 27.9276 53.764 30.4803 49.5724 34.5273C45.3808 38.6158 42.8062 44.2712 42.8062 50.4765C42.8062 56.7234 45.3914 62.3373 49.5724 66.4258C53.764 70.5143 59.5195 73.0255 65.9239 73.0255C72.2858 73.0255 78.0839 70.5039 82.2436 66.4258C86.4352 62.3373 89.0097 56.713 89.0097 50.4765C89.0097 44.2608 86.4245 38.6054 82.2436 34.5584Z" fill="#D5D9E3"/>
<path d="M49.7391 49.8943C49.537 49.5 49.6753 49.0122 50.0689 48.784C50.4732 48.5557 50.9732 48.6802 51.2072 49.0745L57.6117 59.8872L80.4634 37.5977C80.8038 37.276 81.3358 37.276 81.6656 37.5977C81.9953 37.9194 81.9953 38.4486 81.6656 38.7392L58.0053 61.8173L57.8351 61.9522C57.4308 62.1805 56.9308 62.0456 56.6967 61.6616L49.7391 49.8943Z" fill="#D5D9E3"/>
</svg>
