<svg width="91" height="92" viewBox="0 0 91 92" fill="none" xmlns="http://www.w3.org/2000/svg">
<path d="M86.45 33.925H74.5062V9.775H86.45C86.9025 9.775 87.3365 9.59326 87.6565 9.26976C87.9765 8.94626 88.1562 8.5075 88.1562 8.05C88.1562 7.5925 87.9765 7.15374 87.6565 6.83024C87.3365 6.50674 86.9025 6.325 86.45 6.325H74.2077C73.8551 5.31699 73.2025 4.44411 72.3393 3.82633C71.4762 3.20856 70.445 2.87622 69.3875 2.875H62.5625C61.505 2.87622 60.4738 3.20856 59.6106 3.82633C58.7475 4.44411 58.0949 5.31699 57.7423 6.325H48.9125C37.6032 6.33756 26.7606 10.8851 18.7637 18.9699C10.7668 27.0547 6.26867 38.0164 6.25625 49.45V58.3769C5.2592 58.7333 4.3958 59.3931 3.78474 60.2657C3.17368 61.1383 2.84496 62.1808 2.84375 63.25V70.15C2.84496 71.2192 3.17368 72.2617 3.78474 73.1343C4.3958 74.0069 5.2592 74.6667 6.25625 75.0231V87.4C6.25625 87.8575 6.43602 88.2963 6.756 88.6198C7.07598 88.9433 7.50997 89.125 7.9625 89.125C8.41503 89.125 8.84902 88.9433 9.169 88.6198C9.48898 88.2963 9.66875 87.8575 9.66875 87.4V75.325H33.5562V87.4C33.5562 87.8575 33.736 88.2963 34.056 88.6198C34.376 88.9433 34.81 89.125 35.2625 89.125C35.715 89.125 36.149 88.9433 36.469 88.6198C36.789 88.2963 36.9688 87.8575 36.9688 87.4V75.0231C37.9658 74.6667 38.8292 74.0069 39.4403 73.1343C40.0513 72.2617 40.38 71.2192 40.3812 70.15V63.25C40.38 62.1808 40.0513 61.1383 39.4403 60.2657C38.8292 59.3931 37.9658 58.7333 36.9688 58.3769V49.45C36.9688 46.2475 38.2271 43.1762 40.467 40.9117C42.7069 38.6472 45.7448 37.375 48.9125 37.375H57.7423C58.0949 38.383 58.7475 39.2559 59.6106 39.8737C60.4738 40.4914 61.505 40.8238 62.5625 40.825H69.3875C70.445 40.8238 71.4762 40.4914 72.3393 39.8737C73.2025 39.2559 73.8551 38.383 74.2077 37.375H86.45C86.9025 37.375 87.3365 37.1933 87.6565 36.8698C87.9765 36.5463 88.1562 36.1075 88.1562 35.65C88.1562 35.1925 87.9765 34.7537 87.6565 34.4302C87.3365 34.1067 86.9025 33.925 86.45 33.925ZM36.9688 70.15C36.9688 70.6075 36.789 71.0463 36.469 71.3698C36.149 71.6933 35.715 71.875 35.2625 71.875H7.9625C7.50997 71.875 7.07598 71.6933 6.756 71.3698C6.43602 71.0463 6.25625 70.6075 6.25625 70.15V63.25C6.25625 62.7925 6.43602 62.3537 6.756 62.0302C7.07598 61.7067 7.50997 61.525 7.9625 61.525H35.2625C35.715 61.525 36.149 61.7067 36.469 62.0302C36.789 62.3537 36.9688 62.7925 36.9688 63.25V70.15ZM33.5562 49.45V58.075H9.66875V49.45C9.68004 38.931 13.8183 28.8462 21.1754 21.4081C28.5326 13.9701 38.5079 9.78642 48.9125 9.775H57.4437V33.925H48.9125C44.8398 33.925 40.9338 35.5607 38.054 38.4722C35.1741 41.3837 33.5562 45.3325 33.5562 49.45ZM69.3875 37.375H62.5625C62.11 37.375 61.676 37.1933 61.356 36.8698C61.036 36.5463 60.8562 36.1075 60.8562 35.65V8.05C60.8562 7.5925 61.036 7.15374 61.356 6.83024C61.676 6.50674 62.11 6.325 62.5625 6.325H69.3875C69.84 6.325 70.274 6.50674 70.594 6.83024C70.914 7.15374 71.0938 7.5925 71.0938 8.05V35.65C71.0938 36.1075 70.914 36.5463 70.594 36.8698C70.274 37.1933 69.84 37.375 69.3875 37.375Z" fill="#D5D9E3"/>
</svg>
