<svg width="85" height="91" viewBox="0 0 85 91" fill="none" xmlns="http://www.w3.org/2000/svg">
<path d="M38.1607 89.0004V76.6988L24.8063 73.1475V44.9197L38.1607 49.0568V36.9017L2 26.6504V38.0367L15.4976 41.405V70.3283L2 66.3376V77.7972L38.1607 89.0004Z" stroke="#D5D9E3" stroke-width="3" stroke-miterlimit="10" stroke-linecap="round" stroke-linejoin="round"/>
<path d="M16.4643 60L2 66.4123L16.4643 70.15V60Z" stroke="#D5D9E3" stroke-width="3" stroke-miterlimit="10" stroke-linecap="round" stroke-linejoin="round"/>
<path d="M38.5386 36.8L83 12.8099L46.4614 2L2 26.7443L38.5386 36.8Z" stroke="#D5D9E3" stroke-width="3" stroke-miterlimit="10" stroke-linecap="round" stroke-linejoin="round"/>
<path d="M83.0004 13.5996V24.8734L38.1611 49.8496V37.8146L83.0004 13.5996Z" stroke="#D5D9E3" stroke-width="3" stroke-miterlimit="10" stroke-linecap="round" stroke-linejoin="round"/>
<path d="M71.4283 31V47.6675L25.1426 73.05V45.053L38.7905 49.1563L71.4283 31Z" stroke="#D5D9E3" stroke-width="3" stroke-miterlimit="10" stroke-linecap="round" stroke-linejoin="round"/>
<path d="M38.6137 75.9504L82.9997 51.7576L70.8288 48.4004L25.1426 72.5932L38.6137 75.9504Z" stroke="#D5D9E3" stroke-width="3" stroke-miterlimit="10" stroke-linecap="round" stroke-linejoin="round"/>
<path d="M83.0004 51.2998V64.1215L38.1611 88.9998V76.761L83.0004 51.2998Z" stroke="#D5D9E3" stroke-width="3" stroke-miterlimit="10" stroke-linecap="round" stroke-linejoin="round"/>
</svg>
