<svg width="78" height="79" viewBox="0 0 78 79" fill="none" xmlns="http://www.w3.org/2000/svg">
<path d="M0 0.697829C0 0.309154 0.308664 0 0.670264 0C1.05832 0 1.36701 0.309154 1.36701 0.697829V45.21C1.36701 45.5721 1.05832 45.8813 0.670264 45.8813C0.308664 45.8813 0 45.5721 0 45.21V0.697829ZM0 47.6922C0 47.33 0.308664 47.0208 0.670264 47.0208C1.05832 47.0208 1.36701 47.33 1.36701 47.6922V52.0913C1.36701 52.4534 1.05832 52.7626 0.670264 52.7626C0.308664 52.7626 0 52.4534 0 52.0913V47.6922Z" fill="#D5D9E3"/>
<path d="M8.3999 0.697829C8.3999 0.309154 8.70859 0 9.07019 0C9.45825 0 9.74048 0.309154 9.74048 0.697829V45.21C9.74048 45.5721 9.45825 45.8813 9.07019 45.8813C8.70859 45.8813 8.3999 45.5721 8.3999 45.21V0.697829ZM8.3999 47.6922C8.3999 47.33 8.70859 47.0208 9.07019 47.0208C9.45825 47.0208 9.74048 47.33 9.74048 47.6922V52.0913C9.74048 52.4534 9.45825 52.7626 9.07019 52.7626C8.70859 52.7626 8.3999 52.4534 8.3999 52.0913V47.6922Z" fill="#D5D9E3"/>
<path d="M16.8 0.697829C16.8 0.309154 17.1087 0 17.4703 0C17.8584 0 18.1406 0.309154 18.1406 0.697829V45.21C18.1406 45.5721 17.8584 45.8813 17.4703 45.8813C17.1087 45.8813 16.8 45.5721 16.8 45.21V0.697829ZM16.8 47.6922C16.8 47.33 17.1087 47.0208 17.4703 47.0208C17.8584 47.0208 18.1406 47.33 18.1406 47.6922V52.0913C18.1406 52.4534 17.8584 52.7626 17.4703 52.7626C17.1087 52.7626 16.8 52.4534 16.8 52.0913V47.6922Z" fill="#D5D9E3"/>
<path d="M25.2 0.697829C25.2 0.309154 25.5086 0 25.8702 0C26.2583 0 26.5405 0.309154 26.5405 0.697829V40.3692C26.5405 40.7579 26.2671 41.0406 25.8702 41.0406C25.5086 41.0406 25.2 40.7579 25.2 40.3692V0.697829ZM25.2 47.6922C25.2 47.33 25.5086 47.0208 25.8702 47.0208C26.2583 47.0208 26.5405 47.33 26.5405 47.6922V52.0913C26.5405 52.4534 26.2671 52.7626 25.8702 52.7626C25.5086 52.7626 25.2 52.4534 25.2 52.0913V47.6922Z" fill="#D5D9E3"/>
<path d="M33.6001 0.697829C33.6001 0.309154 33.9088 0 34.2704 0C34.632 0 34.9407 0.309154 34.9407 0.697829V28.656C34.9407 29.0181 34.632 29.3273 34.2704 29.3273C33.9088 29.3273 33.6001 29.0181 33.6001 28.656V0.697829Z" fill="#D5D9E3"/>
<path d="M42 0.697829C42 0.309154 42.3087 0 42.6703 0C43.0319 0 43.3406 0.309154 43.3406 0.697829V26.4653C43.3406 26.8274 43.0319 27.1278 42.6703 27.1278C42.3087 27.1278 42 26.8186 42 26.4653V0.697829Z" fill="#D5D9E3"/>
<path d="M50.3999 0.697829C50.3999 0.309154 50.7086 0 51.0702 0C51.4318 0 51.7405 0.309154 51.7405 0.697829V28.656C51.7405 29.0446 51.4318 29.3273 51.0702 29.3273C50.7086 29.3273 50.3999 29.0446 50.3999 28.656V0.697829Z" fill="#D5D9E3"/>
<path d="M30.4211 31.6138C33.8695 28.1952 38.3939 26.4639 42.9183 26.4639C47.4427 26.4639 51.9759 28.1864 55.442 31.6668C58.8904 35.1207 60.6367 39.6788 60.6367 44.2192C60.6367 48.7508 58.8904 53.2913 55.442 56.7628L55.3891 56.7893C51.9407 60.2432 47.4162 61.9658 42.9183 61.9658C38.3674 61.9658 33.8343 60.2433 30.3947 56.7628C26.9198 53.2824 25.2 48.7508 25.2 44.2192C25.2 39.6876 26.9197 35.1207 30.3682 31.6668L30.4211 31.6138ZM42.9271 27.7977C38.729 27.7977 34.5663 29.3877 31.3736 32.559L31.3471 32.612C28.128 35.8097 26.5405 40.0145 26.5405 44.2104C26.5405 48.4151 28.1192 52.6111 31.3471 55.8088C34.5398 59.0065 38.7379 60.6231 42.9271 60.6231C47.0899 60.6231 51.288 59.0066 54.4807 55.8353L54.5071 55.8088C57.6998 52.6111 59.2873 48.4063 59.2873 44.2104C59.2873 40.0056 57.7086 35.8097 54.5071 32.612C51.3145 29.4142 47.1164 27.7977 42.9271 27.7977Z" fill="#D5D9E3"/>
<path d="M56.4303 53.1353L62.7362 59.4513C62.9832 59.6986 62.9832 60.1138 62.7362 60.3965C62.5687 60.5378 62.3482 60.6173 62.1542 60.5643C61.9866 60.5643 61.8455 60.5643 61.6779 60.5908C61.0958 60.6438 60.5666 60.9 60.1521 61.2887C59.7641 61.7038 59.4818 62.2338 59.4289 62.8168C59.4289 62.9847 59.4289 63.1525 59.4289 63.3469C59.4818 63.7091 59.2085 64.0447 58.8469 64.0712C58.6264 64.0977 58.4323 64.0182 58.2912 63.8769L51.9853 57.5609C51.7383 57.3136 51.7383 56.8631 51.9853 56.6157L52.0999 56.5362C52.7085 56.0592 53.3258 55.5645 53.8726 55.008C54.4283 54.4515 54.9575 53.842 55.4249 53.1972C55.6454 52.9145 56.0599 52.835 56.3421 53.0558L56.4303 53.1353ZM60.7872 59.3983L56.0069 54.6105C55.6189 55.0787 55.2309 55.5292 54.8163 55.9444C54.4018 56.3596 53.952 56.7835 53.4846 57.1369L58.2647 61.9247C58.4588 61.3417 58.7939 60.7851 59.2084 60.3346C59.6494 59.9283 60.2051 59.5926 60.7872 59.3983Z" fill="#D5D9E3"/>
<path d="M59.9201 61.0321C60.6697 60.2548 61.6664 59.8926 62.6453 59.8926C63.6419 59.8926 64.6474 60.2548 65.397 61.0056L76.2538 71.915C77.0035 72.6659 77.3915 73.6641 77.3915 74.6446C77.3915 75.6428 77.0035 76.6233 76.2538 77.3742C75.5042 78.125 74.534 78.5137 73.5286 78.5137C72.5584 78.5137 71.553 78.125 70.8034 77.3742L59.9113 66.5001C59.1616 65.7492 58.8 64.751 58.8 63.7705C58.8089 62.7547 59.1704 61.783 59.9201 61.0321ZM62.6365 61.2264C62.0015 61.2264 61.3577 61.4738 60.855 61.9773C60.3787 62.4543 60.1317 63.0903 60.1317 63.7617C60.1317 64.3977 60.3787 65.0425 60.855 65.5461L71.7471 76.4201C72.2498 76.9236 72.8847 77.1709 73.5286 77.1709C74.1636 77.1709 74.8339 76.9236 75.3013 76.4201C75.804 75.9431 76.051 75.3071 76.051 74.6357C76.051 73.9997 75.804 73.3549 75.3013 72.8514L64.4092 61.9685C63.9418 61.4738 63.3068 61.2264 62.6365 61.2264Z" fill="#D5D9E3"/>
<path d="M33.6001 34.1001C33.6001 33.7379 33.9088 33.4287 34.2704 33.4287C34.632 33.4287 34.9319 33.7379 34.9319 34.1001V52.8801C34.9319 53.2688 34.6232 53.5514 34.2704 53.5514C33.9088 53.5514 33.6001 53.2688 33.6001 52.8801V34.1001Z" fill="#D5D9E3"/>
<path d="M42 34.1001C42 33.7379 42.3087 33.4287 42.6967 33.4287C43.0583 33.4287 43.367 33.7379 43.367 34.1001V52.8801C43.367 53.2688 43.0583 53.5514 42.6967 53.5514C42.3087 53.5514 42 53.2688 42 52.8801V34.1001Z" fill="#D5D9E3"/>
<path d="M50.3999 34.1001C50.3999 33.7379 50.7086 33.4287 51.0702 33.4287C51.4583 33.4287 51.7404 33.7379 51.7404 34.1001V52.8801C51.7404 53.2688 51.4583 53.5514 51.0702 53.5514C50.7086 53.5514 50.3999 53.2688 50.3999 52.8801V34.1001Z" fill="#D5D9E3"/>
</svg>
