<svg width="36" height="55" viewBox="0 0 36 55" fill="none" xmlns="http://www.w3.org/2000/svg">
<path d="M34.3002 14.8643H1.59033C1.08912 14.8643 0.695312 15.2565 0.695312 15.7295V43.3381C0.695312 43.8227 1.10105 44.2034 1.59033 44.2034H34.3002C34.8014 44.2034 35.1952 43.8111 35.1952 43.3381V15.7295C35.1952 15.2565 34.7895 14.8643 34.3002 14.8643ZM33.3932 16.6064V42.4728H2.48535V16.6064H33.3932Z" fill="#D0DFD6"/>
<path d="M1.57208 12.7256H33.7211C34.0314 12.7256 34.3178 12.5756 34.4849 12.3217C34.6519 12.0679 34.6638 11.7564 34.5326 11.4795C33.6376 9.69126 31.036 8.16835 27.1934 7.18769V0.865292C27.1934 0.380728 26.7877 0 26.2984 0H9.01861C8.5174 0 8.12359 0.392266 8.12359 0.865292V7.18769C4.28099 8.16835 1.67944 9.69126 0.784423 11.4795C0.653154 11.7564 0.665134 12.0679 0.832204 12.3217C0.975407 12.564 1.26181 12.7256 1.57208 12.7256ZM9.90168 6.92233V1.71903H16.7396V6.92233H9.90168ZM18.5416 6.92233V1.71903H25.3796V6.92233H18.5416ZM3.5292 10.9834C4.78223 10.0489 6.85862 9.21824 9.30501 8.66445L25.9165 8.65292C28.4226 9.21824 30.499 10.0374 31.752 10.9719H3.5292V10.9834Z" fill="#D0DFD6"/>
<path d="M33.7449 45.7354H1.59593C1.28565 45.7354 0.999232 45.8853 0.832162 46.1392C0.665092 46.393 0.653185 46.7045 0.784454 46.9814C1.4766 48.3658 3.20698 49.6003 5.79657 50.5579V54.1344C5.79657 54.619 6.20231 54.9997 6.69158 54.9997H28.6254C29.1266 54.9997 29.5204 54.6075 29.5204 54.1344V50.5579C32.11 49.6119 33.8404 48.3774 34.5325 46.9814C34.6638 46.716 34.6519 46.393 34.4848 46.1392C34.3416 45.8853 34.0552 45.7354 33.7449 45.7354ZM27.7423 50.8694V53.2576H23.3269V50.8694H27.7423ZM21.525 50.8694V53.2576H14.0903V50.8694H21.525ZM12.2884 50.8694V53.2576H7.59847V50.8694H12.2884ZM7.01374 49.1388C5.55784 48.6543 4.37647 48.089 3.55305 47.4775H31.7878C30.9644 48.089 29.783 48.6543 28.3271 49.1388H7.01374Z" fill="#D0DFD6"/>
</svg>
