<svg width="88" height="87" viewBox="0 0 88 87" fill="none" xmlns="http://www.w3.org/2000/svg">
<path d="M0.314019 85.9756C0.712139 86.6252 1.38397 87 2.13044 87H85.8352H85.8601C87.0545 87 88 86.0256 88 84.8512C88 84.3765 87.8507 83.9518 87.6019 83.602L45.8988 1.17433C45.5255 0.449745 44.804 0 43.9828 0C43.1866 0 42.4401 0.449745 42.0669 1.17433L0.214496 83.8768C-0.108977 84.5264 -0.0592189 85.326 0.314019 85.9756ZM43.9828 6.89604L82.3268 82.6775H5.63888L43.9828 6.89604ZM44.58 29.558C43.2115 28.1838 42.0171 26.9845 41.2458 26.0351C40.7979 25.4854 40.0763 25.3105 39.4293 25.5603C38.7824 25.8352 38.3843 26.4848 38.4589 27.1844L38.5833 28.4337C38.9566 31.9566 39.4293 36.3541 38.8321 38.7277C37.9364 42.3756 35.5725 44.9991 33.0843 47.7726C31.0937 49.9963 29.0284 52.295 27.635 55.2183C22.3102 66.4618 31.6909 73.2579 37.9115 77.7553C38.1852 77.9552 38.5087 78.0552 38.8321 78.0552H51.8208C52.5175 78.0552 53.1396 77.5804 53.3386 76.9058C53.7865 75.3317 54.4833 73.8076 55.18 72.3834C65.7799 50.7708 51.995 36.9538 44.58 29.558ZM47.2673 74.0075H41.9176C37.9613 69.4851 36.9411 65.7372 38.7077 62.1893C39.3796 60.8151 40.35 59.7157 41.3702 58.5663C42.8382 56.8923 44.3809 55.1683 45.1772 52.4698C45.4509 51.5454 45.6002 50.3211 45.6749 49.0218C49.2828 53.1944 53.7617 59.4908 48.4368 71.2341C48.1133 71.8837 47.6406 73.033 47.2673 74.0075ZM52.3682 70.9842C51.7711 72.2085 51.1739 73.5078 50.6762 74.907H50.2781C50.6016 74.0574 50.9997 73.133 51.2485 72.5583C57.7926 58.0666 50.925 50.2711 47.2176 46.0735C46.496 45.249 45.8739 44.5244 45.4758 43.9497C45.1025 43.3751 44.381 43.1002 43.734 43.3001C43.0622 43.5 42.6143 44.0997 42.6143 44.7993V45.5988C42.5894 47.6726 42.5645 50.2461 42.1664 51.5704C41.5692 53.5942 40.3251 54.9934 39.0063 56.4925C37.8866 57.7418 36.742 59.0411 35.8711 60.7901C33.9054 64.7628 34.4777 69.0603 37.6129 73.6077C31.1435 68.6855 26.9632 63.9633 30.4716 56.5675C31.666 54.044 33.4824 52.0201 35.4232 49.8963C38.0608 46.948 40.7979 43.8998 41.8927 39.5023C42.4152 37.4035 42.3157 34.4552 42.042 31.5069C42.1415 31.6068 42.2411 31.7068 42.3655 31.8317C49.7058 39.1275 61.9729 51.3955 52.3682 70.9842ZM54.0105 80.054C54.0105 80.9285 53.3138 81.6281 52.4429 81.6281H38.4092C37.5383 81.6281 36.8416 80.9285 36.8416 80.054C36.8416 79.1795 37.5383 78.4799 38.4092 78.4799H52.4429C53.3138 78.4799 54.0105 79.1795 54.0105 80.054Z" fill="#D5D9E3"/>
</svg>
