<svg width="49" height="71" viewBox="0 0 49 71" fill="none" xmlns="http://www.w3.org/2000/svg">
<path d="M16.7193 12.6722V10.705C16.7193 9.87196 16.0318 9.18072 15.1632 9.18072H8.17873C7.32829 9.18072 6.6226 9.85423 6.6226 10.705V12.6722C2.49705 14.1256 0 17.4044 0 21.4453V69.4758C0 70.3088 0.687593 71 1.55613 71H21.7858C22.6363 71 23.3419 70.3265 23.3419 69.4758V21.4453C23.3419 17.4044 20.8268 14.1256 16.7193 12.6722ZM8.57681 15.2599C9.2644 15.0827 9.73486 14.48 9.73486 13.7888V12.2291H13.6071V13.7888C13.6071 14.48 14.0775 15.0827 14.7651 15.2599C18.185 16.1283 20.2297 18.4501 20.2297 21.4453V62.5991H3.11226V21.4453C3.11226 18.4501 5.15694 16.1283 8.57681 15.2599ZM13.6071 65.6475V67.9516H9.97009V65.6475H13.6071ZM3.11226 65.6475H6.87593V67.9516H3.11226V65.6475ZM16.7193 67.9516V65.6475H20.2297V67.9516H16.7193ZM8.17873 8.47179H14.9099C15.3261 8.47179 15.7242 8.31232 16.0137 8.01102C16.3032 7.72744 16.466 7.3375 16.466 6.92986C16.3937 0.903901 13.3538 0 11.5443 0C9.73486 0 6.69498 0.903901 6.6226 6.92986C6.6226 7.3375 6.78545 7.72744 7.07496 8.01102C7.36448 8.31232 7.76256 8.47179 8.17873 8.47179ZM11.5443 3.04843C11.9062 3.04843 12.9195 3.04842 13.2452 5.42336H9.84343C10.1691 3.04842 11.1824 3.04843 11.5443 3.04843ZM42.3774 12.6722V10.705C42.3774 9.87196 41.6898 9.18072 40.8213 9.18072H33.8368C32.9863 9.18072 32.2807 9.85423 32.2807 10.705V12.6722C28.1551 14.1256 25.6581 17.4044 25.6581 21.4453V69.4758C25.6581 70.3088 26.3456 71 27.2142 71H47.4439C48.2943 71 49 70.3265 49 69.4758V21.4453C49 17.4044 46.4849 14.1256 42.3774 12.6722ZM34.2168 15.2599C34.9044 15.0827 35.3748 14.48 35.3748 13.7888V12.2291H39.247V13.7888C39.247 14.48 39.7175 15.0827 40.4051 15.2599C43.825 16.1283 45.8696 18.4501 45.8696 21.4453V62.5991H28.7522V21.4453C28.7522 18.4501 30.7969 16.1283 34.2168 15.2599ZM39.247 65.6475V67.9516H35.61V65.6475H39.247ZM28.7522 65.6475H32.5159V67.9516H28.7522V65.6475ZM42.3593 67.9516V65.6475H45.8696V67.9516H42.3593ZM33.8368 8.47179H40.5679C40.9841 8.47179 41.3822 8.31232 41.6717 8.01102C41.9612 7.72744 42.1241 7.3375 42.1241 6.92986C42.0517 0.903901 39.0118 0 37.2024 0C35.3929 0 32.353 0.903901 32.2807 6.92986C32.2807 7.3375 32.4435 7.72744 32.733 8.01102C33.0225 8.31232 33.4206 8.47179 33.8368 8.47179ZM37.2024 3.04843C37.5643 3.04843 38.5776 3.04842 38.9033 5.42336H35.5015C35.8272 3.04842 36.8405 3.04843 37.2024 3.04843Z" fill="#D0DFD6"/>
</svg>
