<svg width="85" height="87" viewBox="0 0 85 87" fill="none" xmlns="http://www.w3.org/2000/svg">
<path d="M82.7496 65.0378C84.0503 64.5961 84.9793 63.3916 84.9793 61.9863C84.9793 60.561 84.0503 59.3765 82.7496 58.9148V36.9726H82.7289C82.6876 34.8246 82.4605 32.4958 81.965 30.0266C81.8411 29.3239 81.676 28.6012 81.4902 27.8785C80.8501 25.2286 79.921 22.4984 78.6823 19.7481C78.3726 19.0655 78.0629 18.4231 77.7326 17.7807C76.4525 15.2713 74.9866 12.9626 73.4382 10.8949C73.0046 10.3127 72.5504 9.73055 72.0755 9.18852C66.5837 2.52354 60.4518 -0.969557 57.6233 0.234956L57.7265 0.957665L59.9563 17.9212L60.2866 20.4106V20.4708L12.6561 40.8471L12.078 44.6414L14.1426 46.0065L16.2072 76.2196C16.2691 77.0829 17.0124 77.7454 17.8795 77.7454C17.9208 77.7454 17.9621 77.7454 18.0034 77.7454C18.9325 77.6851 19.6344 76.9022 19.5725 76.0189L17.5079 45.9261L36.9978 37.5949V41.3289H37.2249L36.7088 43.8785L35.0777 51.6677L34.2725 55.5221L34.2519 55.6024L33.7151 58.172L30.4117 74.0515L29.8749 76.6011L28.5949 82.6638H24.3417L22.3804 67.4468H21.2035L21.7816 75.8984C21.9262 77.9662 20.2951 79.7729 18.1686 79.9135C18.0653 79.9135 17.9828 79.9135 17.9002 79.9135C15.8562 79.9135 14.1632 78.3677 14.0393 76.3803L13.42 67.4267H8.96041L6.99903 82.6437H0V87H27.6864H29.9575H52.9572H55.249H85V82.6437H82.7702V65.0378H82.7496ZM69.5154 11.9388C69.949 12.4407 70.3413 12.9426 70.7129 13.4244C71.5387 14.5285 72.282 15.6929 73.0046 16.8773C73.0872 16.9777 73.1491 17.0781 73.2111 17.1985C73.2111 17.1985 73.2111 17.2186 73.2317 17.2186C73.2317 17.2186 73.2317 17.1985 73.2111 17.1985C73.2111 17.2186 73.2317 17.2186 73.2317 17.2387C73.6653 17.9614 74.0988 18.6841 74.4911 19.4469C74.7595 19.989 75.0486 20.5711 75.317 21.1734C75.3583 21.2738 75.3996 21.3742 75.4408 21.4745C75.606 21.6954 75.6886 21.9563 75.7299 22.2173C76.308 23.6025 76.8035 24.9877 77.2164 26.393C77.2784 26.5335 77.3196 26.674 77.3403 26.8346C77.4848 27.3164 77.65 27.7982 77.7532 28.28C77.939 28.9626 78.0629 29.5448 78.1661 30.1069C78.2694 30.5686 78.3107 31.0303 78.3726 31.492C78.4139 31.6326 78.4345 31.753 78.4345 31.8936C78.4345 31.8936 78.4345 31.8936 78.4345 31.9136C78.7029 33.7405 78.8887 35.5272 78.8475 37.1934C78.8268 38.7392 78.6823 39.9638 78.4758 40.9274L69.9283 29.4845L68.4831 27.5774L64.23 21.8961L62.0622 5.31398C63.941 6.37797 66.6043 8.40557 69.5154 11.9388ZM17.3427 43.6175L17.3221 43.3966C17.2601 42.5936 16.6201 41.9713 15.8356 41.891L60.4931 22.7794L60.6376 23.0806L61.4015 24.7669L17.3427 43.6175ZM41.4574 45.4443L39.1037 43.1557L39.4753 41.3289H43.4188L43.7904 43.1557L41.4574 45.4443ZM44.3478 45.7254L44.9878 48.8772L43.0471 46.9901L44.3478 45.7254ZM39.8676 46.9701L37.9269 48.8571L38.5669 45.7053L39.8676 46.9701ZM37.1217 52.7116L41.4574 48.4958L45.793 52.7116L46.1234 54.3577H36.7707L37.1217 52.7116ZM36.1513 57.4493L36.3371 56.566H46.6189L46.8047 57.4493L41.478 62.6287L36.1513 57.4493ZM43.0471 64.1545L47.3209 59.9989L49.4887 70.4179L43.0471 64.1545ZM47.7131 71.7629H35.2429L41.478 65.7002L47.7131 71.7629ZM35.6145 59.9989L39.8883 64.1545L33.4467 70.4179L35.6145 59.9989ZM30.8866 82.6437L31.7537 78.4279L32.2492 76.1193H50.6862L51.1817 78.4279L52.0488 82.6437H30.8866ZM80.5198 58.9148C79.2191 59.3565 78.29 60.561 78.29 61.9863C78.29 63.4116 79.2191 64.5961 80.5198 65.0378V82.6437H54.3405L53.0605 76.581L52.5237 74.0314L49.2203 58.1519L48.6835 55.5823L48.6629 55.502L47.8577 51.6476L46.2266 43.8584L45.7105 41.3089H45.9376V36.9525L42.9852 34.9851L63.1151 26.3729L65.6752 29.7857L67.2031 31.7932L78.8268 47.3716L79.2604 47.9738C79.7146 47.7731 80.1275 47.4318 80.5198 46.9701V58.9148ZM76.6796 33.6401C77.0513 33.6401 77.3816 33.5397 77.65 33.3591C77.3816 33.5197 77.0513 33.6401 76.6796 33.6401Z" fill="#D0DFD6"/>
</svg>
