<svg width="91" height="63" viewBox="0 0 91 63" fill="none" xmlns="http://www.w3.org/2000/svg">
<path d="M1.70197 63C2.65242 63 3.40393 62.2228 3.40393 61.2901V38.1287C3.40393 27.736 10.035 19.2975 18.1912 19.2975H30.6796V27.2919H18.1912C14.2125 27.2919 10.9854 31.1336 10.9854 35.8414V61.2901C10.9854 62.245 11.7369 63 12.6874 63C13.6378 63 14.3894 62.2228 14.3894 61.2901V35.8414C14.3894 33.0656 16.1355 30.7117 18.1912 30.7117H30.6796V32.1551C30.6796 33.11 31.4311 33.865 32.3816 33.865H58.6184C59.5689 33.865 60.3204 33.0878 60.3204 32.1551V30.7117H72.8088C74.8645 30.7117 76.6106 33.0656 76.6106 35.8414V61.2901C76.6106 62.245 77.3622 63 78.3126 63C79.2631 63 80.0146 62.2228 80.0146 61.2901V35.8414C80.0146 31.1336 76.7875 27.2919 72.8088 27.2919H60.3204V19.2975H72.8088C80.965 19.2975 87.5961 27.7582 87.5961 38.1287V61.2901C87.5961 62.245 88.3476 63 89.298 63C90.2485 63 91 62.2228 91 61.2901V38.1287C91 25.8484 82.8438 15.8777 72.8088 15.8777H60.3204V14.4343C60.3204 13.4794 59.5689 12.7243 58.6184 12.7243H47.213V9.10469H54.264C55.2145 9.10469 55.966 8.34966 55.966 7.39478V1.7099C55.966 0.755016 55.2145 0 54.264 0H36.7581C35.8076 0 35.0561 0.755016 35.0561 1.7099V7.39478C35.0561 8.34966 35.8076 9.10469 36.7581 9.10469H43.8091V12.7243H32.3816C31.4311 12.7243 30.6796 13.4794 30.6796 14.4343V15.8777H18.1912C8.15618 15.8777 0 25.8706 0 38.1287V61.2901C0 62.2228 0.773621 63 1.70197 63ZM38.46 3.3976H52.5621V5.66267H38.46V3.3976ZM34.0836 16.122H56.9164V17.5654V28.9795V30.423H34.0836V28.9795V17.5654V16.122Z" fill="#D5D9E3"/>
</svg>
