<svg width="92" height="80" viewBox="0 0 92 80" fill="none" xmlns="http://www.w3.org/2000/svg">
<path d="M91.0247 79.8073H1.78881C1.27998 79.8073 0.855957 79.3833 0.855957 78.8745V74.6342C0.855957 74.1254 1.27998 73.7013 1.78881 73.7013H5.1174V49.1291C5.1174 48.6203 5.54143 48.1963 6.05026 48.1963H8.17038C8.42479 48.1963 8.658 48.3023 8.82761 48.4719L13.6191 53.2634V49.1291C13.6191 48.6203 14.0431 48.1963 14.5519 48.1963H16.6721C16.9265 48.1963 17.1597 48.3023 17.3293 48.4719L23.4353 54.5778H37.9157C38.4245 54.5778 38.8485 55.0019 38.8485 55.5107V73.7013H49.746V21.5252C49.746 17.4333 56.6788 14.2319 65.5409 14.2319C73.7245 14.2319 80.2545 16.9669 81.2298 20.6135H86.8057C87.3145 20.6135 87.7385 21.0375 87.7385 21.5463V73.7013H91.0671C91.5759 73.7013 92 74.1254 92 74.6342V78.8745C91.9364 79.3833 91.5335 79.8073 91.0247 79.8073ZM2.72166 77.9416H90.0919V75.5458H86.7633C86.2544 75.5458 85.8304 75.1218 85.8304 74.613V22.4368H80.3817C79.8729 22.4368 79.4489 22.0128 79.4489 21.504C79.4489 18.9386 73.7245 16.0552 65.4985 16.0552C57.2724 16.0552 51.5481 18.9174 51.5481 21.504V74.613C51.5481 75.1218 51.124 75.5458 50.6152 75.5458H37.8733C37.3644 75.5458 36.9404 75.1218 36.9404 74.613V56.4224H22.99C22.7356 56.4224 22.5024 56.3164 22.3328 56.1467L16.2268 50.0408H15.4212V55.4895C15.4212 55.8711 15.188 56.2103 14.8488 56.3375C14.5095 56.486 14.1067 56.4012 13.8311 56.1467L7.72515 50.0408H6.91951V74.613C6.91951 75.1218 6.49548 75.5458 5.98665 75.5458H2.65806V77.9416H2.72166Z" fill="#D5D9E3"/>
<path d="M16.0774 74.1016H9.6958C9.18697 74.1016 8.76294 73.6775 8.76294 73.1687V68.9285C8.76294 68.4196 9.18697 67.9956 9.6958 67.9956H16.0774C16.5862 67.9956 17.0102 68.4196 17.0102 68.9285V73.1687C16.989 73.6775 16.5862 74.1016 16.0774 74.1016ZM10.6286 72.2358H15.1445V69.8401H10.6286V72.2358Z" fill="#D5D9E3"/>
<path d="M16.0774 66.1938H9.6958C9.18697 66.1938 8.76294 65.7698 8.76294 65.261V61.0207C8.76294 60.5119 9.18697 60.0879 9.6958 60.0879H16.0774C16.5862 60.0879 17.0102 60.5119 17.0102 61.0207V65.261C16.989 65.7698 16.5862 66.1938 16.0774 66.1938ZM10.6286 64.3281H15.1445V61.9324H10.6286V64.3281Z" fill="#D5D9E3"/>
<path d="M27.1452 74.1016H20.7637C20.2548 74.1016 19.8308 73.6775 19.8308 73.1687V68.9285C19.8308 68.4196 20.2548 67.9956 20.7637 67.9956H27.1452C27.6541 67.9956 28.0781 68.4196 28.0781 68.9285V73.1687C28.0569 73.6775 27.6541 74.1016 27.1452 74.1016ZM21.6965 72.2358H26.2124V69.8401H21.6965V72.2358Z" fill="#D5D9E3"/>
<path d="M27.1452 66.1938H20.7637C20.2548 66.1938 19.8308 65.7698 19.8308 65.261V61.0207C19.8308 60.5119 20.2548 60.0879 20.7637 60.0879H27.1452C27.6541 60.0879 28.0781 60.5119 28.0781 61.0207V65.261C28.0569 65.7698 27.6541 66.1938 27.1452 66.1938ZM21.6965 64.3281H26.2124V61.9324H21.6965V64.3281Z" fill="#D5D9E3"/>
<path d="M84.3722 71.3909V74.9951H79.9199V71.1577H84.3722V71.3909Z" fill="#D5D9E3"/>
<path d="M84.3722 64.8335H79.9199V68.4377H84.3722V64.8335Z" fill="#D5D9E3"/>
<path d="M84.3722 58.5068H79.9199V62.323H84.3722V58.5068Z" fill="#D5D9E3"/>
<path d="M84.3722 53.7632H79.9199V57.5794H84.3722V53.7632Z" fill="#D5D9E3"/>
<path d="M84.3722 47.439H79.9199V51.2552H84.3722V47.439Z" fill="#D5D9E3"/>
<path d="M84.3722 42.6938H79.9199V46.5101H84.3722V42.6938Z" fill="#D5D9E3"/>
<path d="M84.3722 36.3687H79.9199V40.1849H84.3722V36.3687Z" fill="#D5D9E3"/>
<path d="M84.3722 30.0449H79.9199V33.8611H84.3722V30.0449Z" fill="#D5D9E3"/>
<path d="M84.3722 25.3013H79.9199V29.1175H84.3722V25.3013Z" fill="#D5D9E3"/>
<path d="M36.4771 55.0171H24.6893C24.4348 55.0171 24.2016 54.9112 24.032 54.7416L23.2688 53.9783C23.078 53.7875 22.9932 53.5543 22.9932 53.2787L25.0073 0.890447C25.0285 0.381618 25.4313 0 25.9401 0H34.4418C34.9506 0 35.3535 0.402819 35.3747 0.890447L37.41 54.0207C37.41 54.2751 37.3252 54.5083 37.1556 54.6991C36.9648 54.9112 36.7104 55.0171 36.4771 55.0171ZM25.0497 53.1515H35.5019L33.5302 1.86572H26.8094L24.8377 52.9394L25.0497 53.1515Z" fill="#D5D9E3"/>
<path d="M32.2447 14.7133H26.9232C26.7112 14.7133 26.5204 14.6285 26.372 14.4801C26.2236 14.3317 26.1388 14.1197 26.16 13.9077L26.372 8.67096C26.372 8.24694 26.7112 7.90771 27.1352 7.90771H32.0539C32.4779 7.90771 32.8171 8.24694 32.8171 8.67096L33.0292 13.9077C33.0292 14.1197 32.9655 14.3317 32.8171 14.4801C32.6687 14.6285 32.4567 14.7133 32.2447 14.7133ZM27.7288 13.1868H31.4603L31.3119 9.47662H27.8985L27.7288 13.1868Z" fill="#D5D9E3"/>
<path d="M33.2836 27.341H26.9232C26.7112 27.341 26.5204 27.2562 26.372 27.1078C26.2236 26.9594 26.1388 26.7474 26.16 26.5354L26.372 21.3199C26.372 20.8959 26.7112 20.5566 27.1352 20.5566H33.0504C33.4744 20.5566 33.8136 20.8959 33.8136 21.3199L34.0256 26.5354C34.0256 26.7474 33.962 26.9594 33.8136 27.1078C33.6864 27.235 33.4956 27.341 33.2836 27.341ZM27.7288 25.7933H32.4779L32.3295 22.0831H27.8985L27.7288 25.7933Z" fill="#D5D9E3"/>
<path d="M34.2376 41.6154H26.9232C26.7112 41.6154 26.5204 41.5306 26.372 41.3822C26.2236 41.2337 26.1388 41.0218 26.16 40.8097L26.3508 35.5306C26.372 35.1066 26.7112 34.7886 27.114 34.7886H34.0468C34.4708 34.7886 34.8101 35.1278 34.8101 35.5306L35.0009 40.8097C35.0009 41.0218 34.9373 41.2337 34.7889 41.3822C34.6616 41.5306 34.4496 41.6154 34.2376 41.6154ZM27.7289 40.0677H33.4532L33.3048 36.3363H27.8773L27.7289 40.0677Z" fill="#D5D9E3"/>
<path d="M44.0012 73.3342H39.7609C39.2521 73.3342 38.8069 72.9101 38.8069 72.4013V68.1611C38.8069 67.6522 39.2309 67.2282 39.7397 67.2282C40.4394 67.2282 40.9694 66.6982 40.9694 66.0409V29.9353C40.9694 28.2604 42.3475 26.8823 44.0224 26.8823H48.2626C48.7715 26.8823 49.2167 27.3063 49.2167 27.8152V32.0554C49.2167 32.5642 48.7927 32.9883 48.2838 32.9883C47.6054 32.9883 47.0542 33.5183 47.0542 34.1755V70.2812C47.0542 71.9561 45.6973 73.3342 44.0012 73.3342ZM40.6514 71.4685H44.0012C44.6584 71.4685 45.1885 70.9384 45.1885 70.2812V34.1755C45.1885 32.7974 46.1001 31.6526 47.351 31.2498V28.7268H44.0012C43.3439 28.7268 42.8139 29.2568 42.8139 29.9141V66.0197C42.8139 67.3978 41.9023 68.5427 40.6514 68.9455V71.4685Z" fill="#D5D9E3"/>
</svg>
