<svg width="79" height="79" viewBox="0 0 79 79" fill="none" xmlns="http://www.w3.org/2000/svg">
<path d="M9.49959 62.004C4.62071 55.517 1.98787 47.6172 1.99955 39.5002C1.99955 18.7888 18.7884 2 39.4997 2C60.2111 2 76.9999 18.7888 76.9999 39.5002C76.9999 47.9452 74.2099 55.7378 69.4999 62.004" stroke="#D0DFD6" stroke-width="4" stroke-linecap="round" stroke-linejoin="round"/>
<path d="M22.7303 54.5008C19.8345 51.2634 17.9376 47.257 17.2687 42.9653C16.5998 38.6736 17.1873 34.28 18.9605 30.3148C20.7337 26.3497 23.6167 22.9826 27.2614 20.6199C30.9061 18.2572 35.1568 17 39.5004 17C43.8439 17 48.0946 18.2572 51.7393 20.6199C55.3841 22.9826 58.267 26.3497 60.0402 30.3148C61.8134 34.28 62.401 38.6736 61.7321 42.9653C61.0631 47.257 59.1663 51.2634 56.2705 54.5008M39.5004 39.5007V77.0009M28.2503 77.0009H50.7504" stroke="#D0DFD6" stroke-width="4" stroke-linecap="round" stroke-linejoin="round"/>
</svg>
