<svg width="87" height="55" viewBox="0 0 87 55" fill="none" xmlns="http://www.w3.org/2000/svg">
<path d="M78.8438 16.875C76.6806 16.875 74.606 17.7343 73.0764 19.2639C71.5468 20.7935 70.6875 22.8681 70.6875 25.0312H59.8125C59.8125 22.8681 58.9532 20.7935 57.4236 19.2639C55.894 17.7343 53.8194 16.875 51.6562 16.875H35.3438C33.1806 16.875 31.106 17.7343 29.5764 19.2639C28.0468 20.7935 27.1875 22.8681 27.1875 25.0312H16.3125C16.3125 22.8681 15.4532 20.7935 13.9236 19.2639C12.394 17.7343 10.3194 16.875 8.15625 16.875H0V54.9375H8.15625C10.3194 54.9375 12.394 54.0782 13.9236 52.5486C15.4532 51.019 16.3125 48.9444 16.3125 46.7812H27.1875C27.1875 48.9444 28.0468 51.019 29.5764 52.5486C31.106 54.0782 33.1806 54.9375 35.3438 54.9375H51.6562C53.8194 54.9375 55.894 54.0782 57.4236 52.5486C58.9532 51.019 59.8125 48.9444 59.8125 46.7812H70.6875C70.6875 48.9444 71.5468 51.019 73.0764 52.5486C74.606 54.0782 76.6806 54.9375 78.8438 54.9375H87V16.875H78.8438ZM8.15625 49.5H5.4375V22.3125H8.15625C8.87731 22.3125 9.56883 22.5989 10.0787 23.1088C10.5886 23.6187 10.875 24.3102 10.875 25.0312V46.7812C10.875 47.5023 10.5886 48.1938 10.0787 48.7037C9.56883 49.2136 8.87731 49.5 8.15625 49.5ZM54.375 41.3438V46.7812C54.375 47.5023 54.0886 48.1938 53.5787 48.7037C53.0688 49.2136 52.3773 49.5 51.6562 49.5H35.3438C34.6227 49.5 33.9312 49.2136 33.4213 48.7037C32.9114 48.1938 32.625 47.5023 32.625 46.7812V41.3438H16.3125V30.4688H32.625V25.0312C32.625 24.3102 32.9114 23.6187 33.4213 23.1088C33.9312 22.5989 34.6227 22.3125 35.3438 22.3125H51.6562C52.3773 22.3125 53.0688 22.5989 53.5787 23.1088C54.0886 23.6187 54.375 24.3102 54.375 25.0312V30.4688H70.6875V41.3438H54.375ZM81.5625 49.5H78.8438C78.1227 49.5 77.4312 49.2136 76.9213 48.7037C76.4114 48.1938 76.125 47.5023 76.125 46.7812V25.0312C76.125 24.3102 76.4114 23.6187 76.9213 23.1088C77.4312 22.5989 78.1227 22.3125 78.8438 22.3125H81.5625V49.5Z" fill="#D0DFD6"/>
<path d="M59.8125 0.5625H27.1875V6H40.7813V11.4375H46.2188V6H59.8125V0.5625Z" fill="#D0DFD6"/>
</svg>
