<svg width="91" height="77" viewBox="0 0 91 77" fill="none" xmlns="http://www.w3.org/2000/svg">
<path d="M87.1162 32.6081H82.224C80.074 32.6081 78.319 34.4071 78.319 36.611V37.623H70.2238C67.1086 30.6291 61.4047 25.2994 54.3187 22.8257V15.0447H49.4265V13.0208H65.4413C67.4158 13.0208 69.0172 11.2217 69.0172 9.01784C69.0172 6.81398 67.4158 5.01492 65.4413 5.01492H49.4265V3.64313C49.4265 1.61918 47.6715 0 45.5215 0C43.3716 0 41.6166 1.64167 41.6166 3.64313V5.01492H25.6017C23.6273 5.01492 22.0478 6.81398 22.0478 9.01784C22.0478 11.2217 23.6493 13.0208 25.6017 13.0208H41.6166V15.0447H36.7024V22.8257C29.6164 25.2994 23.9125 30.6291 20.7973 37.623H12.7021V36.611C12.7021 34.4071 10.9471 32.6081 8.79717 32.6081H3.90498C1.75504 32.6081 0 34.4071 0 36.611V61.7079C0 63.9118 1.75504 65.7109 3.90498 65.7109H8.79717C10.9471 65.7109 12.7021 63.9118 12.7021 61.7079V60.696H20.7754C25.1849 70.6358 34.7938 77 45.4996 77C56.2054 77 65.8143 70.6358 70.2238 60.696H78.2971V61.7079C78.2971 63.9118 80.0521 65.7109 82.202 65.7109H87.0942C89.2442 65.7109 90.9992 63.9118 90.9992 61.7079V36.611C91.0431 34.4071 89.288 32.6081 87.1162 32.6081ZM25.6017 10.0298C25.2946 10.0298 24.9655 9.60253 24.9655 9.01784C24.9655 8.43314 25.2946 8.00583 25.6017 8.00583H44.5563V3.64313C44.5563 3.32829 44.9731 2.99095 45.5435 2.99095C46.1139 2.99095 46.5307 3.32829 46.5307 3.64313V8.00583H65.4633C65.7704 8.00583 66.0995 8.43314 66.0995 9.01784C66.0995 9.60253 65.7704 10.0298 65.4633 10.0298H46.5307V15.0447H44.5563V10.0298H25.6017ZM9.80632 61.6855C9.80632 62.2252 9.34563 62.6974 8.81911 62.6974H3.92691C3.4004 62.6974 2.9397 62.2252 2.9397 61.6855V36.5885C2.9397 36.0488 3.4004 35.5765 3.92691 35.5765H8.81911C9.34563 35.5765 9.80632 36.0488 9.80632 36.5885V37.6005V60.6735V61.6855ZM68.2933 57.6825L67.9203 58.6045C64.1689 67.9372 55.3717 73.9866 45.5215 73.9866C35.6713 73.9866 26.8742 67.9597 23.1228 58.6045L22.7498 57.6825H12.746V40.6139H22.7717L23.1447 39.6919C25.9528 32.7205 31.5909 27.5032 38.611 25.3443L39.6641 25.0295V18.0356H41.6385H49.4704H51.4448V25.0295L52.4979 25.3443C59.518 27.4807 65.1561 32.7205 67.9642 39.6919L68.3372 40.6139H78.3629V57.6825H68.2933ZM88.1034 61.6855C88.1034 62.2252 87.6646 62.6974 87.1162 62.6974H82.224C81.6974 62.6974 81.2368 62.2252 81.2368 61.6855V60.6735V37.6005V36.5885C81.2368 36.0488 81.6974 35.5765 82.224 35.5765H87.1162C87.6427 35.5765 88.1034 36.0488 88.1034 36.5885V61.6855Z" fill="#D5D9E3"/>
</svg>
