<svg width="107" height="45" viewBox="0 0 107 45" fill="none" xmlns="http://www.w3.org/2000/svg">
<path d="M106.713 35.0451C106.441 34.6764 106.005 34.4551 105.552 34.4551H104.753V14.4347C104.753 13.6235 104.099 12.9598 103.3 12.9598H96.7283V8.27735H100.468H100.486C101.285 8.27735 101.939 7.61369 101.939 6.80254C101.939 6.43384 101.812 6.102 101.594 5.84391L100.958 4.81155L101.703 3.59486C101.975 3.13398 101.993 2.56247 101.739 2.1016C101.485 1.62228 100.995 1.34578 100.468 1.34578H96.7102C96.6376 0.589942 96.0203 0 95.276 0C94.4772 0 93.8236 0.663668 93.8236 1.47481V2.82056V6.821V12.9783H90.9552V5.5674C90.9552 4.75625 90.3016 4.09259 89.5028 4.09259H78.3194C77.5206 4.09259 76.8671 4.75625 76.8671 5.5674V12.9783H74.9245C74.1257 12.9783 73.4722 13.642 73.4722 14.4531V34.4736H70.8579V24.0762C70.8579 23.3572 70.3314 22.7304 69.6234 22.6198L63.251 21.6059C63.1058 21.5875 62.9606 21.5875 62.7972 21.6059L56.4248 22.6198C55.9528 22.6936 55.5716 23.007 55.3538 23.431C55.1541 23.007 54.7728 22.6936 54.2826 22.6198L47.9103 21.6059C47.765 21.5875 47.6198 21.5875 47.4564 21.6059L41.0841 22.6198C40.6121 22.6936 40.2309 23.007 40.013 23.431C39.8133 23.007 39.432 22.6936 38.9418 22.6198L32.5695 21.6059C32.4243 21.5875 32.279 21.5875 32.1156 21.6059L25.7434 22.6198C25.0354 22.7304 24.5089 23.3572 24.5089 24.0762V34.4736H24.3091V28.7587C24.3091 27.9476 23.6556 27.2839 22.8568 27.2839H1.45236C0.653548 27.2839 0 27.9476 0 28.7587V35.9484C0 36.0959 0.0181702 36.2433 0.0726344 36.3908L2.39644 43.9676C2.57798 44.576 3.14074 45 3.77616 45H103.282C103.918 45 104.48 44.576 104.68 43.9492L106.931 36.3724C107.077 35.8931 106.986 35.4138 106.713 35.0451ZM97.8721 5.30931H96.7102V4.2585H97.8721C97.745 4.60876 97.745 4.97748 97.8721 5.30931ZM76.3406 22.9885H101.848V26.7677H76.3406V22.9885ZM79.7355 7.00533H88.0141V12.9414H79.7355V7.00533ZM78.2832 15.891H89.4665H101.83V20.0389H76.3225V15.891H78.2832ZM76.3406 29.7173H101.848V34.4367H76.3406V29.7173ZM58.0588 25.3114L62.9787 24.5371L67.8986 25.3114V34.4551H58.0588V25.3114ZM42.7544 25.3114L47.6743 24.5371L52.5942 25.3114V34.4551H42.7544V25.3114ZM27.4318 25.3114L32.3517 24.5371L37.2716 25.3114V34.4551H27.4318V25.3114ZM102.211 42.0135H4.84733L2.90477 35.6903V30.1966H21.4044V35.9115C21.4044 36.7227 22.058 37.3863 22.8568 37.3863H25.9613H38.7058H41.2839H54.0284H56.6065H69.351H74.8701H103.282H103.573L102.211 42.0135Z" fill="#D5D9E3"/>
</svg>
