<svg width="77" height="87" viewBox="0 0 77 87" fill="none" xmlns="http://www.w3.org/2000/svg">
<path d="M77 87H0V84.9189H19.6439L34.4901 30.846C32.6895 29.6118 31.5108 27.5683 31.5108 25.2618C31.5108 21.5014 34.647 18.4405 38.5 18.4405C42.3559 18.4405 45.4892 21.5014 45.4892 25.2618C45.4892 27.5683 44.3105 29.6118 42.507 30.846L57.3561 84.9189H77V87ZM21.8532 84.9189H55.1498L52.5466 75.4414H24.4564L21.8532 84.9189ZM25.028 73.3575H51.975L48.5811 60.9896H28.4248L25.028 73.3575ZM28.9964 58.9056H48.0065L44.6126 46.5378H32.3933L28.9964 58.9056ZM32.9619 44.4538H44.0381L40.5583 31.7796C39.2582 32.1727 37.7418 32.1727 36.4417 31.7796L32.9619 44.4538ZM38.5 20.5216C35.8228 20.5216 33.6431 22.6489 33.6431 25.2618C33.6431 27.8747 35.8228 30.002 38.5 30.002C41.1772 30.002 43.3569 27.8747 43.3569 25.2618C43.3569 22.6489 41.1772 20.5216 38.5 20.5216ZM12.6635 50.5669C5.71873 43.815 1.89539 34.8289 1.89539 25.2618C1.89539 15.7207 5.70392 6.749 12.6162 0L14.1236 1.4712C7.61412 7.82711 4.02769 16.2756 4.02769 25.2618C4.02769 34.2711 7.62892 42.7341 14.168 49.0929L12.6635 50.5669ZM64.3839 50.5236L62.8735 49.0495C69.3859 42.6965 72.9693 34.2479 72.9693 25.2618C72.9693 16.2728 69.3859 7.82422 62.8735 1.4712L64.3839 0C71.2961 6.74611 75.1046 15.7178 75.1046 25.2618C75.1046 34.8058 71.2961 43.7746 64.3839 50.5236ZM18.9005 44.3902C13.6645 39.283 10.78 32.4877 10.78 25.2618C10.78 18.0359 13.6645 11.2406 18.9005 6.13336L20.408 7.60455C15.5747 12.3187 12.9123 18.5908 12.9123 25.2618C12.9123 31.9328 15.5747 38.2048 20.408 42.919L18.9005 44.3902ZM58.1024 44.3902L56.592 42.919C61.4253 38.202 64.0847 31.9299 64.0847 25.2618C64.0847 18.5937 61.4253 12.3216 56.592 7.60455L58.1024 6.13336C63.3384 11.2435 66.22 18.0359 66.22 25.2618C66.22 32.4877 63.3384 39.2801 58.1024 44.3902ZM51.818 38.2598L50.3077 36.7886C53.4617 33.7074 55.2001 29.6147 55.2001 25.2618C55.2001 20.9089 53.4617 16.8161 50.3077 13.735L51.818 12.2638C55.3748 15.7351 57.3354 20.3511 57.3354 25.2618C57.3354 30.1725 55.3748 34.7884 51.818 38.2598ZM25.182 38.2598C21.6252 34.7884 19.6646 30.1725 19.6646 25.2618C19.6646 20.3511 21.6252 15.7351 25.182 12.2638L26.6894 13.735C23.5353 16.8133 21.7969 20.9089 21.7969 25.2618C21.7969 29.6147 23.5353 33.7103 26.6894 36.7886L25.182 38.2598Z" fill="#D5D9E3"/>
</svg>
