<svg width="32" height="32" viewBox="0 0 32 32" fill="none" xmlns="http://www.w3.org/2000/svg">
<path d="M2.40039 28V24.2667C2.40039 23.5333 2.58928 22.8444 2.96706 22.2C3.34484 21.5556 3.86706 21.0667 4.53372 20.7333C5.66706 20.1556 6.94484 19.6667 8.36706 19.2667C9.78928 18.8667 11.3559 18.6667 13.0671 18.6667C14.7782 18.6667 16.3448 18.8667 17.7671 19.2667C19.1893 19.6667 20.4671 20.1556 21.6004 20.7333C22.2671 21.0667 22.7893 21.5556 23.1671 22.2C23.5448 22.8444 23.7337 23.5333 23.7337 24.2667V28H2.40039ZM5.06706 25.3333H21.0671V24.2667C21.0671 24.0222 21.0062 23.8 20.8844 23.6C20.7626 23.4 20.6013 23.2444 20.4004 23.1333C19.6004 22.7333 18.5728 22.3333 17.3177 21.9333C16.0626 21.5333 14.6457 21.3333 13.0671 21.3333C11.4884 21.3333 10.0719 21.5333 8.81772 21.9333C7.5635 22.3333 6.5355 22.7333 5.73372 23.1333C5.53372 23.2444 5.37284 23.4 5.25106 23.6C5.12928 23.8 5.06795 24.0222 5.06706 24.2667V25.3333ZM13.0671 17.3333C11.6004 17.3333 10.3448 16.8111 9.30039 15.7667C8.25595 14.7222 7.73372 13.4667 7.73372 12H7.40039C7.20039 12 7.0395 11.9391 6.91772 11.8173C6.79595 11.6956 6.73461 11.5342 6.73372 11.3333C6.73284 11.1324 6.79417 10.9711 6.91772 10.8493C7.04128 10.7276 7.20217 10.6667 7.40039 10.6667H7.73372C7.73372 9.66667 7.97817 8.76667 8.46706 7.96667C8.95595 7.16667 9.60039 6.53333 10.4004 6.06667V7.33333C10.4004 7.53333 10.4617 7.69467 10.5844 7.81733C10.7071 7.94 10.8679 8.00089 11.0671 8C11.2662 7.99911 11.4275 7.93822 11.5511 7.81733C11.6746 7.69644 11.7355 7.53511 11.7337 7.33333V5.53333C11.9337 5.46667 12.1448 5.41689 12.3671 5.384C12.5893 5.35111 12.8226 5.33422 13.0671 5.33333C13.3115 5.33244 13.5448 5.34933 13.7671 5.384C13.9893 5.41867 14.2004 5.46844 14.4004 5.53333V7.33333C14.4004 7.53333 14.4617 7.69467 14.5844 7.81733C14.7071 7.94 14.8679 8.00089 15.0671 8C15.2662 7.99911 15.4275 7.93822 15.5511 7.81733C15.6746 7.69644 15.7355 7.53511 15.7337 7.33333V6.06667C16.5337 6.53333 17.1782 7.16667 17.6671 7.96667C18.1559 8.76667 18.4004 9.66667 18.4004 10.6667H18.7337C18.9337 10.6667 19.0951 10.728 19.2177 10.8507C19.3404 10.9733 19.4013 11.1342 19.4004 11.3333C19.3995 11.5324 19.3386 11.6938 19.2177 11.8173C19.0968 11.9409 18.9355 12.0018 18.7337 12H18.4004C18.4004 13.4667 17.8782 14.7222 16.8337 15.7667C15.7893 16.8111 14.5337 17.3333 13.0671 17.3333ZM13.0671 14.6667C13.8004 14.6667 14.4284 14.4058 14.9511 13.884C15.4737 13.3622 15.7346 12.7342 15.7337 12H10.4004C10.4004 12.7333 10.6617 13.3613 11.1844 13.884C11.7071 14.4067 12.3346 14.6676 13.0671 14.6667ZM23.0671 20L22.8671 19C22.7337 18.9556 22.6062 18.9058 22.4844 18.8507C22.3626 18.7956 22.2457 18.712 22.1337 18.6L21.2004 18.9333L20.5337 17.7333L21.2671 17.0667V16.2667L20.5337 15.6L21.2004 14.4L22.1337 14.7333C22.2226 14.6444 22.3337 14.5667 22.4671 14.5C22.6004 14.4333 22.7337 14.3778 22.8671 14.3333L23.0671 13.3333H24.4004L24.6004 14.3333C24.7337 14.3778 24.8671 14.4333 25.0004 14.5C25.1337 14.5667 25.2448 14.6444 25.3337 14.7333L26.2671 14.4L26.9337 15.6L26.2004 16.2667V17.0667L26.9337 17.7333L26.2671 18.9333L25.3337 18.6C25.2226 18.7111 25.1062 18.7947 24.9844 18.8507C24.8626 18.9067 24.7346 18.9564 24.6004 19L24.4004 20H23.0671ZM23.7337 17.6667C24.0004 17.6667 24.2337 17.5667 24.4337 17.3667C24.6337 17.1667 24.7337 16.9333 24.7337 16.6667C24.7337 16.4 24.6337 16.1667 24.4337 15.9667C24.2337 15.7667 24.0004 15.6667 23.7337 15.6667C23.4671 15.6667 23.2337 15.7667 23.0337 15.9667C22.8337 16.1667 22.7337 16.4 22.7337 16.6667C22.7337 16.9333 22.8337 17.1667 23.0337 17.3667C23.2337 17.5667 23.4671 17.6667 23.7337 17.6667ZM26.1337 13.3333L25.8671 11.9333C25.6671 11.8667 25.4839 11.7836 25.3177 11.684C25.1515 11.5844 25.0013 11.4676 24.8671 11.3333L23.4671 11.8L22.5337 10.2L23.6671 9.2C23.6226 9.08889 23.6004 9 23.6004 8.93333V8.4C23.6004 8.33333 23.6226 8.24444 23.6671 8.13333L22.5337 7.13333L23.4671 5.53333L24.8671 6C25.0004 5.86667 25.1506 5.74978 25.3177 5.64933C25.4848 5.54889 25.6679 5.46578 25.8671 5.4L26.1337 4H28.0004L28.2671 5.4C28.4671 5.46667 28.6506 5.55022 28.8177 5.65067C28.9848 5.75111 29.1346 5.86756 29.2671 6L30.6671 5.53333L31.6004 7.13333L30.4671 8.13333C30.5115 8.24444 30.5337 8.33333 30.5337 8.4V8.93333C30.5337 9 30.5115 9.08889 30.4671 9.2L31.6004 10.2L30.6671 11.8L29.2671 11.3333C29.1337 11.4667 28.9839 11.5836 28.8177 11.684C28.6515 11.7844 28.4679 11.8676 28.2671 11.9333L28.0004 13.3333H26.1337ZM27.0671 10.3333C27.5337 10.3333 27.9284 10.172 28.2511 9.84933C28.5737 9.52667 28.7346 9.13244 28.7337 8.66667C28.7328 8.20089 28.5715 7.80622 28.2497 7.48267C27.9279 7.15911 27.5337 6.99822 27.0671 7C26.6004 7.00178 26.2057 7.16311 25.8831 7.484C25.5604 7.80489 25.3995 8.19911 25.4004 8.66667C25.4013 9.13422 25.5626 9.52889 25.8844 9.85067C26.2062 10.1724 26.6004 10.3333 27.0671 10.3333Z" fill="#D5D9E3"/>
</svg>
