<svg width="32" height="32" viewBox="0 0 32 32" fill="none" xmlns="http://www.w3.org/2000/svg">
<path d="M9 12.5C9.92826 12.5 10.8185 12.1313 11.4749 11.4749C12.1313 10.8185 12.5 9.92826 12.5 9M9 12.5C8.07174 12.5 7.1815 12.1313 6.52513 11.4749C5.86875 10.8185 5.5 9.92826 5.5 9M9 12.5V16M12.5 9C12.5 8.07174 12.1313 7.1815 11.4749 6.52513C10.8185 5.86875 9.92826 5.5 9 5.5M12.5 9H16M9 5.5C8.07174 5.5 7.1815 5.86875 6.52513 6.52513C5.86875 7.1815 5.5 8.07174 5.5 9M9 5.5V2M5.5 9H2M4.33333 4.33333L6.66667 6.66667M11.3333 11.3333L13.6667 13.6667M13.6667 4.33333L11.3333 6.66667M6.66667 11.3333L4.33333 13.6667M23 16C23.9283 16 24.8185 15.6313 25.4749 14.9749C26.1313 14.3185 26.5 13.4283 26.5 12.5M23 16C22.0717 16 21.1815 15.6313 20.5251 14.9749C19.8687 14.3185 19.5 13.4283 19.5 12.5M23 16V19.5M26.5 12.5C26.5 11.5717 26.1313 10.6815 25.4749 10.0251C24.8185 9.36875 23.9283 9 23 9M26.5 12.5H30M23 9C22.0717 9 21.1815 9.36875 20.5251 10.0251C19.8687 10.6815 19.5 11.5717 19.5 12.5M23 9V5.5M19.5 12.5H16M18.3333 7.83333L20.6667 10.1667M25.3333 14.8333L27.6667 17.1667M27.6667 7.83333L25.3333 10.1667M20.6667 14.8333L18.3333 17.1667M12.5 26.5C13.4283 26.5 14.3185 26.1313 14.9749 25.4749C15.6313 24.8185 16 23.9283 16 23M12.5 26.5C11.5717 26.5 10.6815 26.1313 10.0251 25.4749C9.36875 24.8185 9 23.9283 9 23M12.5 26.5V30M16 23C16 22.0717 15.6313 21.1815 14.9749 20.5251C14.3185 19.8687 13.4283 19.5 12.5 19.5M16 23H19.5M12.5 19.5C11.5717 19.5 10.6815 19.8687 10.0251 20.5251C9.36875 21.1815 9 22.0717 9 23M12.5 19.5V16M9 23H5.5M7.83333 18.3333L10.1667 20.6667M14.8333 25.3333L17.1667 27.6667M17.1667 18.3333L14.8333 20.6667M10.1667 25.3333L7.83333 27.6667" stroke="#D5D9E3" stroke-width="2"/>
</svg>
