<svg width="32" height="32" viewBox="0 0 32 32" fill="none" xmlns="http://www.w3.org/2000/svg">
<path d="M1.3999 28V24.2667C1.3999 23.5333 1.58879 22.8444 1.96657 22.2C2.34435 21.5556 2.86657 21.0667 3.53324 20.7333C4.66657 20.1556 5.94435 19.6667 7.36657 19.2667C8.78879 18.8667 10.3555 18.6667 12.0666 18.6667C13.7777 18.6667 15.3443 18.8667 16.7666 19.2667C18.1888 19.6667 19.4666 20.1556 20.5999 20.7333C21.2666 21.0667 21.7888 21.5556 22.1666 22.2C22.5443 22.8444 22.7332 23.5333 22.7332 24.2667V28H1.3999ZM4.06657 25.3333H20.0666V24.2667C20.0666 24.0222 20.0057 23.8 19.8839 23.6C19.7621 23.4 19.6008 23.2444 19.3999 23.1333C18.5999 22.7333 17.5723 22.3333 16.3172 21.9333C15.0621 21.5333 13.6452 21.3333 12.0666 21.3333C10.4879 21.3333 9.07146 21.5333 7.81724 21.9333C6.56301 22.3333 5.53501 22.7333 4.73324 23.1333C4.53324 23.2444 4.37235 23.4 4.25057 23.6C4.12879 23.8 4.06746 24.0222 4.06657 24.2667V25.3333ZM12.0666 17.3333C10.5999 17.3333 9.34435 16.8111 8.2999 15.7667C7.25546 14.7222 6.73324 13.4667 6.73324 12H6.3999C6.1999 12 6.03901 11.9391 5.91724 11.8173C5.79546 11.6956 5.73413 11.5342 5.73324 11.3333C5.73235 11.1324 5.79368 10.9711 5.91724 10.8493C6.04079 10.7276 6.20168 10.6667 6.3999 10.6667H6.73324C6.73324 9.66667 6.97768 8.76667 7.46657 7.96667C7.95546 7.16667 8.5999 6.53333 9.3999 6.06667V7.33333C9.3999 7.53333 9.46124 7.69467 9.5839 7.81733C9.70657 7.94 9.86746 8.00089 10.0666 8C10.2657 7.99911 10.427 7.93822 10.5506 7.81733C10.6741 7.69644 10.735 7.53511 10.7332 7.33333V5.53333C10.9332 5.46667 11.1443 5.41689 11.3666 5.384C11.5888 5.35111 11.8221 5.33422 12.0666 5.33333C12.311 5.33244 12.5443 5.34933 12.7666 5.384C12.9888 5.41867 13.1999 5.46844 13.3999 5.53333V7.33333C13.3999 7.53333 13.4612 7.69467 13.5839 7.81733C13.7066 7.94 13.8675 8.00089 14.0666 8C14.2657 7.99911 14.427 7.93822 14.5506 7.81733C14.6741 7.69644 14.735 7.53511 14.7332 7.33333V6.06667C15.5332 6.53333 16.1777 7.16667 16.6666 7.96667C17.1555 8.76667 17.3999 9.66667 17.3999 10.6667H17.7332C17.9332 10.6667 18.0946 10.728 18.2172 10.8507C18.3399 10.9733 18.4008 11.1342 18.3999 11.3333C18.399 11.5324 18.3381 11.6938 18.2172 11.8173C18.0963 11.9409 17.935 12.0018 17.7332 12H17.3999C17.3999 13.4667 16.8777 14.7222 15.8332 15.7667C14.7888 16.8111 13.5332 17.3333 12.0666 17.3333ZM12.0666 14.6667C12.7999 14.6667 13.4279 14.4058 13.9506 13.884C14.4732 13.3622 14.7341 12.7342 14.7332 12H9.3999C9.3999 12.7333 9.66124 13.3613 10.1839 13.884C10.7066 14.4067 11.3341 14.6676 12.0666 14.6667ZM22.0666 20L21.8666 19C21.7332 18.9556 21.6057 18.9058 21.4839 18.8507C21.3621 18.7956 21.2452 18.712 21.1332 18.6L20.1999 18.9333L19.5332 17.7333L20.2666 17.0667V16.2667L19.5332 15.6L20.1999 14.4L21.1332 14.7333C21.2221 14.6444 21.3332 14.5667 21.4666 14.5C21.5999 14.4333 21.7332 14.3778 21.8666 14.3333L22.0666 13.3333H23.3999L23.5999 14.3333C23.7332 14.3778 23.8666 14.4333 23.9999 14.5C24.1332 14.5667 24.2443 14.6444 24.3332 14.7333L25.2666 14.4L25.9332 15.6L25.1999 16.2667V17.0667L25.9332 17.7333L25.2666 18.9333L24.3332 18.6C24.2221 18.7111 24.1057 18.7947 23.9839 18.8507C23.8621 18.9067 23.7341 18.9564 23.5999 19L23.3999 20H22.0666ZM22.7332 17.6667C22.9999 17.6667 23.2332 17.5667 23.4332 17.3667C23.6332 17.1667 23.7332 16.9333 23.7332 16.6667C23.7332 16.4 23.6332 16.1667 23.4332 15.9667C23.2332 15.7667 22.9999 15.6667 22.7332 15.6667C22.4666 15.6667 22.2332 15.7667 22.0332 15.9667C21.8332 16.1667 21.7332 16.4 21.7332 16.6667C21.7332 16.9333 21.8332 17.1667 22.0332 17.3667C22.2332 17.5667 22.4666 17.6667 22.7332 17.6667ZM25.1332 13.3333L24.8666 11.9333C24.6666 11.8667 24.4835 11.7836 24.3172 11.684C24.151 11.5844 24.0008 11.4676 23.8666 11.3333L22.4666 11.8L21.5332 10.2L22.6666 9.2C22.6221 9.08889 22.5999 9 22.5999 8.93333V8.4C22.5999 8.33333 22.6221 8.24444 22.6666 8.13333L21.5332 7.13333L22.4666 5.53333L23.8666 6C23.9999 5.86667 24.1501 5.74978 24.3172 5.64933C24.4844 5.54889 24.6675 5.46578 24.8666 5.4L25.1332 4H26.9999L27.2666 5.4C27.4666 5.46667 27.6501 5.55022 27.8172 5.65067C27.9844 5.75111 28.1341 5.86756 28.2666 6L29.6666 5.53333L30.5999 7.13333L29.4666 8.13333C29.511 8.24444 29.5332 8.33333 29.5332 8.4V8.93333C29.5332 9 29.511 9.08889 29.4666 9.2L30.5999 10.2L29.6666 11.8L28.2666 11.3333C28.1332 11.4667 27.9835 11.5836 27.8172 11.684C27.651 11.7844 27.4675 11.8676 27.2666 11.9333L26.9999 13.3333H25.1332ZM26.0666 10.3333C26.5332 10.3333 26.9279 10.172 27.2506 9.84933C27.5732 9.52667 27.7341 9.13244 27.7332 8.66667C27.7323 8.20089 27.571 7.80622 27.2492 7.48267C26.9275 7.15911 26.5332 6.99822 26.0666 7C25.5999 7.00178 25.2052 7.16311 24.8826 7.484C24.5599 7.80489 24.399 8.19911 24.3999 8.66667C24.4008 9.13422 24.5621 9.52889 24.8839 9.85067C25.2057 10.1724 25.5999 10.3333 26.0666 10.3333Z" fill="#25325E"/>
</svg>
