<svg width="24" height="24" viewBox="0 0 24 24" fill="none" xmlns="http://www.w3.org/2000/svg">
<path d="M15.6004 13.768L17.0044 6.64C17.9524 6.124 18.6004 5.14 18.6004 4C18.6004 3.20435 18.2843 2.44129 17.7217 1.87868C17.1591 1.31607 16.396 1 15.6004 1C14.8047 1 14.0417 1.31607 13.4791 1.87868C12.9165 2.44129 12.6004 3.20435 12.6004 4C12.6004 5.14 13.2484 6.124 14.1964 6.64L15.6004 13.768ZM15.6004 2.2C16.5964 2.2 17.4004 3.004 17.4004 4C17.4004 4.996 16.5964 5.8 15.6004 5.8C14.6044 5.8 13.8004 4.996 13.8004 4C13.8004 3.004 14.6044 2.2 15.6004 2.2ZM17.6644 7.96L21.6004 6.364V17.164L15.7444 19.6L8.40039 17.164L2.40039 19.564V8.764L8.40039 6.364L13.5244 8.056L15.6004 16.816L17.6644 7.96Z" fill="url(#paint0_linear_4150_3471)"/>
<defs>
<linearGradient id="paint0_linear_4150_3471" x1="2.40031" y1="10.3006" x2="21.6004" y2="10.3006" gradientUnits="userSpaceOnUse">
<stop stop-color="#2E3F75"/>
<stop offset="1" stop-color="#165D31"/>
</linearGradient>
</defs>
</svg>
